<!DOCTYPE svg PUBLIC "-//W3C//DTD SVG 1.1//EN" "http://www.w3.org/Graphics/SVG/1.1/DTD/svg11.dtd">
<svg xmlns="http://www.w3.org/2000/svg" xmlns:xlink="http://www.w3.org/1999/xlink" xmlns:jfreesvg="http://www.jfree.org/jfreesvg/svg" width="640" height="480" text-rendering="auto" shape-rendering="auto">
<defs><clipPath id="_1260104281388600clip-0"><path d="M 0 0 L 640 0 L 640 480 L 0 480 L 0 0 Z "/></clipPath>
<clipPath id="_1260104281388600clip-1"><path d="M 233.5 208.5 L 233.5 848.5 L -246.5 848.5 L -246.5 208.5 L 233.5 208.5 Z "/></clipPath>
<clipPath id="_1260104281388600clip-2"><path d="M 49 31 L 49 411 L 636 411 L 636 31 Z "/></clipPath>
</defs>
<rect x="0" y="0" width="640" height="480" style="fill: rgb(255,255,255); fill-opacity: 0.0" clip-path="url(#_1260104281388600clip-0)"/><g ><text x="208.5" y="21.01" style="fill: rgb(0,0,0); fill-opacity: 1.0; font-family: Tahoma; font-size: 20px; font-weight: bold;" clip-path="url(#_1260104281388600clip-0)">Dados do treinamento</text></g><rect x="293.5" y="458" width="53" height="21" style="fill: rgb(255,255,255); fill-opacity: 1.0" clip-path="url(#_1260104281388600clip-0)"/><g style="stroke-width: 0.1;stroke: rgb(255,85,85);stroke-opacity: 1.0;stroke-linecap: square;shape-rendering:geometricPrecision;; fill: none" clip-path="url(#_1260104281388600clip-0)"><path d="M 296.5 468.5 L 310.5 468.5"/></g><g ><text x="314.5" y="473.01" style="fill: rgb(64,64,64); fill-opacity: 1.0; font-family: Tahoma; font-size: 12px;" clip-path="url(#_1260104281388600clip-0)">Score</text></g><rect x="49" y="31" width="587" height="380" style="fill: rgb(255,255,255); fill-opacity: 0.0" clip-path="url(#_1260104281388600clip-0)"/><line x1="49" y1="415" x2="636" y2="415" style="stroke-width: 0.5;stroke: rgb(128,128,128);stroke-opacity: 1.0;stroke-linecap: square;shape-rendering:crispEdges;" clip-path="url(#_1260104281388600clip-0)"/><g ><text x="45.5" y="431.52" style="fill: rgb(64,64,64); fill-opacity: 1.0; font-family: Tahoma; font-size: 12px;" clip-path="url(#_1260104281388600clip-0)">0</text></g><line x1="49" y1="417" x2="49" y2="415" style="stroke-width: 0.5;stroke: rgb(128,128,128);stroke-opacity: 1.0;stroke-linecap: square;shape-rendering:crispEdges;" clip-path="url(#_1260104281388600clip-0)"/><g ><text x="101.24" y="431.52" style="fill: rgb(64,64,64); fill-opacity: 1.0; font-family: Tahoma; font-size: 12px;" clip-path="url(#_1260104281388600clip-0)">500</text></g><line x1="111.24" y1="417" x2="111.24" y2="415" style="stroke-width: 0.5;stroke: rgb(128,128,128);stroke-opacity: 1.0;stroke-linecap: square;shape-rendering:crispEdges;" clip-path="url(#_1260104281388600clip-0)"/><g ><text x="158.48" y="431.52" style="fill: rgb(64,64,64); fill-opacity: 1.0; font-family: Tahoma; font-size: 12px;" clip-path="url(#_1260104281388600clip-0)">1.000</text></g><line x1="173.48" y1="417" x2="173.48" y2="415" style="stroke-width: 0.5;stroke: rgb(128,128,128);stroke-opacity: 1.0;stroke-linecap: square;shape-rendering:crispEdges;" clip-path="url(#_1260104281388600clip-0)"/><g ><text x="220.72" y="431.52" style="fill: rgb(64,64,64); fill-opacity: 1.0; font-family: Tahoma; font-size: 12px;" clip-path="url(#_1260104281388600clip-0)">1.500</text></g><line x1="235.72" y1="417" x2="235.72" y2="415" style="stroke-width: 0.5;stroke: rgb(128,128,128);stroke-opacity: 1.0;stroke-linecap: square;shape-rendering:crispEdges;" clip-path="url(#_1260104281388600clip-0)"/><g ><text x="282.96" y="431.52" style="fill: rgb(64,64,64); fill-opacity: 1.0; font-family: Tahoma; font-size: 12px;" clip-path="url(#_1260104281388600clip-0)">2.000</text></g><line x1="297.96" y1="417" x2="297.96" y2="415" style="stroke-width: 0.5;stroke: rgb(128,128,128);stroke-opacity: 1.0;stroke-linecap: square;shape-rendering:crispEdges;" clip-path="url(#_1260104281388600clip-0)"/><g ><text x="345.2" y="431.52" style="fill: rgb(64,64,64); fill-opacity: 1.0; font-family: Tahoma; font-size: 12px;" clip-path="url(#_1260104281388600clip-0)">2.500</text></g><line x1="360.2" y1="417" x2="360.2" y2="415" style="stroke-width: 0.5;stroke: rgb(128,128,128);stroke-opacity: 1.0;stroke-linecap: square;shape-rendering:crispEdges;" clip-path="url(#_1260104281388600clip-0)"/><g ><text x="407.45" y="431.52" style="fill: rgb(64,64,64); fill-opacity: 1.0; font-family: Tahoma; font-size: 12px;" clip-path="url(#_1260104281388600clip-0)">3.000</text></g><line x1="422.45" y1="417" x2="422.45" y2="415" style="stroke-width: 0.5;stroke: rgb(128,128,128);stroke-opacity: 1.0;stroke-linecap: square;shape-rendering:crispEdges;" clip-path="url(#_1260104281388600clip-0)"/><g ><text x="469.69" y="431.52" style="fill: rgb(64,64,64); fill-opacity: 1.0; font-family: Tahoma; font-size: 12px;" clip-path="url(#_1260104281388600clip-0)">3.500</text></g><line x1="484.69" y1="417" x2="484.69" y2="415" style="stroke-width: 0.5;stroke: rgb(128,128,128);stroke-opacity: 1.0;stroke-linecap: square;shape-rendering:crispEdges;" clip-path="url(#_1260104281388600clip-0)"/><g ><text x="531.93" y="431.52" style="fill: rgb(64,64,64); fill-opacity: 1.0; font-family: Tahoma; font-size: 12px;" clip-path="url(#_1260104281388600clip-0)">4.000</text></g><line x1="546.93" y1="417" x2="546.93" y2="415" style="stroke-width: 0.5;stroke: rgb(128,128,128);stroke-opacity: 1.0;stroke-linecap: square;shape-rendering:crispEdges;" clip-path="url(#_1260104281388600clip-0)"/><g ><text x="594.17" y="431.52" style="fill: rgb(64,64,64); fill-opacity: 1.0; font-family: Tahoma; font-size: 12px;" clip-path="url(#_1260104281388600clip-0)">4.500</text></g><line x1="609.17" y1="417" x2="609.17" y2="415" style="stroke-width: 0.5;stroke: rgb(128,128,128);stroke-opacity: 1.0;stroke-linecap: square;shape-rendering:crispEdges;" clip-path="url(#_1260104281388600clip-0)"/><g ><text x="309" y="450.59" style="fill: rgb(64,64,64); fill-opacity: 1.0; font-family: Tahoma; font-size: 14px; font-weight: bold;" clip-path="url(#_1260104281388600clip-0)">Iterações</text></g><line x1="45" y1="31" x2="45" y2="411" style="stroke-width: 0.5;stroke: rgb(128,128,128);stroke-opacity: 1.0;stroke-linecap: square;shape-rendering:crispEdges;" clip-path="url(#_1260104281388600clip-0)"/><g ><text x="32" y="416.02" style="fill: rgb(64,64,64); fill-opacity: 1.0; font-family: Tahoma; font-size: 12px;" clip-path="url(#_1260104281388600clip-0)">0</text></g><line x1="43" y1="411" x2="45" y2="411" style="stroke-width: 0.5;stroke: rgb(128,128,128);stroke-opacity: 1.0;stroke-linecap: square;shape-rendering:crispEdges;" clip-path="url(#_1260104281388600clip-0)"/><g ><text x="32" y="379.39" style="fill: rgb(64,64,64); fill-opacity: 1.0; font-family: Tahoma; font-size: 12px;" clip-path="url(#_1260104281388600clip-0)">2</text></g><line x1="43" y1="374.37" x2="45" y2="374.37" style="stroke-width: 0.5;stroke: rgb(128,128,128);stroke-opacity: 1.0;stroke-linecap: square;shape-rendering:crispEdges;" clip-path="url(#_1260104281388600clip-0)"/><g ><text x="32" y="342.76" style="fill: rgb(64,64,64); fill-opacity: 1.0; font-family: Tahoma; font-size: 12px;" clip-path="url(#_1260104281388600clip-0)">4</text></g><line x1="43" y1="337.74" x2="45" y2="337.74" style="stroke-width: 0.5;stroke: rgb(128,128,128);stroke-opacity: 1.0;stroke-linecap: square;shape-rendering:crispEdges;" clip-path="url(#_1260104281388600clip-0)"/><g ><text x="32" y="306.13" style="fill: rgb(64,64,64); fill-opacity: 1.0; font-family: Tahoma; font-size: 12px;" clip-path="url(#_1260104281388600clip-0)">6</text></g><line x1="43" y1="301.11" x2="45" y2="301.11" style="stroke-width: 0.5;stroke: rgb(128,128,128);stroke-opacity: 1.0;stroke-linecap: square;shape-rendering:crispEdges;" clip-path="url(#_1260104281388600clip-0)"/><g ><text x="32" y="269.51" style="fill: rgb(64,64,64); fill-opacity: 1.0; font-family: Tahoma; font-size: 12px;" clip-path="url(#_1260104281388600clip-0)">8</text></g><line x1="43" y1="264.48" x2="45" y2="264.48" style="stroke-width: 0.5;stroke: rgb(128,128,128);stroke-opacity: 1.0;stroke-linecap: square;shape-rendering:crispEdges;" clip-path="url(#_1260104281388600clip-0)"/><g ><text x="26" y="232.88" style="fill: rgb(64,64,64); fill-opacity: 1.0; font-family: Tahoma; font-size: 12px;" clip-path="url(#_1260104281388600clip-0)">10</text></g><line x1="43" y1="227.85" x2="45" y2="227.85" style="stroke-width: 0.5;stroke: rgb(128,128,128);stroke-opacity: 1.0;stroke-linecap: square;shape-rendering:crispEdges;" clip-path="url(#_1260104281388600clip-0)"/><g ><text x="26" y="196.25" style="fill: rgb(64,64,64); fill-opacity: 1.0; font-family: Tahoma; font-size: 12px;" clip-path="url(#_1260104281388600clip-0)">12</text></g><line x1="43" y1="191.23" x2="45" y2="191.23" style="stroke-width: 0.5;stroke: rgb(128,128,128);stroke-opacity: 1.0;stroke-linecap: square;shape-rendering:crispEdges;" clip-path="url(#_1260104281388600clip-0)"/><g ><text x="26" y="159.62" style="fill: rgb(64,64,64); fill-opacity: 1.0; font-family: Tahoma; font-size: 12px;" clip-path="url(#_1260104281388600clip-0)">14</text></g><line x1="43" y1="154.6" x2="45" y2="154.6" style="stroke-width: 0.5;stroke: rgb(128,128,128);stroke-opacity: 1.0;stroke-linecap: square;shape-rendering:crispEdges;" clip-path="url(#_1260104281388600clip-0)"/><g ><text x="26" y="122.99" style="fill: rgb(64,64,64); fill-opacity: 1.0; font-family: Tahoma; font-size: 12px;" clip-path="url(#_1260104281388600clip-0)">16</text></g><line x1="43" y1="117.97" x2="45" y2="117.97" style="stroke-width: 0.5;stroke: rgb(128,128,128);stroke-opacity: 1.0;stroke-linecap: square;shape-rendering:crispEdges;" clip-path="url(#_1260104281388600clip-0)"/><g ><text x="26" y="86.36" style="fill: rgb(64,64,64); fill-opacity: 1.0; font-family: Tahoma; font-size: 12px;" clip-path="url(#_1260104281388600clip-0)">18</text></g><line x1="43" y1="81.34" x2="45" y2="81.34" style="stroke-width: 0.5;stroke: rgb(128,128,128);stroke-opacity: 1.0;stroke-linecap: square;shape-rendering:crispEdges;" clip-path="url(#_1260104281388600clip-0)"/><g ><text x="26" y="49.73" style="fill: rgb(64,64,64); fill-opacity: 1.0; font-family: Tahoma; font-size: 12px;" clip-path="url(#_1260104281388600clip-0)">20</text></g><line x1="43" y1="44.71" x2="45" y2="44.71" style="stroke-width: 0.5;stroke: rgb(128,128,128);stroke-opacity: 1.0;stroke-linecap: square;shape-rendering:crispEdges;" clip-path="url(#_1260104281388600clip-0)"/><g style="fill: rgb(64,64,64); fill-opacity: 1.0; stroke: none" transform="matrix(0,-1,1,0,-208.5,233.5)" clip-path="url(#_1260104281388600clip-1)"><path d="M -2.8 226.8 Q -3.97 226.8 -4.86 226.58 Q -5.73 226.34 -6.5 226 L -6.5 223.59 L -6.27 223.59 Q -5.5 224.23 -4.58 224.59 Q -3.66 224.94 -2.78 224.94 Q -2.56 224.94 -2.22 224.89 Q -1.86 224.84 -1.64 224.73 Q -1.36 224.62 -1.19 224.42 Q -1 224.2 -1 223.86 Q -1 223.48 -1.3 223.25 Q -1.59 223 -2.02 222.89 Q -2.53 222.75 -3.12 222.62 Q -3.72 222.5 -4.23 222.33 Q -5.41 221.91 -5.92 221.2 Q -6.44 220.5 -6.44 219.44 Q -6.44 218.01 -5.23 217.14 Q -4.02 216.25 -2.2 216.25 Q -1.3 216.25 -0.41 216.44 Q 0.5 216.61 1.2 216.92 L 1.2 219.25 L 0.98 219.25 Q 0.42 218.76 -0.41 218.44 Q -1.22 218.09 -2.08 218.09 Q -2.41 218.09 -2.69 218.14 Q -2.95 218.19 -3.23 218.33 Q -3.48 218.44 -3.66 218.66 Q -3.83 218.87 -3.83 219.14 Q -3.83 219.53 -3.56 219.76 Q -3.28 219.98 -2.48 220.17 Q -1.97 220.28 -1.5 220.39 Q -1.02 220.5 -0.48 220.7 Q 0.58 221.08 1.09 221.73 Q 1.61 222.37 1.61 223.44 Q 1.61 224.95 0.42 225.87 Q -0.77 226.8 -2.8 226.8 Z  M 6.55 226.81 Q 5.6 226.81 4.8 226.58 Q 4.02 226.33 3.44 225.84 Q 2.87 225.34 2.54 224.59 Q 2.23 223.83 2.23 222.8 Q 2.23 221.7 2.57 220.94 Q 2.91 220.16 3.51 219.66 Q 4.08 219.17 4.87 218.95 Q 5.65 218.72 6.48 218.72 Q 7.12 218.72 7.74 218.87 Q 8.38 219.01 9.04 219.33 L 9.04 221.39 L 8.73 221.39 Q 8.58 221.25 8.37 221.09 Q 8.16 220.92 7.91 220.78 Q 7.66 220.64 7.33 220.55 Q 7.01 220.44 6.6 220.44 Q 5.68 220.44 5.18 221.08 Q 4.68 221.72 4.68 222.8 Q 4.68 223.95 5.21 224.53 Q 5.76 225.09 6.63 225.09 Q 7.08 225.09 7.43 225 Q 7.77 224.89 8.02 224.75 Q 8.26 224.59 8.43 224.45 Q 8.6 224.3 8.73 224.17 L 9.04 224.17 L 9.04 226.22 Q 8.82 226.31 8.55 226.44 Q 8.29 226.55 8.01 226.61 Q 7.66 226.72 7.35 226.76 Q 7.05 226.81 6.55 226.81 Z  M 17.53 222.78 Q 17.53 224.67 16.5 225.76 Q 15.47 226.84 13.58 226.84 Q 11.69 226.84 10.64 225.76 Q 9.61 224.67 9.61 222.78 Q 9.61 220.86 10.64 219.78 Q 11.69 218.69 13.58 218.69 Q 15.45 218.69 16.48 219.78 Q 17.53 220.87 17.53 222.78 Z  M 15.08 222.78 Q 15.08 222.11 14.97 221.66 Q 14.86 221.19 14.66 220.92 Q 14.45 220.64 14.17 220.53 Q 13.91 220.41 13.58 220.41 Q 13.25 220.41 12.98 220.51 Q 12.73 220.61 12.51 220.89 Q 12.31 221.16 12.19 221.62 Q 12.06 222.08 12.06 222.78 Q 12.06 223.48 12.17 223.92 Q 12.3 224.36 12.48 224.62 Q 12.67 224.89 12.95 225.01 Q 13.25 225.12 13.59 225.12 Q 13.87 225.12 14.17 225.01 Q 14.47 224.89 14.66 224.64 Q 14.86 224.34 14.97 223.94 Q 15.08 223.51 15.08 222.78 Z  M 23.97 221.19 L 23.76 221.19 Q 23.62 221.14 23.36 221.12 Q 23.11 221.09 22.8 221.09 Q 22.42 221.09 22 221.2 Q 21.59 221.31 21.2 221.47 L 21.2 226.61 L 18.81 226.61 L 18.81 218.94 L 21.2 218.94 L 21.2 220.03 Q 21.36 219.87 21.64 219.66 Q 21.94 219.42 22.19 219.28 Q 22.44 219.12 22.78 219.01 Q 23.14 218.91 23.44 218.91 Q 23.56 218.91 23.7 218.92 Q 23.84 218.92 23.97 218.94 L 23.97 221.19 Z  M 28.8 226.81 Q 26.63 226.81 25.48 225.78 Q 24.32 224.73 24.32 222.81 Q 24.32 220.94 25.4 219.81 Q 26.48 218.69 28.41 218.69 Q 30.18 218.69 31.07 219.64 Q 31.96 220.59 31.96 222.36 L 31.96 223.22 L 26.71 223.22 Q 26.76 223.76 26.94 224.12 Q 27.13 224.47 27.44 224.69 Q 27.76 224.91 28.16 225 Q 28.57 225.08 29.05 225.08 Q 29.48 225.08 29.88 225 Q 30.29 224.91 30.62 224.75 Q 30.91 224.62 31.16 224.47 Q 31.41 224.31 31.57 224.2 L 31.82 224.2 L 31.82 226.17 Q 31.52 226.3 31.27 226.41 Q 31.04 226.5 30.62 226.59 Q 30.23 226.7 29.8 226.75 Q 29.4 226.81 28.8 226.81 Z  M 29.6 221.78 Q 29.58 221.03 29.24 220.64 Q 28.91 220.23 28.23 220.23 Q 27.54 220.23 27.15 220.66 Q 26.76 221.06 26.71 221.78 L 29.6 221.78 Z "/></g><line x1="49" y1="31" x2="49" y2="411" style="stroke-width: 0.5;stroke: rgb(0,0,0);stroke-opacity: 0.2509804;stroke-linejoin: bevel;stroke-dasharray: 2.0, 2.0;shape-rendering:crispEdges;" clip-path="url(#_1260104281388600clip-2)"/><line x1="111.24" y1="31" x2="111.24" y2="411" style="stroke-width: 0.5;stroke: rgb(0,0,0);stroke-opacity: 0.2509804;stroke-linejoin: bevel;stroke-dasharray: 2.0, 2.0;shape-rendering:crispEdges;" clip-path="url(#_1260104281388600clip-2)"/><line x1="173.48" y1="31" x2="173.48" y2="411" style="stroke-width: 0.5;stroke: rgb(0,0,0);stroke-opacity: 0.2509804;stroke-linejoin: bevel;stroke-dasharray: 2.0, 2.0;shape-rendering:crispEdges;" clip-path="url(#_1260104281388600clip-2)"/><line x1="235.72" y1="31" x2="235.72" y2="411" style="stroke-width: 0.5;stroke: rgb(0,0,0);stroke-opacity: 0.2509804;stroke-linejoin: bevel;stroke-dasharray: 2.0, 2.0;shape-rendering:crispEdges;" clip-path="url(#_1260104281388600clip-2)"/><line x1="297.96" y1="31" x2="297.96" y2="411" style="stroke-width: 0.5;stroke: rgb(0,0,0);stroke-opacity: 0.2509804;stroke-linejoin: bevel;stroke-dasharray: 2.0, 2.0;shape-rendering:crispEdges;" clip-path="url(#_1260104281388600clip-2)"/><line x1="360.2" y1="31" x2="360.2" y2="411" style="stroke-width: 0.5;stroke: rgb(0,0,0);stroke-opacity: 0.2509804;stroke-linejoin: bevel;stroke-dasharray: 2.0, 2.0;shape-rendering:crispEdges;" clip-path="url(#_1260104281388600clip-2)"/><line x1="422.45" y1="31" x2="422.45" y2="411" style="stroke-width: 0.5;stroke: rgb(0,0,0);stroke-opacity: 0.2509804;stroke-linejoin: bevel;stroke-dasharray: 2.0, 2.0;shape-rendering:crispEdges;" clip-path="url(#_1260104281388600clip-2)"/><line x1="484.69" y1="31" x2="484.69" y2="411" style="stroke-width: 0.5;stroke: rgb(0,0,0);stroke-opacity: 0.2509804;stroke-linejoin: bevel;stroke-dasharray: 2.0, 2.0;shape-rendering:crispEdges;" clip-path="url(#_1260104281388600clip-2)"/><line x1="546.93" y1="31" x2="546.93" y2="411" style="stroke-width: 0.5;stroke: rgb(0,0,0);stroke-opacity: 0.2509804;stroke-linejoin: bevel;stroke-dasharray: 2.0, 2.0;shape-rendering:crispEdges;" clip-path="url(#_1260104281388600clip-2)"/><line x1="609.17" y1="31" x2="609.17" y2="411" style="stroke-width: 0.5;stroke: rgb(0,0,0);stroke-opacity: 0.2509804;stroke-linejoin: bevel;stroke-dasharray: 2.0, 2.0;shape-rendering:crispEdges;" clip-path="url(#_1260104281388600clip-2)"/><line x1="49" y1="411" x2="636" y2="411" style="stroke-width: 0.5;stroke: rgb(0,0,0);stroke-opacity: 0.2509804;stroke-linejoin: bevel;stroke-dasharray: 2.0, 2.0;shape-rendering:crispEdges;" clip-path="url(#_1260104281388600clip-2)"/><line x1="49" y1="374.37" x2="636" y2="374.37" style="stroke-width: 0.5;stroke: rgb(0,0,0);stroke-opacity: 0.2509804;stroke-linejoin: bevel;stroke-dasharray: 2.0, 2.0;shape-rendering:crispEdges;" clip-path="url(#_1260104281388600clip-2)"/><line x1="49" y1="337.74" x2="636" y2="337.74" style="stroke-width: 0.5;stroke: rgb(0,0,0);stroke-opacity: 0.2509804;stroke-linejoin: bevel;stroke-dasharray: 2.0, 2.0;shape-rendering:crispEdges;" clip-path="url(#_1260104281388600clip-2)"/><line x1="49" y1="301.11" x2="636" y2="301.11" style="stroke-width: 0.5;stroke: rgb(0,0,0);stroke-opacity: 0.2509804;stroke-linejoin: bevel;stroke-dasharray: 2.0, 2.0;shape-rendering:crispEdges;" clip-path="url(#_1260104281388600clip-2)"/><line x1="49" y1="264.48" x2="636" y2="264.48" style="stroke-width: 0.5;stroke: rgb(0,0,0);stroke-opacity: 0.2509804;stroke-linejoin: bevel;stroke-dasharray: 2.0, 2.0;shape-rendering:crispEdges;" clip-path="url(#_1260104281388600clip-2)"/><line x1="49" y1="227.85" x2="636" y2="227.85" style="stroke-width: 0.5;stroke: rgb(0,0,0);stroke-opacity: 0.2509804;stroke-linejoin: bevel;stroke-dasharray: 2.0, 2.0;shape-rendering:crispEdges;" clip-path="url(#_1260104281388600clip-2)"/><line x1="49" y1="191.23" x2="636" y2="191.23" style="stroke-width: 0.5;stroke: rgb(0,0,0);stroke-opacity: 0.2509804;stroke-linejoin: bevel;stroke-dasharray: 2.0, 2.0;shape-rendering:crispEdges;" clip-path="url(#_1260104281388600clip-2)"/><line x1="49" y1="154.6" x2="636" y2="154.6" style="stroke-width: 0.5;stroke: rgb(0,0,0);stroke-opacity: 0.2509804;stroke-linejoin: bevel;stroke-dasharray: 2.0, 2.0;shape-rendering:crispEdges;" clip-path="url(#_1260104281388600clip-2)"/><line x1="49" y1="117.97" x2="636" y2="117.97" style="stroke-width: 0.5;stroke: rgb(0,0,0);stroke-opacity: 0.2509804;stroke-linejoin: bevel;stroke-dasharray: 2.0, 2.0;shape-rendering:crispEdges;" clip-path="url(#_1260104281388600clip-2)"/><line x1="49" y1="81.34" x2="636" y2="81.34" style="stroke-width: 0.5;stroke: rgb(0,0,0);stroke-opacity: 0.2509804;stroke-linejoin: bevel;stroke-dasharray: 2.0, 2.0;shape-rendering:crispEdges;" clip-path="url(#_1260104281388600clip-2)"/><line x1="49" y1="44.71" x2="636" y2="44.71" style="stroke-width: 0.5;stroke: rgb(0,0,0);stroke-opacity: 0.2509804;stroke-linejoin: bevel;stroke-dasharray: 2.0, 2.0;shape-rendering:crispEdges;" clip-path="url(#_1260104281388600clip-2)"/><g style="stroke-width: 1.0;stroke: rgb(255,85,85);stroke-opacity: 1.0;stroke-linecap: square;stroke-linejoin: bevel;shape-rendering:geometricPrecision;; fill: none" clip-path="url(#_1260104281388600clip-2)"><path d="M 49 381.52 L 50.12 402.35 L 51.24 407.02 L 52.36 410.78 L 53.48 382.46 L 54.6 377.13 L 55.72 373.85 L 56.84 391.26 L 57.96 409.34 L 59.08 405.74 L 60.2 405.61 L 61.32 383.06 L 62.44 394.96 L 63.56 401.97 L 64.68 390 L 65.81 398.22 L 66.93 394.5 L 68.05 361.21 L 69.17 386.1 L 70.29 396.63 L 71.41 401.88 L 72.53 354.81 L 73.65 385.19 L 74.77 399.53 L 75.89 396.31 L 77.01 386.85 L 78.13 381.68 L 79.25 384.21 L 80.37 388.51 L 81.49 369.8 L 82.61 370.72 L 83.73 392.75 L 84.85 370.41 L 85.97 396.83 L 87.09 371.15 L 88.21 379.27 L 89.33 385.53 L 90.45 389.67 L 91.57 385.5 L 92.69 397.31 L 93.81 410.28 L 94.93 411 L 96.05 411 L 97.17 411 L 98.29 411 L 99.42 411 L 100.54 411 L 101.66 411 L 102.78 411 L 103.9 411 L 105.02 187.08 L 106.14 373.16 L 107.26 398.7 L 108.38 340.01 L 109.5 382.26 L 110.62 386.5 L 111.74 389.74 L 112.86 383.73 L 113.98 389.72 L 115.1 394.36 L 116.22 397.89 L 117.34 401.59 L 118.46 362.53 L 119.58 370.98 L 120.7 379.02 L 121.82 384.36 L 122.94 391.31 L 124.06 389.16 L 125.18 383.76 L 126.3 390.15 L 127.42 389.37 L 128.54 372.22 L 129.66 377.63 L 130.78 386.49 L 131.9 386.39 L 133.03 386.31 L 134.15 388.19 L 135.27 390.17 L 136.39 392.4 L 137.51 394.52 L 138.63 396.41 L 139.75 397.88 L 140.87 378.7 L 141.99 379.98 L 143.11 380.9 L 144.23 382.24 L 145.35 398.71 L 146.47 399.45 L 147.59 400.43 L 148.71 370.87 L 149.83 400.56 L 150.95 372.77 L 152.07 399.48 L 153.19 367.51 L 154.31 369.72 L 155.43 373.33 L 156.55 376.97 L 157.67 380.62 L 158.79 383.97 L 159.91 386.38 L 161.03 387.9 L 162.15 380.64 L 163.27 383.09 L 164.39 380.28 L 165.51 340.97 L 166.64 384.43 L 167.76 387.59 L 168.88 385.96 L 170 387.24 L 171.12 382.54 L 172.24 387.78 L 173.36 387.95 L 174.48 388.45 L 175.6 388 L 176.72 381.92 L 177.84 382.66 L 178.96 384.34 L 180.08 386.43 L 181.2 388.86 L 182.32 391.24 L 183.44 393.25 L 184.56 395.08 L 185.68 396.74 L 186.8 398.2 L 187.92 399.48 L 189.04 400.58 L 190.16 401.54 L 191.28 402.37 L 192.4 403.09 L 193.52 366.47 L 194.64 404.07 L 195.76 404.49 L 196.88 366.26 L 198 404.08 L 199.13 369.38 L 200.25 368.79 L 201.37 370.75 L 202.49 335.74 L 203.61 377.57 L 204.73 381.26 L 205.85 376.74 L 206.97 378.28 L 208.09 386.43 L 209.21 392.43 L 210.33 384.44 L 211.45 386.61 L 212.57 384.49 L 213.69 373.61 L 214.81 385.88 L 215.93 373.04 L 217.05 373.14 L 218.17 386.16 L 219.29 387.01 L 220.41 389.48 L 221.53 385.4 L 222.65 384.82 L 223.77 387.45 L 224.89 375.06 L 226.01 385.9 L 227.13 387.65 L 228.25 389.83 L 229.37 392 L 230.49 394 L 231.61 395.78 L 232.74 397.35 L 233.86 398.71 L 234.98 399.89 L 236.1 400.91 L 237.22 401.8 L 238.34 366.21 L 239.46 402.85 L 240.58 366.48 L 241.7 366.78 L 242.82 372.37 L 243.94 372.65 L 245.06 375.61 L 246.18 379.08 L 247.3 382.21 L 248.42 385.43 L 249.54 388.23 L 250.66 377.57 L 251.78 369.67 L 252.9 371.63 L 254.02 375.09 L 255.14 390.39 L 256.26 388.06 L 257.38 380.59 L 258.5 388.52 L 259.62 382.39 L 260.74 390.46 L 261.86 382.76 L 262.98 378.44 L 264.1 390.96 L 265.22 392.06 L 266.35 382.7 L 267.47 392.3 L 268.59 384.98 L 269.71 385.96 L 270.83 382.63 L 271.95 387.9 L 273.07 388.73 L 274.19 390.48 L 275.31 392.44 L 276.43 394.31 L 277.55 396.02 L 278.67 397.52 L 279.79 398.84 L 280.91 399.99 L 282.03 400.98 L 283.15 401.85 L 284.27 365.02 L 285.39 403.17 L 286.51 365.66 L 287.63 373.34 L 288.75 369.48 L 289.87 376.9 L 290.99 374.81 L 292.11 377.57 L 293.23 380.02 L 294.35 382.43 L 295.47 385.02 L 296.59 380.49 L 297.71 382.38 L 298.83 385.1 L 299.96 370.11 L 301.08 372.66 L 302.2 388.39 L 303.32 377.66 L 304.44 383.94 L 305.56 386.97 L 306.68 384.11 L 307.8 386.75 L 308.92 387.02 L 310.04 385.73 L 311.16 385.36 L 312.28 384.84 L 313.4 378.62 L 314.52 379.18 L 315.64 388.38 L 316.76 389.74 L 317.88 391.58 L 319 379.49 L 320.12 393.75 L 321.24 394.59 L 322.36 395.73 L 323.48 397.05 L 324.6 398.33 L 325.72 399.49 L 326.84 400.52 L 327.96 401.43 L 329.08 402.22 L 330.2 402.92 L 331.32 403.53 L 332.44 404.08 L 333.57 404.56 L 334.69 404.99 L 335.81 366.39 L 336.93 368.73 L 338.05 365.88 L 339.17 368.09 L 340.29 370.64 L 341.41 374.32 L 342.53 336.43 L 343.65 380.24 L 344.77 383.17 L 345.89 375.95 L 347.01 376.94 L 348.13 377.77 L 349.25 378.65 L 350.37 385.64 L 351.49 385.59 L 352.61 386.09 L 353.73 389.66 L 354.85 389.78 L 355.97 390.6 L 357.09 381.85 L 358.21 380.47 L 359.33 390.34 L 360.45 390.4 L 361.57 381.96 L 362.69 391.18 L 363.81 391.95 L 364.93 393.36 L 366.06 394.95 L 367.18 396.47 L 368.3 397.86 L 369.42 399.09 L 370.54 400.17 L 371.66 401.11 L 372.78 401.82 L 373.9 402.5 L 375.02 403.14 L 376.14 370.13 L 377.26 369.79 L 378.38 371.7 L 379.5 401.95 L 380.62 374.93 L 381.74 369.68 L 382.86 371.56 L 383.98 374.72 L 385.1 378.34 L 386.22 381.94 L 387.34 384.79 L 388.46 379.03 L 389.58 381.86 L 390.7 377.7 L 391.82 384.93 L 392.94 384.69 L 394.06 384.72 L 395.18 385.12 L 396.3 386.01 L 397.42 378.35 L 398.54 387.37 L 399.67 388.98 L 400.79 388.31 L 401.91 389.32 L 403.03 390.36 L 404.15 374.75 L 405.27 390.79 L 406.39 383.54 L 407.51 385.6 L 408.63 387.78 L 409.75 389.85 L 410.87 386.44 L 411.99 391.91 L 413.11 392.82 L 414.23 394.28 L 415.35 395.82 L 416.47 397.27 L 417.59 398.58 L 418.71 399.72 L 419.83 400.73 L 420.95 401.61 L 422.07 402.38 L 423.19 403.06 L 424.31 403.66 L 425.43 404.18 L 426.55 364.17 L 427.67 372.2 L 428.79 374.71 L 429.91 370.74 L 431.03 373.74 L 432.15 335.05 L 433.28 379.51 L 434.4 380.32 L 435.52 382.48 L 436.64 385.16 L 437.76 372.75 L 438.88 375.79 L 440 378.93 L 441.12 386.35 L 442.24 381.94 L 443.36 383.35 L 444.48 380.39 L 445.6 381.7 L 446.72 384.99 L 447.84 387.13 L 448.96 387.5 L 450.08 384.82 L 451.2 389.21 L 452.32 389.72 L 453.44 391.01 L 454.56 392.73 L 455.68 394.46 L 456.8 396.08 L 457.92 397.52 L 459.04 398.79 L 460.16 399.91 L 461.28 400.89 L 462.4 377.29 L 463.52 373.96 L 464.64 371.37 L 465.76 373.81 L 466.89 337.63 L 468.01 340.36 L 469.13 382.05 L 470.25 379.06 L 471.37 386.04 L 472.49 378.19 L 473.61 380.06 L 474.73 377.11 L 475.85 378.68 L 476.97 382.33 L 478.09 386.77 L 479.21 387.02 L 480.33 383.27 L 481.45 386.72 L 482.57 387.65 L 483.69 385.62 L 484.81 385.96 L 485.93 388.01 L 487.05 387.58 L 488.17 383.5 L 489.29 387.56 L 490.41 384.69 L 491.53 386.54 L 492.65 381.12 L 493.77 389.81 L 494.89 391.57 L 496.01 393.4 L 497.13 394.94 L 498.25 377.99 L 499.38 397.63 L 500.5 398.81 L 501.62 399.88 L 502.74 400.84 L 503.86 401.69 L 504.98 372.76 L 506.1 374.07 L 507.22 372.86 L 508.34 377.22 L 509.46 372.04 L 510.58 340.11 L 511.7 341.85 L 512.82 347.03 L 513.94 380.4 L 515.06 382.64 L 516.18 379.76 L 517.3 381.58 L 518.42 376.8 L 519.54 378.44 L 520.66 381.05 L 521.78 356.13 L 522.9 384.7 L 524.02 386.54 L 525.14 385.55 L 526.26 386.64 L 527.38 381.81 L 528.5 388.05 L 529.62 385.4 L 530.74 384.02 L 531.86 386.52 L 532.99 387.94 L 534.11 389.89 L 535.23 391.89 L 536.35 393.78 L 537.47 395.48 L 538.59 396.98 L 539.71 398.31 L 540.83 399.47 L 541.95 400.49 L 543.07 401.38 L 544.19 402.16 L 545.31 402.85 L 546.43 403.45 L 547.55 403.99 L 548.67 404.47 L 549.79 367.48 L 550.91 369.32 L 552.03 369.46 L 553.15 364.94 L 554.27 368.01 L 555.39 372.08 L 556.51 375.78 L 557.63 376.65 L 558.75 377.88 L 559.87 380.57 L 560.99 383.69 L 562.11 375.19 L 563.23 378.04 L 564.35 381.4 L 565.47 384.51 L 566.6 383.65 L 567.72 388.42 L 568.84 388.7 L 569.96 389.79 L 571.08 389.15 L 572.2 389.29 L 573.32 380.28 L 574.44 381.29 L 575.56 391.01 L 576.68 388.25 L 577.8 388.88 L 578.92 392 L 580.04 393.28 L 581.16 394.85 L 582.28 396.39 L 583.4 397.8 L 584.52 399.05 L 585.64 400.15 L 586.76 401.1 L 587.88 401.94 L 589 377.42 L 590.12 377.21 L 591.24 377.78 L 592.36 370.85 L 593.48 372.33 L 594.6 381.21 L 595.72 363.94 L 596.84 379.53 L 597.96 380.49 L 599.08 396.78 L 600.21 373.18 L 601.33 382.02 L 602.45 379.34 L 603.57 383.27 L 604.69 385.47 L 605.81 378.99 L 606.93 378.63 L 608.05 380.34"/></g><g style="stroke-width: 1.0;stroke: rgb(255,85,85);stroke-opacity: 1.0;stroke-linecap: square;stroke-linejoin: bevel;shape-rendering:geometricPrecision;; fill: none" clip-path="url(#_1260104281388600clip-2)"><path d="M 49 259.98 L 49 410.36 M 50.12 401.18 L 50.12 406.08 M 51.24 407.02 L 51.24 410.67 M 52.36 303.55 L 52.36 410.91 M 53.48 352.5 L 53.48 389.92 M 54.6 369.58 L 54.6 384.32 M 55.72 373.85 L 55.72 388.71 M 56.84 327.75 L 56.84 408.12 M 57.96 341.46 L 57.96 409.34 M 59.08 349.86 L 59.08 407.58 M 60.2 358.62 L 60.2 405.61 M 61.32 383.06 L 61.32 393.46 M 62.44 375.45 L 62.44 402.16 M 63.56 389.42 L 63.56 401.97 M 64.68 334.35 L 64.68 402 M 65.81 391.65 L 65.81 398.22 M 66.93 355.01 L 66.93 398.91 M 68.05 361.21 L 68.05 399.14 M 69.17 386.1 L 69.17 396.18 M 70.29 372.03 L 70.29 401.21 M 71.41 355.04 L 71.41 406.82 M 72.53 354.81 L 72.53 382.36 M 73.65 369.75 L 73.65 395.6 M 74.77 361.29 L 74.77 399.53 M 75.89 373.87 L 75.89 396.31 M 77.01 378.03 L 77.01 388.77 M 78.13 360.33 L 78.13 387.73 M 79.25 384.21 L 79.25 387.97 M 80.37 378.51 L 80.37 392.37 M 81.49 369.32 L 81.49 385.69 M 82.61 370.72 L 82.61 392.62 M 83.73 370.68 L 83.73 394.55 M 84.85 370.41 L 84.85 396.16 M 85.97 369.46 L 85.97 396.83 M 87.09 371.15 L 87.09 378.35 M 88.21 379.27 L 88.21 385 M 89.33 380.4 L 89.33 388.4 M 90.45 382.07 L 90.45 390.48 M 91.57 385.5 L 91.57 396.16 M 92.69 397.31 L 92.69 409.68 M 93.81 410.28 L 93.81 411 M 94.93 411 L 94.93 411 M 103.9 49.1 L 103.9 411 M 105.02 187.08 L 105.02 411 M 106.14 373.16 L 106.14 404.95 M 107.26 338.27 L 107.26 402.78 M 108.38 340.01 L 108.38 379.78 M 109.5 375.11 L 109.5 386.36 M 110.62 384.83 L 110.62 389.16 M 111.74 380.02 L 111.74 389.74 M 112.86 383.73 L 112.86 389.1 M 113.98 359.68 L 113.98 393.57 M 115.1 394.36 L 115.1 397.47 M 116.22 397.89 L 116.22 401.2 M 117.34 362.04 L 117.34 401.59 M 118.46 362.53 L 118.46 369.89 M 119.58 370.98 L 119.58 384.11 M 120.7 360.01 L 120.7 393.52 M 121.82 384.32 L 121.82 391.45 M 122.94 383.83 L 122.94 391.31 M 124.06 383.43 L 124.06 390.33 M 125.18 362.05 L 125.18 390.24 M 126.3 365.95 L 126.3 390.15 M 127.42 370.6 L 127.42 389.37 M 128.54 372.22 L 128.54 388.28 M 129.66 377.63 L 129.66 386.84 M 130.78 383.47 L 130.78 386.52 M 131.9 382.94 L 131.9 387.17 M 133.03 383.46 L 133.03 388.01 M 134.15 388.19 L 134.15 389.92 M 135.27 390.17 L 135.27 392.16 M 136.39 392.4 L 136.39 394.3 M 137.51 394.52 L 137.51 396.21 M 138.63 380.63 L 138.63 397.73 M 139.75 378.69 L 139.75 398.64 M 140.87 378.7 L 140.87 399.02 M 141.99 379.98 L 141.99 399.02 M 143.11 374.42 L 143.11 398.97 M 144.23 382.24 L 144.23 398.7 M 145.35 398.71 L 145.35 399.35 M 146.47 399.45 L 146.47 400.32 M 147.59 370.83 L 147.59 400.65 M 148.71 370.87 L 148.71 400.75 M 149.83 372.41 L 149.83 400.56 M 150.95 372.77 L 150.95 400.06 M 152.07 367.45 L 152.07 399.48 M 153.19 367.51 L 153.19 369.38 M 154.31 369.72 L 154.31 372.91 M 155.43 373.33 L 155.43 378.64 M 156.55 376.97 L 156.55 380.22 M 157.67 378.62 L 157.67 383.64 M 158.79 378.49 L 158.79 384.96 M 159.91 379.06 L 159.91 387.74 M 161.03 379.76 L 161.03 388.25 M 162.15 380.64 L 162.15 382.79 M 163.27 379.51 L 163.27 383.09 M 164.39 340.82 L 164.39 387.55 M 165.51 340.97 L 165.51 387.42 M 166.64 384.4 L 166.64 387.56 M 167.76 346.92 L 167.76 387.94 M 168.88 380.68 L 168.88 386.87 M 170 380.52 L 170 387.96 M 171.12 380.18 L 171.12 388.32 M 172.24 379.43 L 172.24 388.18 M 173.36 379.07 L 173.36 388.36 M 174.48 378.87 L 174.48 388.92 M 175.6 378.95 L 175.6 389.42 M 176.72 378.71 L 176.72 382.55 M 177.84 379.03 L 177.84 383.74 M 178.96 384.34 L 178.96 386.17 M 180.08 386.43 L 180.08 388.59 M 181.2 388.86 L 181.2 390.98 M 182.32 377.56 L 182.32 393.04 M 183.44 393.25 L 183.44 394.88 M 184.56 395.08 L 184.56 396.56 M 185.68 396.74 L 185.68 398.05 M 186.8 398.2 L 186.8 399.34 M 187.92 399.48 L 187.92 400.47 M 189.04 400.58 L 189.04 401.44 M 190.16 401.54 L 190.16 402.28 M 191.28 402.37 L 191.28 403.01 M 192.4 403.09 L 192.4 403.65 M 193.52 366.42 L 193.52 404.03 M 194.64 404.07 L 194.64 404.45 M 195.76 365.25 L 195.76 404.54 M 196.88 366.26 L 196.88 404.32 M 198 369.18 L 198 404.08 M 199.13 368.68 L 199.13 371.28 M 200.25 368.79 L 200.25 373.73 M 201.37 370.75 L 201.37 373.59 M 202.49 335.74 L 202.49 377.16 M 203.61 377.57 L 203.61 380.86 M 204.73 376.72 L 204.73 384.32 M 205.85 376.74 L 205.85 378.02 M 206.97 374.48 L 206.97 380.72 M 208.09 374.36 L 208.09 392.54 M 209.21 374.38 L 209.21 392.43 M 210.33 338.05 L 210.33 386.49 M 211.45 386.61 L 211.45 388.11 M 212.57 384.46 L 212.57 385.09 M 213.69 340.21 L 213.69 389.63 M 214.81 373.14 L 214.81 390.31 M 215.93 373.04 L 215.93 390.66 M 217.05 373.14 L 217.05 386.46 M 218.17 373.85 L 218.17 390.22 M 219.29 373.98 L 219.29 389.76 M 220.41 374.06 L 220.41 389.91 M 221.53 374.04 L 221.53 390.4 M 222.65 374.46 L 222.65 387.39 M 223.77 374.59 L 223.77 387.63 M 224.89 375.06 L 224.89 388.1 M 226.01 385.9 L 226.01 387.42 M 227.13 387.65 L 227.13 389.58 M 228.25 389.83 L 228.25 391.77 M 229.37 392 L 229.37 393.79 M 230.49 394 L 230.49 395.6 M 231.61 395.78 L 231.61 397.18 M 232.74 397.35 L 232.74 398.56 M 233.86 398.71 L 233.86 399.76 M 234.98 399.89 L 234.98 400.8 M 236.1 400.91 L 236.1 401.71 M 237.22 401.8 L 237.22 402.49 M 238.34 366.16 L 238.34 402.82 M 239.46 366.47 L 239.46 403.18 M 240.58 366.48 L 240.58 403.45 M 241.7 366.78 L 241.7 372.13 M 242.82 371.84 L 242.82 373.25 M 243.94 372.65 L 243.94 375.23 M 245.06 375.61 L 245.06 400.18 M 246.18 379.08 L 246.18 381.85 M 247.3 382.21 L 247.3 385.08 M 248.42 376.63 L 248.42 387.14 M 249.54 376.92 L 249.54 388.92 M 250.66 369.64 L 250.66 379.43 M 251.78 369.67 L 251.78 371.31 M 252.9 371.63 L 252.9 374.68 M 254.02 375.09 L 254.02 390.59 M 255.14 332.68 L 255.14 390.39 M 256.26 380.46 L 256.26 388.45 M 257.38 335.05 L 257.38 389.15 M 258.5 379.79 L 258.5 389.56 M 259.62 336.64 L 259.62 390.32 M 260.74 378.43 L 260.74 390.46 M 261.86 378.38 L 261.86 391.02 M 262.98 378.44 L 262.98 390.87 M 264.1 383.43 L 264.1 391.9 M 265.22 377.56 L 265.22 392.06 M 266.35 377.71 L 266.35 392.36 M 267.47 382.62 L 267.47 392.55 M 268.59 384.98 L 268.59 385.78 M 269.71 382.47 L 269.71 386.79 M 270.83 382.63 L 270.83 384.11 M 271.95 387.9 L 271.95 388.57 M 273.07 388.73 L 273.07 390.27 M 274.19 390.48 L 274.19 392.22 M 275.31 392.44 L 275.31 394.11 M 276.43 394.31 L 276.43 395.84 M 277.55 396.02 L 277.55 397.37 M 278.67 397.52 L 278.67 398.7 M 279.79 398.84 L 279.79 399.87 M 280.91 399.99 L 280.91 400.88 M 282.03 400.98 L 282.03 401.76 M 283.15 401.85 L 283.15 402.53 M 284.27 365.02 L 284.27 403.11 M 285.39 364.3 L 285.39 403.17 M 286.51 365.66 L 286.51 373.07 M 287.63 368.91 L 287.63 402.37 M 288.75 369.48 L 288.75 376.61 M 289.87 373.94 L 289.87 377.53 M 290.99 374.81 L 290.99 377.22 M 292.11 329.99 L 292.11 398.92 M 293.23 331.06 L 293.23 382.17 M 294.35 333.94 L 294.35 384.44 M 295.47 380.3 L 295.47 386.16 M 296.59 380.49 L 296.59 382.11 M 297.71 382.38 L 297.71 384.79 M 298.83 369.82 L 298.83 386.37 M 299.96 370.11 L 299.96 372.3 M 301.08 336.42 L 301.08 388.29 M 302.2 375.61 L 302.2 388.55 M 303.32 377.66 L 303.32 388.3 M 304.44 337.59 L 304.44 387.9 M 305.56 341.36 L 305.56 387.74 M 306.68 384.11 L 306.68 386.81 M 307.8 381.11 L 307.8 386.88 M 308.92 380.34 L 308.92 387.91 M 310.04 385.34 L 310.04 389.42 M 311.16 379.24 L 311.16 385.47 M 312.28 378.64 L 312.28 385.93 M 313.4 378.62 L 313.4 387.2 M 314.52 379.18 L 314.52 388.29 M 315.64 388.38 L 315.64 389.55 M 316.76 389.74 L 316.76 391.37 M 317.88 379.45 L 317.88 392.63 M 319 379.49 L 319 393.68 M 320.12 380.79 L 320.12 394.49 M 321.24 394.59 L 321.24 395.59 M 322.36 395.73 L 322.36 396.91 M 323.48 397.05 L 323.48 398.19 M 324.6 398.33 L 324.6 399.37 M 325.72 399.49 L 325.72 400.41 M 326.84 400.52 L 326.84 401.33 M 327.96 401.43 L 327.96 402.14 M 329.08 402.22 L 329.08 402.85 M 330.2 402.92 L 330.2 403.47 M 331.32 403.53 L 331.32 404.02 M 332.44 404.08 L 332.44 404.51 M 333.57 404.56 L 333.57 404.94 M 334.69 366.36 L 334.69 405.25 M 335.81 366.39 L 335.81 368.34 M 336.93 364.84 L 336.93 370.02 M 338.05 365.88 L 338.05 368.52 M 339.17 368.09 L 339.17 370.28 M 340.29 333.27 L 340.29 373.5 M 341.41 333.91 L 341.41 376.26 M 342.53 336.43 L 342.53 379.91 M 343.65 373.93 L 343.65 382.89 M 344.77 374.17 L 344.77 383.17 M 345.89 375.95 L 345.89 385.26 M 347.01 376.41 L 347.01 377.51 M 348.13 343.97 L 348.13 393.28 M 349.25 344.76 L 349.25 385.65 M 350.37 380.3 L 350.37 391.47 M 351.49 345.69 L 351.49 390.83 M 352.61 380.96 L 352.61 389.76 M 353.73 381.06 L 353.73 389.74 M 354.85 379.94 L 354.85 390.21 M 355.97 379.92 L 355.97 390.85 M 357.09 380.32 L 357.09 384.52 M 358.21 380.47 L 358.21 390.49 M 359.33 381.28 L 359.33 390.4 M 360.45 381.96 L 360.45 390.78 M 361.57 381.96 L 361.57 391.15 M 362.69 382.59 L 362.69 391.82 M 363.81 391.95 L 363.81 393.19 M 364.93 393.36 L 364.93 394.77 M 366.06 394.95 L 366.06 396.31 M 367.18 396.47 L 367.18 397.71 M 368.3 397.86 L 368.3 398.96 M 369.42 399.09 L 369.42 400.05 M 370.54 400.17 L 370.54 401.01 M 371.66 374.29 L 371.66 401.74 M 372.78 401.82 L 372.78 402.43 M 373.9 402.5 L 373.9 403.07 M 375.02 403.14 L 375.02 403.66 M 376.14 370.08 L 376.14 371.15 M 377.26 369.79 L 377.26 371.37 M 378.38 368.21 L 378.38 402.13 M 379.5 374.54 L 379.5 401.95 M 380.62 374.93 L 380.62 375.74 M 381.74 369.68 L 381.74 371.25 M 382.86 337.15 L 382.86 374.34 M 383.98 374.72 L 383.98 377.93 M 385.1 378.34 L 385.1 381.55 M 386.22 376.98 L 386.22 384.56 M 387.34 377.4 L 387.34 384.79 M 388.46 376.53 L 388.46 381.23 M 389.58 376.5 L 389.58 381.86 M 390.7 339.17 L 390.7 391.36 M 391.82 383.92 L 391.82 384.97 M 392.94 379.63 L 392.94 389.39 M 394.06 379.64 L 394.06 388.87 M 395.18 385.12 L 395.18 386.33 M 396.3 386.01 L 396.3 387.33 M 397.42 378.35 L 397.42 387.85 M 398.54 387.37 L 398.54 388.83 M 399.67 387.59 L 399.67 388.98 M 400.79 388.31 L 400.79 389.58 M 401.91 374.77 L 401.91 389.64 M 403.03 374.66 L 403.03 390.51 M 404.15 374.75 L 404.15 390.81 M 405.27 382.68 L 405.27 390.79 M 406.39 383.54 L 406.39 385.35 M 407.51 374.86 L 407.51 387.56 M 408.63 387.78 L 408.63 389.61 M 409.75 374.56 L 409.75 390.99 M 410.87 386.32 L 410.87 391.88 M 411.99 391.91 L 411.99 392.68 M 413.11 392.82 L 413.11 394.11 M 414.23 394.28 L 414.23 395.66 M 415.35 395.82 L 415.35 397.12 M 416.47 397.27 L 416.47 398.44 M 417.59 398.58 L 417.59 399.6 M 418.71 399.72 L 418.71 400.63 M 419.83 400.73 L 419.83 401.52 M 420.95 401.61 L 420.95 402.3 M 422.07 402.38 L 422.07 402.99 M 423.19 403.06 L 423.19 403.59 M 424.31 403.66 L 424.31 404.13 M 425.43 363.18 L 425.43 404.24 M 426.55 364.17 L 426.55 372.07 M 427.67 372.2 L 427.67 374.35 M 428.79 369.73 L 428.79 376.18 M 429.91 370.74 L 429.91 373.35 M 431.03 332.21 L 431.03 376.46 M 432.15 335.05 L 432.15 379.16 M 433.28 379.51 L 433.28 381.17 M 434.4 380.32 L 434.4 382.19 M 435.52 371.73 L 435.52 384.87 M 436.64 371.69 L 436.64 385.46 M 437.76 372.75 L 437.76 375.41 M 438.88 375.79 L 438.88 391.59 M 440 341 L 440 391.12 M 441.12 341.38 L 441.12 386.44 M 442.24 342.71 L 442.24 386.68 M 443.36 380.23 L 443.36 388.57 M 444.48 380.39 L 444.48 387.47 M 445.6 381.7 L 445.6 387.22 M 446.72 382.65 L 446.72 387.08 M 447.84 382.72 L 447.84 387.43 M 448.96 384.79 L 448.96 388.25 M 450.08 384.14 L 450.08 389.14 M 451.2 385.3 L 451.2 389.63 M 452.32 389.72 L 452.32 390.83 M 453.44 391.01 L 453.44 392.53 M 454.56 392.73 L 454.56 394.28 M 455.68 394.46 L 455.68 395.91 M 456.8 396.08 L 456.8 397.37 M 457.92 397.52 L 457.92 398.66 M 459.04 398.79 L 459.04 399.79 M 460.16 399.91 L 460.16 400.78 M 461.28 376.54 L 461.28 400.89 M 462.4 373.23 L 462.4 377.8 M 463.52 371.08 L 463.52 375.35 M 464.64 371.37 L 464.64 373.47 M 465.76 373.81 L 465.76 376.85 M 466.89 337.63 L 466.89 379.53 M 468.01 340.36 L 468.01 381.79 M 469.13 377.9 L 469.13 394.09 M 470.25 347.82 L 470.25 385.83 M 471.37 377.96 L 471.37 386.97 M 472.49 378.19 L 472.49 388.32 M 473.61 377.11 L 473.61 388.49 M 474.73 377.11 L 474.73 378.41 M 475.85 378.68 L 475.85 382.33 M 476.97 382.33 L 476.97 387.42 M 478.09 347.91 L 478.09 387.01 M 479.21 382.34 L 479.21 387.02 M 480.33 348.16 L 480.33 386.8 M 481.45 384.84 L 481.45 387.26 M 482.57 381.92 L 482.57 388.12 M 483.69 381.67 L 483.69 388.27 M 484.81 381.26 L 484.81 388.05 M 485.93 380.67 L 485.93 388.01 M 487.05 380.67 L 487.05 387.78 M 488.17 380.89 L 488.17 387.53 M 489.29 381.48 L 489.29 387.56 M 490.41 384.69 L 490.41 386.31 M 491.53 381.07 L 491.53 387.75 M 492.65 381.12 L 492.65 389.63 M 493.77 389.81 L 493.77 391.37 M 494.89 391.57 L 494.89 393.2 M 496.01 379.69 L 496.01 394.77 M 497.13 394.94 L 497.13 396.27 M 498.25 377.99 L 498.25 397.5 M 499.38 397.63 L 499.38 398.68 M 500.5 398.81 L 500.5 399.77 M 501.62 399.88 L 501.62 400.74 M 502.74 400.84 L 502.74 401.6 M 503.86 372.09 L 503.86 401.78 M 504.98 372.76 L 504.98 401.94 M 506.1 372.64 L 506.1 401.89 M 507.22 371.01 L 507.22 400.74 M 508.34 371.27 L 508.34 377.33 M 509.46 339.64 L 509.46 374.45 M 510.58 340.11 L 510.58 378.53 M 511.7 341.85 L 511.7 346.29 M 512.82 347.03 L 512.82 380.13 M 513.94 353.15 L 513.94 382.44 M 515.06 378.95 L 515.06 383.08 M 516.18 354.68 L 516.18 384.39 M 517.3 376.77 L 517.3 383.2 M 518.42 376.8 L 518.42 378.17 M 519.54 378.44 L 519.54 384.85 M 520.66 355.91 L 520.66 384.63 M 521.78 356.13 L 521.78 384.6 M 522.9 382.35 L 522.9 386.73 M 524.02 382.06 L 524.02 386.61 M 525.14 381.64 L 525.14 386.62 M 526.26 381.66 L 526.26 387.3 M 527.38 381.81 L 527.38 388 M 528.5 382.26 L 528.5 388.22 M 529.62 383.29 L 529.62 385.65 M 530.74 384.02 L 530.74 386.43 M 531.86 386.52 L 531.86 387.74 M 532.99 387.94 L 532.99 389.66 M 534.11 389.89 L 534.11 391.67 M 535.23 391.89 L 535.23 393.58 M 536.35 393.78 L 536.35 395.3 M 537.47 395.48 L 537.47 396.83 M 538.59 396.98 L 538.59 398.17 M 539.71 398.31 L 539.71 399.35 M 540.83 399.47 L 540.83 400.38 M 541.95 400.49 L 541.95 401.28 M 543.07 401.38 L 543.07 402.08 M 544.19 402.16 L 544.19 402.77 M 545.31 402.85 L 545.31 403.39 M 546.43 403.45 L 546.43 403.93 M 547.55 403.99 L 547.55 404.42 M 548.67 367.53 L 548.67 404.8 M 549.79 367.48 L 549.79 368.97 M 550.91 367.65 L 550.91 369.32 M 552.03 364.31 L 552.03 371.78 M 553.15 364.94 L 553.15 367.6 M 554.27 368.01 L 554.27 371.61 M 555.39 372.08 L 555.39 375.94 M 556.51 375.78 L 556.51 378.73 M 557.63 376.65 L 557.63 380.19 M 558.75 377.88 L 558.75 380.24 M 559.87 380.57 L 559.87 383.34 M 560.99 374.14 L 560.99 383.69 M 562.11 375.19 L 562.11 377.68 M 563.23 378.04 L 563.23 381.02 M 564.35 381.4 L 564.35 390.64 M 565.47 379.18 L 565.47 389.7 M 566.6 383.65 L 566.6 388.25 M 567.72 388.29 L 567.72 388.59 M 568.84 388.7 L 568.84 389.68 M 569.96 380.99 L 569.96 390.6 M 571.08 380.14 L 571.08 391.2 M 572.2 379.87 L 572.2 391.33 M 573.32 380.28 L 573.32 391.24 M 574.44 381.29 L 574.44 391.02 M 575.56 388.26 L 575.56 391.39 M 576.68 382.62 L 576.68 391.64 M 577.8 388.88 L 577.8 391.91 M 578.92 392 L 578.92 393.12 M 580.04 393.28 L 580.04 394.67 M 581.16 394.85 L 581.16 396.22 M 582.28 396.39 L 582.28 397.65 M 583.4 397.8 L 583.4 398.92 M 584.52 399.05 L 584.52 400.03 M 585.64 400.15 L 585.64 401 M 586.76 401.1 L 586.76 401.85 M 587.88 377.45 L 587.88 402.44 M 589 377.22 L 589 402.84 M 590.12 377.21 L 590.12 402.94 M 591.24 370.12 L 591.24 402.51 M 592.36 370.85 L 592.36 402.22 M 593.48 362.88 L 593.48 374.85 M 594.6 363.34 L 594.6 381.52 M 595.72 363.94 L 595.72 398.86 M 596.84 366.65 L 596.84 397.89 M 597.96 369 L 597.96 380.9 M 599.08 371.84 L 599.08 396.78 M 600.21 373.18 L 600.21 376.09 M 601.33 377.15 L 601.33 382.26 M 602.45 379.34 L 602.45 383.09 M 603.57 383.27 L 603.57 385.19 M 604.69 385.47 L 604.69 387.77 M 605.81 378.56 L 605.81 389.33 M 606.93 378.63 L 606.93 380.08"/></g><rect x="49" y="31" width="587" height="380" style="stroke-width: 0.5;stroke: rgb(0,0,0);stroke-opacity: 0.0;stroke-linecap: round;stroke-linejoin: round;shape-rendering:crispEdges;; fill: none" clip-path="url(#_1260104281388600clip-0)"/></svg>
