<!DOCTYPE svg PUBLIC "-//W3C//DTD SVG 1.1//EN" "http://www.w3.org/Graphics/SVG/1.1/DTD/svg11.dtd">
<svg xmlns="http://www.w3.org/2000/svg" xmlns:xlink="http://www.w3.org/1999/xlink" xmlns:jfreesvg="http://www.jfree.org/jfreesvg/svg" width="640" height="480" text-rendering="auto" shape-rendering="auto">
<defs><clipPath id="_102179308978200clip-0"><path d="M 0 0 L 640 0 L 640 480 L 0 480 L 0 0 Z "/></clipPath>
<clipPath id="_102179308978200clip-1"><path d="M 239.5 202.5 L 239.5 842.5 L -240.5 842.5 L -240.5 202.5 L 239.5 202.5 Z "/></clipPath>
<clipPath id="_102179308978200clip-2"><path d="M 59 31 L 59 411 L 636 411 L 636 31 Z "/></clipPath>
</defs>
<rect x="0" y="0" width="640" height="480" style="fill: rgb(255,255,255); fill-opacity: 0.0" clip-path="url(#_102179308978200clip-0)"/><g ><text x="208.5" y="21.01" style="fill: rgb(0,0,0); fill-opacity: 1.0; font-family: Tahoma; font-size: 20px; font-weight: bold;" clip-path="url(#_102179308978200clip-0)">Dados do treinamento</text></g><rect x="251.5" y="458" width="137" height="21" style="fill: rgb(255,255,255); fill-opacity: 1.0" clip-path="url(#_102179308978200clip-0)"/><g style="stroke-width: 0.1;stroke: rgb(255,85,85);stroke-opacity: 1.0;stroke-linecap: square;shape-rendering:geometricPrecision;; fill: none" clip-path="url(#_102179308978200clip-0)"><path d="M 254.5 468.5 L 268.5 468.5"/></g><g ><text x="272.5" y="473.01" style="fill: rgb(64,64,64); fill-opacity: 1.0; font-family: Tahoma; font-size: 12px;" clip-path="url(#_102179308978200clip-0)">Acurácia</text></g><g style="stroke-width: 0.1;stroke: rgb(85,85,255);stroke-opacity: 1.0;stroke-linecap: square;shape-rendering:geometricPrecision;; fill: none" clip-path="url(#_102179308978200clip-0)"><path d="M 323.5 468.5 L 337.5 468.5"/></g><g ><text x="341.5" y="473.01" style="fill: rgb(64,64,64); fill-opacity: 1.0; font-family: Tahoma; font-size: 12px;" clip-path="url(#_102179308978200clip-0)">Precisão</text></g><rect x="59" y="31" width="577" height="380" style="fill: rgb(255,255,255); fill-opacity: 0.0" clip-path="url(#_102179308978200clip-0)"/><line x1="59" y1="415" x2="636" y2="415" style="stroke-width: 0.5;stroke: rgb(128,128,128);stroke-opacity: 1.0;stroke-linecap: square;shape-rendering:crispEdges;" clip-path="url(#_102179308978200clip-0)"/><g ><text x="50.5" y="431.52" style="fill: rgb(64,64,64); fill-opacity: 1.0; font-family: Tahoma; font-size: 12px;" clip-path="url(#_102179308978200clip-0)">0,0</text></g><line x1="59" y1="417" x2="59" y2="415" style="stroke-width: 0.5;stroke: rgb(128,128,128);stroke-opacity: 1.0;stroke-linecap: square;shape-rendering:crispEdges;" clip-path="url(#_102179308978200clip-0)"/><g ><text x="105.45" y="431.52" style="fill: rgb(64,64,64); fill-opacity: 1.0; font-family: Tahoma; font-size: 12px;" clip-path="url(#_102179308978200clip-0)">0,1</text></g><line x1="113.95" y1="417" x2="113.95" y2="415" style="stroke-width: 0.5;stroke: rgb(128,128,128);stroke-opacity: 1.0;stroke-linecap: square;shape-rendering:crispEdges;" clip-path="url(#_102179308978200clip-0)"/><g ><text x="160.4" y="431.52" style="fill: rgb(64,64,64); fill-opacity: 1.0; font-family: Tahoma; font-size: 12px;" clip-path="url(#_102179308978200clip-0)">0,2</text></g><line x1="168.9" y1="417" x2="168.9" y2="415" style="stroke-width: 0.5;stroke: rgb(128,128,128);stroke-opacity: 1.0;stroke-linecap: square;shape-rendering:crispEdges;" clip-path="url(#_102179308978200clip-0)"/><g ><text x="215.36" y="431.52" style="fill: rgb(64,64,64); fill-opacity: 1.0; font-family: Tahoma; font-size: 12px;" clip-path="url(#_102179308978200clip-0)">0,3</text></g><line x1="223.86" y1="417" x2="223.86" y2="415" style="stroke-width: 0.5;stroke: rgb(128,128,128);stroke-opacity: 1.0;stroke-linecap: square;shape-rendering:crispEdges;" clip-path="url(#_102179308978200clip-0)"/><g ><text x="270.31" y="431.52" style="fill: rgb(64,64,64); fill-opacity: 1.0; font-family: Tahoma; font-size: 12px;" clip-path="url(#_102179308978200clip-0)">0,4</text></g><line x1="278.81" y1="417" x2="278.81" y2="415" style="stroke-width: 0.5;stroke: rgb(128,128,128);stroke-opacity: 1.0;stroke-linecap: square;shape-rendering:crispEdges;" clip-path="url(#_102179308978200clip-0)"/><g ><text x="325.26" y="431.52" style="fill: rgb(64,64,64); fill-opacity: 1.0; font-family: Tahoma; font-size: 12px;" clip-path="url(#_102179308978200clip-0)">0,5</text></g><line x1="333.76" y1="417" x2="333.76" y2="415" style="stroke-width: 0.5;stroke: rgb(128,128,128);stroke-opacity: 1.0;stroke-linecap: square;shape-rendering:crispEdges;" clip-path="url(#_102179308978200clip-0)"/><g ><text x="380.21" y="431.52" style="fill: rgb(64,64,64); fill-opacity: 1.0; font-family: Tahoma; font-size: 12px;" clip-path="url(#_102179308978200clip-0)">0,6</text></g><line x1="388.71" y1="417" x2="388.71" y2="415" style="stroke-width: 0.5;stroke: rgb(128,128,128);stroke-opacity: 1.0;stroke-linecap: square;shape-rendering:crispEdges;" clip-path="url(#_102179308978200clip-0)"/><g ><text x="435.17" y="431.52" style="fill: rgb(64,64,64); fill-opacity: 1.0; font-family: Tahoma; font-size: 12px;" clip-path="url(#_102179308978200clip-0)">0,7</text></g><line x1="443.67" y1="417" x2="443.67" y2="415" style="stroke-width: 0.5;stroke: rgb(128,128,128);stroke-opacity: 1.0;stroke-linecap: square;shape-rendering:crispEdges;" clip-path="url(#_102179308978200clip-0)"/><g ><text x="490.12" y="431.52" style="fill: rgb(64,64,64); fill-opacity: 1.0; font-family: Tahoma; font-size: 12px;" clip-path="url(#_102179308978200clip-0)">0,8</text></g><line x1="498.62" y1="417" x2="498.62" y2="415" style="stroke-width: 0.5;stroke: rgb(128,128,128);stroke-opacity: 1.0;stroke-linecap: square;shape-rendering:crispEdges;" clip-path="url(#_102179308978200clip-0)"/><g ><text x="545.07" y="431.52" style="fill: rgb(64,64,64); fill-opacity: 1.0; font-family: Tahoma; font-size: 12px;" clip-path="url(#_102179308978200clip-0)">0,9</text></g><line x1="553.57" y1="417" x2="553.57" y2="415" style="stroke-width: 0.5;stroke: rgb(128,128,128);stroke-opacity: 1.0;stroke-linecap: square;shape-rendering:crispEdges;" clip-path="url(#_102179308978200clip-0)"/><g ><text x="600.02" y="431.52" style="fill: rgb(64,64,64); fill-opacity: 1.0; font-family: Tahoma; font-size: 12px;" clip-path="url(#_102179308978200clip-0)">1,0</text></g><line x1="608.52" y1="417" x2="608.52" y2="415" style="stroke-width: 0.5;stroke: rgb(128,128,128);stroke-opacity: 1.0;stroke-linecap: square;shape-rendering:crispEdges;" clip-path="url(#_102179308978200clip-0)"/><g ><text x="323" y="450.59" style="fill: rgb(64,64,64); fill-opacity: 1.0; font-family: Tahoma; font-size: 14px; font-weight: bold;" clip-path="url(#_102179308978200clip-0)">Épocas</text></g><line x1="55" y1="31" x2="55" y2="411" style="stroke-width: 0.5;stroke: rgb(128,128,128);stroke-opacity: 1.0;stroke-linecap: square;shape-rendering:crispEdges;" clip-path="url(#_102179308978200clip-0)"/><g ><text x="32" y="416.02" style="fill: rgb(64,64,64); fill-opacity: 1.0; font-family: Tahoma; font-size: 12px;" clip-path="url(#_102179308978200clip-0)">0,0</text></g><line x1="53" y1="411" x2="55" y2="411" style="stroke-width: 0.5;stroke: rgb(128,128,128);stroke-opacity: 1.0;stroke-linecap: square;shape-rendering:crispEdges;" clip-path="url(#_102179308978200clip-0)"/><g ><text x="32" y="379.83" style="fill: rgb(64,64,64); fill-opacity: 1.0; font-family: Tahoma; font-size: 12px;" clip-path="url(#_102179308978200clip-0)">0,1</text></g><line x1="53" y1="374.81" x2="55" y2="374.81" style="stroke-width: 0.5;stroke: rgb(128,128,128);stroke-opacity: 1.0;stroke-linecap: square;shape-rendering:crispEdges;" clip-path="url(#_102179308978200clip-0)"/><g ><text x="32" y="343.64" style="fill: rgb(64,64,64); fill-opacity: 1.0; font-family: Tahoma; font-size: 12px;" clip-path="url(#_102179308978200clip-0)">0,2</text></g><line x1="53" y1="338.62" x2="55" y2="338.62" style="stroke-width: 0.5;stroke: rgb(128,128,128);stroke-opacity: 1.0;stroke-linecap: square;shape-rendering:crispEdges;" clip-path="url(#_102179308978200clip-0)"/><g ><text x="32" y="307.45" style="fill: rgb(64,64,64); fill-opacity: 1.0; font-family: Tahoma; font-size: 12px;" clip-path="url(#_102179308978200clip-0)">0,3</text></g><line x1="53" y1="302.43" x2="55" y2="302.43" style="stroke-width: 0.5;stroke: rgb(128,128,128);stroke-opacity: 1.0;stroke-linecap: square;shape-rendering:crispEdges;" clip-path="url(#_102179308978200clip-0)"/><g ><text x="32" y="271.26" style="fill: rgb(64,64,64); fill-opacity: 1.0; font-family: Tahoma; font-size: 12px;" clip-path="url(#_102179308978200clip-0)">0,4</text></g><line x1="53" y1="266.24" x2="55" y2="266.24" style="stroke-width: 0.5;stroke: rgb(128,128,128);stroke-opacity: 1.0;stroke-linecap: square;shape-rendering:crispEdges;" clip-path="url(#_102179308978200clip-0)"/><g ><text x="32" y="235.07" style="fill: rgb(64,64,64); fill-opacity: 1.0; font-family: Tahoma; font-size: 12px;" clip-path="url(#_102179308978200clip-0)">0,5</text></g><line x1="53" y1="230.05" x2="55" y2="230.05" style="stroke-width: 0.5;stroke: rgb(128,128,128);stroke-opacity: 1.0;stroke-linecap: square;shape-rendering:crispEdges;" clip-path="url(#_102179308978200clip-0)"/><g ><text x="32" y="198.88" style="fill: rgb(64,64,64); fill-opacity: 1.0; font-family: Tahoma; font-size: 12px;" clip-path="url(#_102179308978200clip-0)">0,6</text></g><line x1="53" y1="193.86" x2="55" y2="193.86" style="stroke-width: 0.5;stroke: rgb(128,128,128);stroke-opacity: 1.0;stroke-linecap: square;shape-rendering:crispEdges;" clip-path="url(#_102179308978200clip-0)"/><g ><text x="32" y="162.69" style="fill: rgb(64,64,64); fill-opacity: 1.0; font-family: Tahoma; font-size: 12px;" clip-path="url(#_102179308978200clip-0)">0,7</text></g><line x1="53" y1="157.67" x2="55" y2="157.67" style="stroke-width: 0.5;stroke: rgb(128,128,128);stroke-opacity: 1.0;stroke-linecap: square;shape-rendering:crispEdges;" clip-path="url(#_102179308978200clip-0)"/><g ><text x="32" y="126.5" style="fill: rgb(64,64,64); fill-opacity: 1.0; font-family: Tahoma; font-size: 12px;" clip-path="url(#_102179308978200clip-0)">0,8</text></g><line x1="53" y1="121.48" x2="55" y2="121.48" style="stroke-width: 0.5;stroke: rgb(128,128,128);stroke-opacity: 1.0;stroke-linecap: square;shape-rendering:crispEdges;" clip-path="url(#_102179308978200clip-0)"/><g ><text x="32" y="90.31" style="fill: rgb(64,64,64); fill-opacity: 1.0; font-family: Tahoma; font-size: 12px;" clip-path="url(#_102179308978200clip-0)">0,9</text></g><line x1="53" y1="85.29" x2="55" y2="85.29" style="stroke-width: 0.5;stroke: rgb(128,128,128);stroke-opacity: 1.0;stroke-linecap: square;shape-rendering:crispEdges;" clip-path="url(#_102179308978200clip-0)"/><g ><text x="32" y="54.12" style="fill: rgb(64,64,64); fill-opacity: 1.0; font-family: Tahoma; font-size: 12px;" clip-path="url(#_102179308978200clip-0)">1,0</text></g><line x1="53" y1="49.1" x2="55" y2="49.1" style="stroke-width: 0.5;stroke: rgb(128,128,128);stroke-opacity: 1.0;stroke-linecap: square;shape-rendering:crispEdges;" clip-path="url(#_102179308978200clip-0)"/><g style="fill: rgb(64,64,64); fill-opacity: 1.0; stroke: none" transform="matrix(0,-1,1,0,-202.5,239.5)" clip-path="url(#_102179308978200clip-1)"><path d="M -19.11 219.64 Q -19.11 220.36 -19.34 221 Q -19.56 221.64 -19.98 222.06 Q -20.25 222.34 -20.56 222.56 Q -20.88 222.78 -21.25 222.94 Q -21.62 223.11 -22.06 223.19 Q -22.5 223.28 -23.05 223.28 L -24.39 223.28 L -24.39 226.61 L -26.95 226.61 L -26.95 216.44 L -23 216.44 Q -22.11 216.44 -21.47 216.59 Q -20.83 216.75 -20.31 217.09 Q -19.73 217.48 -19.42 218.12 Q -19.11 218.76 -19.11 219.64 Z  M -21.73 219.7 Q -21.73 219.28 -21.94 218.97 Q -22.14 218.66 -22.44 218.53 Q -22.8 218.37 -23.12 218.35 Q -23.45 218.33 -24.03 218.33 L -24.39 218.33 L -24.39 221.37 L -24.22 221.37 Q -23.84 221.37 -23.52 221.37 Q -23.2 221.36 -22.97 221.33 Q -22.77 221.3 -22.54 221.19 Q -22.31 221.09 -22.19 220.97 Q -21.92 220.72 -21.83 220.44 Q -21.73 220.17 -21.73 219.7 Z  M -10.52 222.78 Q -10.52 224.67 -11.55 225.76 Q -12.58 226.84 -14.47 226.84 Q -16.36 226.84 -17.4 225.76 Q -18.44 224.67 -18.44 222.78 Q -18.44 220.86 -17.4 219.77 Q -16.36 218.69 -14.47 218.69 Q -12.6 218.69 -11.56 219.78 Q -10.52 220.87 -10.52 222.78 Z  M -12.97 222.78 Q -12.97 222.11 -13.08 221.65 Q -13.19 221.19 -13.39 220.92 Q -13.6 220.64 -13.87 220.52 Q -14.14 220.41 -14.47 220.41 Q -14.8 220.41 -15.06 220.51 Q -15.31 220.61 -15.53 220.89 Q -15.74 221.16 -15.86 221.62 Q -15.99 222.08 -15.99 222.78 Q -15.99 223.48 -15.87 223.92 Q -15.75 224.36 -15.56 224.62 Q -15.38 224.89 -15.09 225.01 Q -14.8 225.12 -14.46 225.12 Q -14.17 225.12 -13.88 225.01 Q -13.58 224.89 -13.39 224.64 Q -13.19 224.34 -13.08 223.93 Q -12.97 223.51 -12.97 222.78 Z  M -4.08 221.19 L -4.28 221.19 Q -4.42 221.14 -4.68 221.12 Q -4.94 221.09 -5.25 221.09 Q -5.63 221.09 -6.04 221.2 Q -6.46 221.31 -6.85 221.47 L -6.85 226.61 L -9.24 226.61 L -9.24 218.94 L -6.85 218.94 L -6.85 220.03 Q -6.69 219.87 -6.4 219.65 Q -6.11 219.42 -5.86 219.28 Q -5.61 219.12 -5.26 219.01 Q -4.91 218.91 -4.61 218.91 Q -4.49 218.91 -4.35 218.91 Q -4.21 218.92 -4.08 218.94 L -4.08 221.19 Z  M 0.6 226.81 Q -0.35 226.81 -1.14 226.57 Q -1.93 226.33 -2.51 225.84 Q -3.09 225.34 -3.41 224.58 Q -3.73 223.83 -3.73 222.8 Q -3.73 221.7 -3.38 220.93 Q -3.04 220.16 -2.45 219.66 Q -1.87 219.17 -1.09 218.94 Q -0.31 218.72 0.52 218.72 Q 1.16 218.72 1.79 218.87 Q 2.43 219.01 3.08 219.33 L 3.08 221.39 L 2.77 221.39 Q 2.63 221.25 2.42 221.08 Q 2.21 220.92 1.96 220.78 Q 1.71 220.64 1.38 220.54 Q 1.05 220.44 0.65 220.44 Q -0.28 220.44 -0.78 221.08 Q -1.28 221.72 -1.28 222.8 Q -1.28 223.95 -0.74 224.52 Q -0.2 225.09 0.68 225.09 Q 1.13 225.09 1.47 224.99 Q 1.82 224.89 2.07 224.75 Q 2.3 224.59 2.47 224.44 Q 2.65 224.3 2.77 224.17 L 3.08 224.17 L 3.08 226.22 Q 2.87 226.31 2.6 226.43 Q 2.33 226.55 2.05 226.61 Q 1.71 226.72 1.4 226.76 Q 1.1 226.81 0.6 226.81 Z  M 8.14 226.81 Q 5.97 226.81 4.81 225.77 Q 3.65 224.73 3.65 222.81 Q 3.65 220.94 4.73 219.81 Q 5.81 218.69 7.75 218.69 Q 9.51 218.69 10.4 219.64 Q 11.29 220.59 11.29 222.36 L 11.29 223.22 L 6.04 223.22 Q 6.09 223.76 6.28 224.12 Q 6.47 224.47 6.78 224.69 Q 7.09 224.91 7.5 224.99 Q 7.9 225.08 8.39 225.08 Q 8.81 225.08 9.22 224.99 Q 9.62 224.91 9.95 224.75 Q 10.25 224.62 10.5 224.47 Q 10.75 224.31 10.9 224.2 L 11.15 224.2 L 11.15 226.17 Q 10.86 226.3 10.62 226.4 Q 10.37 226.5 9.95 226.59 Q 9.56 226.7 9.15 226.76 Q 8.73 226.81 8.14 226.81 Z  M 8.94 221.78 Q 8.92 221.03 8.58 220.63 Q 8.25 220.23 7.56 220.23 Q 6.87 220.23 6.48 220.65 Q 6.09 221.06 6.04 221.78 L 8.94 221.78 Z  M 19.72 226.61 L 17.31 226.61 L 17.31 222.8 Q 17.31 222.34 17.27 221.87 Q 17.23 221.41 17.14 221.19 Q 17.01 220.94 16.78 220.82 Q 16.54 220.7 16.15 220.7 Q 15.86 220.7 15.56 220.81 Q 15.26 220.92 14.92 221.17 L 14.92 226.61 L 12.53 226.61 L 12.53 218.94 L 14.92 218.94 L 14.92 219.78 Q 15.5 219.28 16.06 219 Q 16.62 218.72 17.29 218.72 Q 18.47 218.72 19.09 219.46 Q 19.72 220.2 19.72 221.61 L 19.72 226.61 Z  M 24.43 226.76 Q 22.96 226.76 22.3 226.16 Q 21.63 225.56 21.63 224.19 L 21.63 220.59 L 20.71 220.59 L 20.71 218.94 L 21.63 218.94 L 21.63 216.73 L 24.02 216.73 L 24.02 218.94 L 26.32 218.94 L 26.32 220.59 L 24.02 220.59 L 24.02 223.33 Q 24.02 223.72 24.03 224.02 Q 24.04 224.33 24.13 224.56 Q 24.24 224.8 24.48 224.94 Q 24.73 225.08 25.18 225.08 Q 25.38 225.08 25.69 225 Q 25.99 224.92 26.12 224.86 L 26.32 224.86 L 26.32 226.55 Q 25.93 226.64 25.49 226.7 Q 25.05 226.76 24.43 226.76 Z  M 31.53 224.61 L 31.53 223 Q 30.93 223.06 30.55 223.11 Q 30.17 223.16 29.81 223.28 Q 29.5 223.39 29.32 223.62 Q 29.15 223.84 29.15 224.2 Q 29.15 224.75 29.44 224.95 Q 29.73 225.16 30.29 225.16 Q 30.61 225.16 30.93 225.01 Q 31.26 224.86 31.53 224.61 Z  M 31.53 225.8 Q 31.29 226 31.1 226.16 Q 30.9 226.33 30.57 226.5 Q 30.25 226.66 29.94 226.73 Q 29.64 226.81 29.09 226.81 Q 28.07 226.81 27.4 226.13 Q 26.73 225.45 26.73 224.41 Q 26.73 223.55 27.07 223.02 Q 27.42 222.5 28.06 222.19 Q 28.7 221.87 29.61 221.75 Q 30.51 221.62 31.54 221.56 L 31.54 221.51 Q 31.54 220.89 31.07 220.65 Q 30.61 220.41 29.67 220.41 Q 29.25 220.41 28.68 220.55 Q 28.12 220.7 27.57 220.95 L 27.37 220.95 L 27.37 219.09 Q 27.73 219 28.52 218.86 Q 29.31 218.72 30.12 218.72 Q 32.11 218.72 33.01 219.37 Q 33.92 220.03 33.92 221.39 L 33.92 226.61 L 31.53 226.61 L 31.53 225.8 Z  M 40.27 224.19 L 40.27 220.7 Q 40.1 220.62 39.84 220.57 Q 39.58 220.51 39.31 220.51 Q 38.46 220.51 38.02 221.07 Q 37.58 221.62 37.58 222.62 Q 37.58 223.12 37.65 223.47 Q 37.72 223.81 37.89 224.09 Q 38.06 224.34 38.34 224.48 Q 38.61 224.61 39.05 224.61 Q 39.36 224.61 39.67 224.5 Q 39.99 224.39 40.27 224.19 Z  M 42.66 225.73 Q 42.66 226.8 42.35 227.54 Q 42.05 228.28 41.52 228.7 Q 40.99 229.12 40.24 229.31 Q 39.49 229.5 38.58 229.5 Q 37.81 229.5 37.13 229.4 Q 36.44 229.3 35.94 229.17 L 35.94 227.25 L 36.22 227.25 Q 36.39 227.33 36.63 227.41 Q 36.88 227.48 37.13 227.55 Q 37.42 227.62 37.71 227.67 Q 37.99 227.72 38.27 227.72 Q 38.88 227.72 39.28 227.59 Q 39.69 227.47 39.91 227.23 Q 40.11 227 40.19 226.67 Q 40.27 226.34 40.27 225.86 L 40.27 225.72 Q 39.86 226.06 39.34 226.28 Q 38.81 226.5 38.25 226.5 Q 36.75 226.5 35.95 225.53 Q 35.14 224.56 35.14 222.58 Q 35.14 221.67 35.39 220.95 Q 35.64 220.23 36.08 219.73 Q 36.5 219.25 37.1 218.98 Q 37.71 218.72 38.36 218.72 Q 38.94 218.72 39.41 218.87 Q 39.88 219.01 40.25 219.28 L 40.35 218.94 L 42.66 218.94 L 42.66 225.73 Z  M 48.42 226.81 Q 46.25 226.81 45.09 225.77 Q 43.94 224.73 43.94 222.81 Q 43.94 220.94 45.02 219.81 Q 46.09 218.69 48.03 218.69 Q 49.8 218.69 50.69 219.64 Q 51.58 220.59 51.58 222.36 L 51.58 223.22 L 46.33 223.22 Q 46.38 223.76 46.56 224.12 Q 46.75 224.47 47.06 224.69 Q 47.38 224.91 47.78 224.99 Q 48.19 225.08 48.67 225.08 Q 49.09 225.08 49.5 224.99 Q 49.91 224.91 50.24 224.75 Q 50.53 224.62 50.78 224.47 Q 51.03 224.31 51.19 224.2 L 51.44 224.2 L 51.44 226.17 Q 51.14 226.3 50.9 226.4 Q 50.66 226.5 50.24 226.59 Q 49.84 226.7 49.43 226.76 Q 49.02 226.81 48.42 226.81 Z  M 49.22 221.78 Q 49.2 221.03 48.87 220.63 Q 48.53 220.23 47.84 220.23 Q 47.16 220.23 46.77 220.65 Q 46.38 221.06 46.33 221.78 L 49.22 221.78 Z  M 61.99 226.61 L 61.99 222.78 Q 61.99 222.2 61.96 221.81 Q 61.94 221.42 61.84 221.19 Q 61.74 220.94 61.52 220.82 Q 61.3 220.7 60.92 220.7 Q 60.64 220.7 60.38 220.83 Q 60.11 220.95 59.8 221.17 L 59.8 226.61 L 57.39 226.61 L 57.39 222.78 Q 57.39 222.22 57.37 221.82 Q 57.34 221.42 57.24 221.19 Q 57.14 220.94 56.92 220.82 Q 56.7 220.7 56.33 220.7 Q 56.03 220.7 55.75 220.84 Q 55.47 220.98 55.2 221.17 L 55.2 226.61 L 52.81 226.61 L 52.81 218.94 L 55.2 218.94 L 55.2 219.78 Q 55.78 219.28 56.31 219 Q 56.83 218.72 57.47 218.72 Q 58.19 218.72 58.72 219.05 Q 59.25 219.39 59.53 220.05 Q 60.22 219.41 60.83 219.06 Q 61.44 218.72 62.06 218.72 Q 62.61 218.72 63.03 218.89 Q 63.45 219.06 63.75 219.41 Q 64.06 219.76 64.23 220.28 Q 64.39 220.8 64.39 221.61 L 64.39 226.61 L 61.99 226.61 Z "/></g><line x1="59" y1="31" x2="59" y2="411" style="stroke-width: 0.5;stroke: rgb(0,0,0);stroke-opacity: 0.2509804;stroke-linejoin: bevel;stroke-dasharray: 2.0, 2.0;shape-rendering:crispEdges;" clip-path="url(#_102179308978200clip-2)"/><line x1="113.95" y1="31" x2="113.95" y2="411" style="stroke-width: 0.5;stroke: rgb(0,0,0);stroke-opacity: 0.2509804;stroke-linejoin: bevel;stroke-dasharray: 2.0, 2.0;shape-rendering:crispEdges;" clip-path="url(#_102179308978200clip-2)"/><line x1="168.9" y1="31" x2="168.9" y2="411" style="stroke-width: 0.5;stroke: rgb(0,0,0);stroke-opacity: 0.2509804;stroke-linejoin: bevel;stroke-dasharray: 2.0, 2.0;shape-rendering:crispEdges;" clip-path="url(#_102179308978200clip-2)"/><line x1="223.86" y1="31" x2="223.86" y2="411" style="stroke-width: 0.5;stroke: rgb(0,0,0);stroke-opacity: 0.2509804;stroke-linejoin: bevel;stroke-dasharray: 2.0, 2.0;shape-rendering:crispEdges;" clip-path="url(#_102179308978200clip-2)"/><line x1="278.81" y1="31" x2="278.81" y2="411" style="stroke-width: 0.5;stroke: rgb(0,0,0);stroke-opacity: 0.2509804;stroke-linejoin: bevel;stroke-dasharray: 2.0, 2.0;shape-rendering:crispEdges;" clip-path="url(#_102179308978200clip-2)"/><line x1="333.76" y1="31" x2="333.76" y2="411" style="stroke-width: 0.5;stroke: rgb(0,0,0);stroke-opacity: 0.2509804;stroke-linejoin: bevel;stroke-dasharray: 2.0, 2.0;shape-rendering:crispEdges;" clip-path="url(#_102179308978200clip-2)"/><line x1="388.71" y1="31" x2="388.71" y2="411" style="stroke-width: 0.5;stroke: rgb(0,0,0);stroke-opacity: 0.2509804;stroke-linejoin: bevel;stroke-dasharray: 2.0, 2.0;shape-rendering:crispEdges;" clip-path="url(#_102179308978200clip-2)"/><line x1="443.67" y1="31" x2="443.67" y2="411" style="stroke-width: 0.5;stroke: rgb(0,0,0);stroke-opacity: 0.2509804;stroke-linejoin: bevel;stroke-dasharray: 2.0, 2.0;shape-rendering:crispEdges;" clip-path="url(#_102179308978200clip-2)"/><line x1="498.62" y1="31" x2="498.62" y2="411" style="stroke-width: 0.5;stroke: rgb(0,0,0);stroke-opacity: 0.2509804;stroke-linejoin: bevel;stroke-dasharray: 2.0, 2.0;shape-rendering:crispEdges;" clip-path="url(#_102179308978200clip-2)"/><line x1="553.57" y1="31" x2="553.57" y2="411" style="stroke-width: 0.5;stroke: rgb(0,0,0);stroke-opacity: 0.2509804;stroke-linejoin: bevel;stroke-dasharray: 2.0, 2.0;shape-rendering:crispEdges;" clip-path="url(#_102179308978200clip-2)"/><line x1="608.52" y1="31" x2="608.52" y2="411" style="stroke-width: 0.5;stroke: rgb(0,0,0);stroke-opacity: 0.2509804;stroke-linejoin: bevel;stroke-dasharray: 2.0, 2.0;shape-rendering:crispEdges;" clip-path="url(#_102179308978200clip-2)"/><line x1="59" y1="411" x2="636" y2="411" style="stroke-width: 0.5;stroke: rgb(0,0,0);stroke-opacity: 0.2509804;stroke-linejoin: bevel;stroke-dasharray: 2.0, 2.0;shape-rendering:crispEdges;" clip-path="url(#_102179308978200clip-2)"/><line x1="59" y1="374.81" x2="636" y2="374.81" style="stroke-width: 0.5;stroke: rgb(0,0,0);stroke-opacity: 0.2509804;stroke-linejoin: bevel;stroke-dasharray: 2.0, 2.0;shape-rendering:crispEdges;" clip-path="url(#_102179308978200clip-2)"/><line x1="59" y1="338.62" x2="636" y2="338.62" style="stroke-width: 0.5;stroke: rgb(0,0,0);stroke-opacity: 0.2509804;stroke-linejoin: bevel;stroke-dasharray: 2.0, 2.0;shape-rendering:crispEdges;" clip-path="url(#_102179308978200clip-2)"/><line x1="59" y1="302.43" x2="636" y2="302.43" style="stroke-width: 0.5;stroke: rgb(0,0,0);stroke-opacity: 0.2509804;stroke-linejoin: bevel;stroke-dasharray: 2.0, 2.0;shape-rendering:crispEdges;" clip-path="url(#_102179308978200clip-2)"/><line x1="59" y1="266.24" x2="636" y2="266.24" style="stroke-width: 0.5;stroke: rgb(0,0,0);stroke-opacity: 0.2509804;stroke-linejoin: bevel;stroke-dasharray: 2.0, 2.0;shape-rendering:crispEdges;" clip-path="url(#_102179308978200clip-2)"/><line x1="59" y1="230.05" x2="636" y2="230.05" style="stroke-width: 0.5;stroke: rgb(0,0,0);stroke-opacity: 0.2509804;stroke-linejoin: bevel;stroke-dasharray: 2.0, 2.0;shape-rendering:crispEdges;" clip-path="url(#_102179308978200clip-2)"/><line x1="59" y1="193.86" x2="636" y2="193.86" style="stroke-width: 0.5;stroke: rgb(0,0,0);stroke-opacity: 0.2509804;stroke-linejoin: bevel;stroke-dasharray: 2.0, 2.0;shape-rendering:crispEdges;" clip-path="url(#_102179308978200clip-2)"/><line x1="59" y1="157.67" x2="636" y2="157.67" style="stroke-width: 0.5;stroke: rgb(0,0,0);stroke-opacity: 0.2509804;stroke-linejoin: bevel;stroke-dasharray: 2.0, 2.0;shape-rendering:crispEdges;" clip-path="url(#_102179308978200clip-2)"/><line x1="59" y1="121.48" x2="636" y2="121.48" style="stroke-width: 0.5;stroke: rgb(0,0,0);stroke-opacity: 0.2509804;stroke-linejoin: bevel;stroke-dasharray: 2.0, 2.0;shape-rendering:crispEdges;" clip-path="url(#_102179308978200clip-2)"/><line x1="59" y1="85.29" x2="636" y2="85.29" style="stroke-width: 0.5;stroke: rgb(0,0,0);stroke-opacity: 0.2509804;stroke-linejoin: bevel;stroke-dasharray: 2.0, 2.0;shape-rendering:crispEdges;" clip-path="url(#_102179308978200clip-2)"/><line x1="59" y1="49.1" x2="636" y2="49.1" style="stroke-width: 0.5;stroke: rgb(0,0,0);stroke-opacity: 0.2509804;stroke-linejoin: bevel;stroke-dasharray: 2.0, 2.0;shape-rendering:crispEdges;" clip-path="url(#_102179308978200clip-2)"/><rect x="59" y="31" width="577" height="380" style="stroke-width: 0.5;stroke: rgb(0,0,0);stroke-opacity: 0.0;stroke-linecap: round;stroke-linejoin: round;shape-rendering:crispEdges;; fill: none" clip-path="url(#_102179308978200clip-0)"/></svg>
