<!DOCTYPE svg PUBLIC "-//W3C//DTD SVG 1.1//EN" "http://www.w3.org/Graphics/SVG/1.1/DTD/svg11.dtd">
<svg xmlns="http://www.w3.org/2000/svg" xmlns:xlink="http://www.w3.org/1999/xlink" xmlns:jfreesvg="http://www.jfree.org/jfreesvg/svg" width="640" height="480" text-rendering="auto" shape-rendering="auto">
<defs><clipPath id="_427167612482500clip-0"><path d="M 0 0 L 640 0 L 640 480 L 0 480 L 0 0 Z "/></clipPath>
<clipPath id="_427167612482500clip-1"><path d="M 233.5 208.5 L 233.5 848.5 L -246.5 848.5 L -246.5 208.5 L 233.5 208.5 Z "/></clipPath>
<clipPath id="_427167612482500clip-2"><path d="M 59 31 L 59 411 L 636 411 L 636 31 Z "/></clipPath>
</defs>
<rect x="0" y="0" width="640" height="480" style="fill: rgb(255,255,255); fill-opacity: 0.0" clip-path="url(#_427167612482500clip-0)"/><g ><text x="208.5" y="21.01" style="fill: rgb(0,0,0); fill-opacity: 1.0; font-family: Tahoma; font-size: 20px; font-weight: bold;" clip-path="url(#_427167612482500clip-0)">Dados do treinamento</text></g><rect x="251.5" y="458" width="137" height="21" style="fill: rgb(255,255,255); fill-opacity: 1.0" clip-path="url(#_427167612482500clip-0)"/><g style="stroke-width: 0.1;stroke: rgb(255,85,85);stroke-opacity: 1.0;stroke-linecap: square;shape-rendering:geometricPrecision;; fill: none" clip-path="url(#_427167612482500clip-0)"><path d="M 254.5 468.5 L 268.5 468.5"/></g><g ><text x="272.5" y="473.01" style="fill: rgb(64,64,64); fill-opacity: 1.0; font-family: Tahoma; font-size: 12px;" clip-path="url(#_427167612482500clip-0)">Acurácia</text></g><g style="stroke-width: 0.1;stroke: rgb(85,85,255);stroke-opacity: 1.0;stroke-linecap: square;shape-rendering:geometricPrecision;; fill: none" clip-path="url(#_427167612482500clip-0)"><path d="M 323.5 468.5 L 337.5 468.5"/></g><g ><text x="341.5" y="473.01" style="fill: rgb(64,64,64); fill-opacity: 1.0; font-family: Tahoma; font-size: 12px;" clip-path="url(#_427167612482500clip-0)">Precisão</text></g><rect x="59" y="31" width="577" height="380" style="fill: rgb(255,255,255); fill-opacity: 0.0" clip-path="url(#_427167612482500clip-0)"/><line x1="59" y1="415" x2="636" y2="415" style="stroke-width: 0.5;stroke: rgb(128,128,128);stroke-opacity: 1.0;stroke-linecap: square;shape-rendering:crispEdges;" clip-path="url(#_427167612482500clip-0)"/><g ><text x="55.5" y="431.52" style="fill: rgb(64,64,64); fill-opacity: 1.0; font-family: Tahoma; font-size: 12px;" clip-path="url(#_427167612482500clip-0)">0</text></g><line x1="59" y1="417" x2="59" y2="415" style="stroke-width: 0.5;stroke: rgb(128,128,128);stroke-opacity: 1.0;stroke-linecap: square;shape-rendering:crispEdges;" clip-path="url(#_427167612482500clip-0)"/><g ><text x="95.95" y="431.52" style="fill: rgb(64,64,64); fill-opacity: 1.0; font-family: Tahoma; font-size: 12px;" clip-path="url(#_427167612482500clip-0)">10.000</text></g><line x1="113.95" y1="417" x2="113.95" y2="415" style="stroke-width: 0.5;stroke: rgb(128,128,128);stroke-opacity: 1.0;stroke-linecap: square;shape-rendering:crispEdges;" clip-path="url(#_427167612482500clip-0)"/><g ><text x="150.91" y="431.52" style="fill: rgb(64,64,64); fill-opacity: 1.0; font-family: Tahoma; font-size: 12px;" clip-path="url(#_427167612482500clip-0)">20.000</text></g><line x1="168.91" y1="417" x2="168.91" y2="415" style="stroke-width: 0.5;stroke: rgb(128,128,128);stroke-opacity: 1.0;stroke-linecap: square;shape-rendering:crispEdges;" clip-path="url(#_427167612482500clip-0)"/><g ><text x="205.86" y="431.52" style="fill: rgb(64,64,64); fill-opacity: 1.0; font-family: Tahoma; font-size: 12px;" clip-path="url(#_427167612482500clip-0)">30.000</text></g><line x1="223.86" y1="417" x2="223.86" y2="415" style="stroke-width: 0.5;stroke: rgb(128,128,128);stroke-opacity: 1.0;stroke-linecap: square;shape-rendering:crispEdges;" clip-path="url(#_427167612482500clip-0)"/><g ><text x="260.81" y="431.52" style="fill: rgb(64,64,64); fill-opacity: 1.0; font-family: Tahoma; font-size: 12px;" clip-path="url(#_427167612482500clip-0)">40.000</text></g><line x1="278.81" y1="417" x2="278.81" y2="415" style="stroke-width: 0.5;stroke: rgb(128,128,128);stroke-opacity: 1.0;stroke-linecap: square;shape-rendering:crispEdges;" clip-path="url(#_427167612482500clip-0)"/><g ><text x="315.76" y="431.52" style="fill: rgb(64,64,64); fill-opacity: 1.0; font-family: Tahoma; font-size: 12px;" clip-path="url(#_427167612482500clip-0)">50.000</text></g><line x1="333.76" y1="417" x2="333.76" y2="415" style="stroke-width: 0.5;stroke: rgb(128,128,128);stroke-opacity: 1.0;stroke-linecap: square;shape-rendering:crispEdges;" clip-path="url(#_427167612482500clip-0)"/><g ><text x="370.72" y="431.52" style="fill: rgb(64,64,64); fill-opacity: 1.0; font-family: Tahoma; font-size: 12px;" clip-path="url(#_427167612482500clip-0)">60.000</text></g><line x1="388.72" y1="417" x2="388.72" y2="415" style="stroke-width: 0.5;stroke: rgb(128,128,128);stroke-opacity: 1.0;stroke-linecap: square;shape-rendering:crispEdges;" clip-path="url(#_427167612482500clip-0)"/><g ><text x="425.67" y="431.52" style="fill: rgb(64,64,64); fill-opacity: 1.0; font-family: Tahoma; font-size: 12px;" clip-path="url(#_427167612482500clip-0)">70.000</text></g><line x1="443.67" y1="417" x2="443.67" y2="415" style="stroke-width: 0.5;stroke: rgb(128,128,128);stroke-opacity: 1.0;stroke-linecap: square;shape-rendering:crispEdges;" clip-path="url(#_427167612482500clip-0)"/><g ><text x="480.62" y="431.52" style="fill: rgb(64,64,64); fill-opacity: 1.0; font-family: Tahoma; font-size: 12px;" clip-path="url(#_427167612482500clip-0)">80.000</text></g><line x1="498.62" y1="417" x2="498.62" y2="415" style="stroke-width: 0.5;stroke: rgb(128,128,128);stroke-opacity: 1.0;stroke-linecap: square;shape-rendering:crispEdges;" clip-path="url(#_427167612482500clip-0)"/><g ><text x="535.58" y="431.52" style="fill: rgb(64,64,64); fill-opacity: 1.0; font-family: Tahoma; font-size: 12px;" clip-path="url(#_427167612482500clip-0)">90.000</text></g><line x1="553.58" y1="417" x2="553.58" y2="415" style="stroke-width: 0.5;stroke: rgb(128,128,128);stroke-opacity: 1.0;stroke-linecap: square;shape-rendering:crispEdges;" clip-path="url(#_427167612482500clip-0)"/><g ><text x="587.03" y="431.52" style="fill: rgb(64,64,64); fill-opacity: 1.0; font-family: Tahoma; font-size: 12px;" clip-path="url(#_427167612482500clip-0)">100.000</text></g><line x1="608.53" y1="417" x2="608.53" y2="415" style="stroke-width: 0.5;stroke: rgb(128,128,128);stroke-opacity: 1.0;stroke-linecap: square;shape-rendering:crispEdges;" clip-path="url(#_427167612482500clip-0)"/><g ><text x="323" y="450.59" style="fill: rgb(64,64,64); fill-opacity: 1.0; font-family: Tahoma; font-size: 14px; font-weight: bold;" clip-path="url(#_427167612482500clip-0)">Épocas</text></g><line x1="55" y1="31" x2="55" y2="411" style="stroke-width: 0.5;stroke: rgb(128,128,128);stroke-opacity: 1.0;stroke-linecap: square;shape-rendering:crispEdges;" clip-path="url(#_427167612482500clip-0)"/><g ><text x="26" y="416.02" style="fill: rgb(64,64,64); fill-opacity: 1.0; font-family: Tahoma; font-size: 12px;" clip-path="url(#_427167612482500clip-0)">0,00</text></g><line x1="53" y1="411" x2="55" y2="411" style="stroke-width: 0.5;stroke: rgb(128,128,128);stroke-opacity: 1.0;stroke-linecap: square;shape-rendering:crispEdges;" clip-path="url(#_427167612482500clip-0)"/><g ><text x="26" y="388.83" style="fill: rgb(64,64,64); fill-opacity: 1.0; font-family: Tahoma; font-size: 12px;" clip-path="url(#_427167612482500clip-0)">0,05</text></g><line x1="53" y1="383.81" x2="55" y2="383.81" style="stroke-width: 0.5;stroke: rgb(128,128,128);stroke-opacity: 1.0;stroke-linecap: square;shape-rendering:crispEdges;" clip-path="url(#_427167612482500clip-0)"/><g ><text x="26" y="361.64" style="fill: rgb(64,64,64); fill-opacity: 1.0; font-family: Tahoma; font-size: 12px;" clip-path="url(#_427167612482500clip-0)">0,10</text></g><line x1="53" y1="356.62" x2="55" y2="356.62" style="stroke-width: 0.5;stroke: rgb(128,128,128);stroke-opacity: 1.0;stroke-linecap: square;shape-rendering:crispEdges;" clip-path="url(#_427167612482500clip-0)"/><g ><text x="26" y="334.44" style="fill: rgb(64,64,64); fill-opacity: 1.0; font-family: Tahoma; font-size: 12px;" clip-path="url(#_427167612482500clip-0)">0,15</text></g><line x1="53" y1="329.42" x2="55" y2="329.42" style="stroke-width: 0.5;stroke: rgb(128,128,128);stroke-opacity: 1.0;stroke-linecap: square;shape-rendering:crispEdges;" clip-path="url(#_427167612482500clip-0)"/><g ><text x="26" y="307.25" style="fill: rgb(64,64,64); fill-opacity: 1.0; font-family: Tahoma; font-size: 12px;" clip-path="url(#_427167612482500clip-0)">0,20</text></g><line x1="53" y1="302.23" x2="55" y2="302.23" style="stroke-width: 0.5;stroke: rgb(128,128,128);stroke-opacity: 1.0;stroke-linecap: square;shape-rendering:crispEdges;" clip-path="url(#_427167612482500clip-0)"/><g ><text x="26" y="280.06" style="fill: rgb(64,64,64); fill-opacity: 1.0; font-family: Tahoma; font-size: 12px;" clip-path="url(#_427167612482500clip-0)">0,25</text></g><line x1="53" y1="275.04" x2="55" y2="275.04" style="stroke-width: 0.5;stroke: rgb(128,128,128);stroke-opacity: 1.0;stroke-linecap: square;shape-rendering:crispEdges;" clip-path="url(#_427167612482500clip-0)"/><g ><text x="26" y="252.87" style="fill: rgb(64,64,64); fill-opacity: 1.0; font-family: Tahoma; font-size: 12px;" clip-path="url(#_427167612482500clip-0)">0,30</text></g><line x1="53" y1="247.85" x2="55" y2="247.85" style="stroke-width: 0.5;stroke: rgb(128,128,128);stroke-opacity: 1.0;stroke-linecap: square;shape-rendering:crispEdges;" clip-path="url(#_427167612482500clip-0)"/><g ><text x="26" y="225.67" style="fill: rgb(64,64,64); fill-opacity: 1.0; font-family: Tahoma; font-size: 12px;" clip-path="url(#_427167612482500clip-0)">0,35</text></g><line x1="53" y1="220.65" x2="55" y2="220.65" style="stroke-width: 0.5;stroke: rgb(128,128,128);stroke-opacity: 1.0;stroke-linecap: square;shape-rendering:crispEdges;" clip-path="url(#_427167612482500clip-0)"/><g ><text x="26" y="198.48" style="fill: rgb(64,64,64); fill-opacity: 1.0; font-family: Tahoma; font-size: 12px;" clip-path="url(#_427167612482500clip-0)">0,40</text></g><line x1="53" y1="193.46" x2="55" y2="193.46" style="stroke-width: 0.5;stroke: rgb(128,128,128);stroke-opacity: 1.0;stroke-linecap: square;shape-rendering:crispEdges;" clip-path="url(#_427167612482500clip-0)"/><g ><text x="26" y="171.29" style="fill: rgb(64,64,64); fill-opacity: 1.0; font-family: Tahoma; font-size: 12px;" clip-path="url(#_427167612482500clip-0)">0,45</text></g><line x1="53" y1="166.27" x2="55" y2="166.27" style="stroke-width: 0.5;stroke: rgb(128,128,128);stroke-opacity: 1.0;stroke-linecap: square;shape-rendering:crispEdges;" clip-path="url(#_427167612482500clip-0)"/><g ><text x="26" y="144.1" style="fill: rgb(64,64,64); fill-opacity: 1.0; font-family: Tahoma; font-size: 12px;" clip-path="url(#_427167612482500clip-0)">0,50</text></g><line x1="53" y1="139.08" x2="55" y2="139.08" style="stroke-width: 0.5;stroke: rgb(128,128,128);stroke-opacity: 1.0;stroke-linecap: square;shape-rendering:crispEdges;" clip-path="url(#_427167612482500clip-0)"/><g ><text x="26" y="116.9" style="fill: rgb(64,64,64); fill-opacity: 1.0; font-family: Tahoma; font-size: 12px;" clip-path="url(#_427167612482500clip-0)">0,55</text></g><line x1="53" y1="111.88" x2="55" y2="111.88" style="stroke-width: 0.5;stroke: rgb(128,128,128);stroke-opacity: 1.0;stroke-linecap: square;shape-rendering:crispEdges;" clip-path="url(#_427167612482500clip-0)"/><g ><text x="26" y="89.71" style="fill: rgb(64,64,64); fill-opacity: 1.0; font-family: Tahoma; font-size: 12px;" clip-path="url(#_427167612482500clip-0)">0,60</text></g><line x1="53" y1="84.69" x2="55" y2="84.69" style="stroke-width: 0.5;stroke: rgb(128,128,128);stroke-opacity: 1.0;stroke-linecap: square;shape-rendering:crispEdges;" clip-path="url(#_427167612482500clip-0)"/><g ><text x="26" y="62.52" style="fill: rgb(64,64,64); fill-opacity: 1.0; font-family: Tahoma; font-size: 12px;" clip-path="url(#_427167612482500clip-0)">0,65</text></g><line x1="53" y1="57.5" x2="55" y2="57.5" style="stroke-width: 0.5;stroke: rgb(128,128,128);stroke-opacity: 1.0;stroke-linecap: square;shape-rendering:crispEdges;" clip-path="url(#_427167612482500clip-0)"/><g style="fill: rgb(64,64,64); fill-opacity: 1.0; stroke: none" transform="matrix(0,-1,1,0,-208.5,233.5)" clip-path="url(#_427167612482500clip-1)"><path d="M -25.11 219.64 Q -25.11 220.36 -25.34 221 Q -25.56 221.64 -25.98 222.06 Q -26.25 222.34 -26.56 222.56 Q -26.88 222.78 -27.25 222.94 Q -27.62 223.11 -28.06 223.19 Q -28.5 223.28 -29.05 223.28 L -30.39 223.28 L -30.39 226.61 L -32.95 226.61 L -32.95 216.44 L -29 216.44 Q -28.11 216.44 -27.47 216.59 Q -26.83 216.75 -26.31 217.09 Q -25.73 217.48 -25.42 218.12 Q -25.11 218.76 -25.11 219.64 Z  M -27.73 219.7 Q -27.73 219.28 -27.94 218.97 Q -28.14 218.66 -28.44 218.53 Q -28.8 218.37 -29.12 218.35 Q -29.45 218.33 -30.03 218.33 L -30.39 218.33 L -30.39 221.37 L -30.22 221.37 Q -29.84 221.37 -29.52 221.37 Q -29.2 221.36 -28.97 221.33 Q -28.77 221.3 -28.54 221.19 Q -28.31 221.09 -28.19 220.97 Q -27.92 220.72 -27.83 220.44 Q -27.73 220.17 -27.73 219.7 Z  M -16.52 222.78 Q -16.52 224.67 -17.55 225.76 Q -18.58 226.84 -20.47 226.84 Q -22.36 226.84 -23.4 225.76 Q -24.44 224.67 -24.44 222.78 Q -24.44 220.86 -23.4 219.77 Q -22.36 218.69 -20.47 218.69 Q -18.6 218.69 -17.56 219.78 Q -16.52 220.87 -16.52 222.78 Z  M -18.97 222.78 Q -18.97 222.11 -19.08 221.65 Q -19.19 221.19 -19.39 220.92 Q -19.6 220.64 -19.87 220.52 Q -20.14 220.41 -20.47 220.41 Q -20.8 220.41 -21.06 220.51 Q -21.31 220.61 -21.53 220.89 Q -21.74 221.16 -21.86 221.62 Q -21.99 222.08 -21.99 222.78 Q -21.99 223.48 -21.87 223.92 Q -21.75 224.36 -21.56 224.62 Q -21.38 224.89 -21.09 225.01 Q -20.8 225.12 -20.46 225.12 Q -20.17 225.12 -19.88 225.01 Q -19.58 224.89 -19.39 224.64 Q -19.19 224.34 -19.08 223.93 Q -18.97 223.51 -18.97 222.78 Z  M -10.08 221.19 L -10.28 221.19 Q -10.42 221.14 -10.68 221.12 Q -10.94 221.09 -11.25 221.09 Q -11.63 221.09 -12.04 221.2 Q -12.46 221.31 -12.85 221.47 L -12.85 226.61 L -15.24 226.61 L -15.24 218.94 L -12.85 218.94 L -12.85 220.03 Q -12.69 219.87 -12.4 219.65 Q -12.11 219.42 -11.86 219.28 Q -11.61 219.12 -11.26 219.01 Q -10.91 218.91 -10.61 218.91 Q -10.49 218.91 -10.35 218.91 Q -10.21 218.92 -10.08 218.94 L -10.08 221.19 Z  M -5.4 226.81 Q -6.35 226.81 -7.14 226.57 Q -7.93 226.33 -8.51 225.84 Q -9.09 225.34 -9.41 224.58 Q -9.73 223.83 -9.73 222.8 Q -9.73 221.7 -9.38 220.93 Q -9.04 220.16 -8.45 219.66 Q -7.87 219.17 -7.09 218.94 Q -6.31 218.72 -5.48 218.72 Q -4.84 218.72 -4.21 218.87 Q -3.57 219.01 -2.92 219.33 L -2.92 221.39 L -3.23 221.39 Q -3.37 221.25 -3.58 221.08 Q -3.79 220.92 -4.04 220.78 Q -4.29 220.64 -4.62 220.54 Q -4.95 220.44 -5.35 220.44 Q -6.28 220.44 -6.78 221.08 Q -7.28 221.72 -7.28 222.8 Q -7.28 223.95 -6.74 224.52 Q -6.2 225.09 -5.32 225.09 Q -4.87 225.09 -4.53 224.99 Q -4.18 224.89 -3.93 224.75 Q -3.7 224.59 -3.53 224.44 Q -3.35 224.3 -3.23 224.17 L -2.92 224.17 L -2.92 226.22 Q -3.13 226.31 -3.4 226.43 Q -3.67 226.55 -3.95 226.61 Q -4.29 226.72 -4.6 226.76 Q -4.9 226.81 -5.4 226.81 Z  M 2.14 226.81 Q -0.03 226.81 -1.19 225.77 Q -2.35 224.73 -2.35 222.81 Q -2.35 220.94 -1.27 219.81 Q -0.19 218.69 1.75 218.69 Q 3.51 218.69 4.4 219.64 Q 5.29 220.59 5.29 222.36 L 5.29 223.22 L 0.04 223.22 Q 0.09 223.76 0.28 224.12 Q 0.47 224.47 0.78 224.69 Q 1.09 224.91 1.5 224.99 Q 1.9 225.08 2.39 225.08 Q 2.81 225.08 3.22 224.99 Q 3.62 224.91 3.95 224.75 Q 4.25 224.62 4.5 224.47 Q 4.75 224.31 4.9 224.2 L 5.15 224.2 L 5.15 226.17 Q 4.86 226.3 4.62 226.4 Q 4.37 226.5 3.95 226.59 Q 3.56 226.7 3.15 226.76 Q 2.73 226.81 2.14 226.81 Z  M 2.94 221.78 Q 2.92 221.03 2.58 220.63 Q 2.25 220.23 1.56 220.23 Q 0.87 220.23 0.48 220.65 Q 0.09 221.06 0.04 221.78 L 2.94 221.78 Z  M 13.72 226.61 L 11.31 226.61 L 11.31 222.8 Q 11.31 222.34 11.27 221.87 Q 11.23 221.41 11.14 221.19 Q 11.01 220.94 10.78 220.82 Q 10.54 220.7 10.15 220.7 Q 9.86 220.7 9.56 220.81 Q 9.26 220.92 8.92 221.17 L 8.92 226.61 L 6.53 226.61 L 6.53 218.94 L 8.92 218.94 L 8.92 219.78 Q 9.5 219.28 10.06 219 Q 10.62 218.72 11.29 218.72 Q 12.47 218.72 13.09 219.46 Q 13.72 220.2 13.72 221.61 L 13.72 226.61 Z  M 18.43 226.76 Q 16.96 226.76 16.3 226.16 Q 15.63 225.56 15.63 224.19 L 15.63 220.59 L 14.71 220.59 L 14.71 218.94 L 15.63 218.94 L 15.63 216.73 L 18.02 216.73 L 18.02 218.94 L 20.32 218.94 L 20.32 220.59 L 18.02 220.59 L 18.02 223.33 Q 18.02 223.72 18.03 224.02 Q 18.04 224.33 18.13 224.56 Q 18.24 224.8 18.48 224.94 Q 18.73 225.08 19.18 225.08 Q 19.38 225.08 19.69 225 Q 19.99 224.92 20.12 224.86 L 20.32 224.86 L 20.32 226.55 Q 19.93 226.64 19.49 226.7 Q 19.05 226.76 18.43 226.76 Z  M 25.53 224.61 L 25.53 223 Q 24.93 223.06 24.55 223.11 Q 24.17 223.16 23.81 223.28 Q 23.5 223.39 23.32 223.62 Q 23.15 223.84 23.15 224.2 Q 23.15 224.75 23.44 224.95 Q 23.73 225.16 24.29 225.16 Q 24.61 225.16 24.93 225.01 Q 25.26 224.86 25.53 224.61 Z  M 25.53 225.8 Q 25.29 226 25.1 226.16 Q 24.9 226.33 24.57 226.5 Q 24.25 226.66 23.94 226.73 Q 23.64 226.81 23.09 226.81 Q 22.07 226.81 21.4 226.13 Q 20.73 225.45 20.73 224.41 Q 20.73 223.55 21.07 223.02 Q 21.42 222.5 22.06 222.19 Q 22.7 221.87 23.61 221.75 Q 24.51 221.62 25.54 221.56 L 25.54 221.51 Q 25.54 220.89 25.07 220.65 Q 24.61 220.41 23.67 220.41 Q 23.25 220.41 22.68 220.55 Q 22.12 220.7 21.57 220.95 L 21.37 220.95 L 21.37 219.09 Q 21.73 219 22.52 218.86 Q 23.31 218.72 24.12 218.72 Q 26.11 218.72 27.01 219.37 Q 27.92 220.03 27.92 221.39 L 27.92 226.61 L 25.53 226.61 L 25.53 225.8 Z  M 34.27 224.19 L 34.27 220.7 Q 34.1 220.62 33.84 220.57 Q 33.58 220.51 33.31 220.51 Q 32.46 220.51 32.02 221.07 Q 31.58 221.62 31.58 222.62 Q 31.58 223.12 31.65 223.47 Q 31.72 223.81 31.89 224.09 Q 32.06 224.34 32.34 224.48 Q 32.61 224.61 33.05 224.61 Q 33.36 224.61 33.67 224.5 Q 33.99 224.39 34.27 224.19 Z  M 36.66 225.73 Q 36.66 226.8 36.35 227.54 Q 36.05 228.28 35.52 228.7 Q 34.99 229.12 34.24 229.31 Q 33.49 229.5 32.58 229.5 Q 31.81 229.5 31.13 229.4 Q 30.44 229.3 29.94 229.17 L 29.94 227.25 L 30.22 227.25 Q 30.39 227.33 30.63 227.41 Q 30.88 227.48 31.13 227.55 Q 31.42 227.62 31.71 227.67 Q 31.99 227.72 32.27 227.72 Q 32.88 227.72 33.28 227.59 Q 33.69 227.47 33.91 227.23 Q 34.11 227 34.19 226.67 Q 34.27 226.34 34.27 225.86 L 34.27 225.72 Q 33.86 226.06 33.34 226.28 Q 32.81 226.5 32.25 226.5 Q 30.75 226.5 29.95 225.53 Q 29.14 224.56 29.14 222.58 Q 29.14 221.67 29.39 220.95 Q 29.64 220.23 30.08 219.73 Q 30.5 219.25 31.1 218.98 Q 31.71 218.72 32.36 218.72 Q 32.94 218.72 33.41 218.87 Q 33.88 219.01 34.25 219.28 L 34.35 218.94 L 36.66 218.94 L 36.66 225.73 Z  M 42.42 226.81 Q 40.25 226.81 39.09 225.77 Q 37.94 224.73 37.94 222.81 Q 37.94 220.94 39.02 219.81 Q 40.09 218.69 42.03 218.69 Q 43.8 218.69 44.69 219.64 Q 45.58 220.59 45.58 222.36 L 45.58 223.22 L 40.33 223.22 Q 40.38 223.76 40.56 224.12 Q 40.75 224.47 41.06 224.69 Q 41.38 224.91 41.78 224.99 Q 42.19 225.08 42.67 225.08 Q 43.09 225.08 43.5 224.99 Q 43.91 224.91 44.24 224.75 Q 44.53 224.62 44.78 224.47 Q 45.03 224.31 45.19 224.2 L 45.44 224.2 L 45.44 226.17 Q 45.14 226.3 44.9 226.4 Q 44.66 226.5 44.24 226.59 Q 43.84 226.7 43.43 226.76 Q 43.02 226.81 42.42 226.81 Z  M 43.22 221.78 Q 43.2 221.03 42.87 220.63 Q 42.53 220.23 41.84 220.23 Q 41.16 220.23 40.77 220.65 Q 40.38 221.06 40.33 221.78 L 43.22 221.78 Z  M 55.99 226.61 L 55.99 222.78 Q 55.99 222.2 55.96 221.81 Q 55.94 221.42 55.84 221.19 Q 55.74 220.94 55.52 220.82 Q 55.3 220.7 54.92 220.7 Q 54.64 220.7 54.38 220.83 Q 54.11 220.95 53.8 221.17 L 53.8 226.61 L 51.39 226.61 L 51.39 222.78 Q 51.39 222.22 51.37 221.82 Q 51.34 221.42 51.24 221.19 Q 51.14 220.94 50.92 220.82 Q 50.7 220.7 50.33 220.7 Q 50.03 220.7 49.75 220.84 Q 49.47 220.98 49.2 221.17 L 49.2 226.61 L 46.81 226.61 L 46.81 218.94 L 49.2 218.94 L 49.2 219.78 Q 49.78 219.28 50.31 219 Q 50.83 218.72 51.47 218.72 Q 52.19 218.72 52.72 219.05 Q 53.25 219.39 53.53 220.05 Q 54.22 219.41 54.83 219.06 Q 55.44 218.72 56.06 218.72 Q 56.61 218.72 57.03 218.89 Q 57.45 219.06 57.75 219.41 Q 58.06 219.76 58.23 220.28 Q 58.39 220.8 58.39 221.61 L 58.39 226.61 L 55.99 226.61 Z "/></g><line x1="59" y1="31" x2="59" y2="411" style="stroke-width: 0.5;stroke: rgb(0,0,0);stroke-opacity: 0.2509804;stroke-linejoin: bevel;stroke-dasharray: 2.0, 2.0;shape-rendering:crispEdges;" clip-path="url(#_427167612482500clip-2)"/><line x1="113.95" y1="31" x2="113.95" y2="411" style="stroke-width: 0.5;stroke: rgb(0,0,0);stroke-opacity: 0.2509804;stroke-linejoin: bevel;stroke-dasharray: 2.0, 2.0;shape-rendering:crispEdges;" clip-path="url(#_427167612482500clip-2)"/><line x1="168.91" y1="31" x2="168.91" y2="411" style="stroke-width: 0.5;stroke: rgb(0,0,0);stroke-opacity: 0.2509804;stroke-linejoin: bevel;stroke-dasharray: 2.0, 2.0;shape-rendering:crispEdges;" clip-path="url(#_427167612482500clip-2)"/><line x1="223.86" y1="31" x2="223.86" y2="411" style="stroke-width: 0.5;stroke: rgb(0,0,0);stroke-opacity: 0.2509804;stroke-linejoin: bevel;stroke-dasharray: 2.0, 2.0;shape-rendering:crispEdges;" clip-path="url(#_427167612482500clip-2)"/><line x1="278.81" y1="31" x2="278.81" y2="411" style="stroke-width: 0.5;stroke: rgb(0,0,0);stroke-opacity: 0.2509804;stroke-linejoin: bevel;stroke-dasharray: 2.0, 2.0;shape-rendering:crispEdges;" clip-path="url(#_427167612482500clip-2)"/><line x1="333.76" y1="31" x2="333.76" y2="411" style="stroke-width: 0.5;stroke: rgb(0,0,0);stroke-opacity: 0.2509804;stroke-linejoin: bevel;stroke-dasharray: 2.0, 2.0;shape-rendering:crispEdges;" clip-path="url(#_427167612482500clip-2)"/><line x1="388.72" y1="31" x2="388.72" y2="411" style="stroke-width: 0.5;stroke: rgb(0,0,0);stroke-opacity: 0.2509804;stroke-linejoin: bevel;stroke-dasharray: 2.0, 2.0;shape-rendering:crispEdges;" clip-path="url(#_427167612482500clip-2)"/><line x1="443.67" y1="31" x2="443.67" y2="411" style="stroke-width: 0.5;stroke: rgb(0,0,0);stroke-opacity: 0.2509804;stroke-linejoin: bevel;stroke-dasharray: 2.0, 2.0;shape-rendering:crispEdges;" clip-path="url(#_427167612482500clip-2)"/><line x1="498.62" y1="31" x2="498.62" y2="411" style="stroke-width: 0.5;stroke: rgb(0,0,0);stroke-opacity: 0.2509804;stroke-linejoin: bevel;stroke-dasharray: 2.0, 2.0;shape-rendering:crispEdges;" clip-path="url(#_427167612482500clip-2)"/><line x1="553.58" y1="31" x2="553.58" y2="411" style="stroke-width: 0.5;stroke: rgb(0,0,0);stroke-opacity: 0.2509804;stroke-linejoin: bevel;stroke-dasharray: 2.0, 2.0;shape-rendering:crispEdges;" clip-path="url(#_427167612482500clip-2)"/><line x1="608.53" y1="31" x2="608.53" y2="411" style="stroke-width: 0.5;stroke: rgb(0,0,0);stroke-opacity: 0.2509804;stroke-linejoin: bevel;stroke-dasharray: 2.0, 2.0;shape-rendering:crispEdges;" clip-path="url(#_427167612482500clip-2)"/><line x1="59" y1="411" x2="636" y2="411" style="stroke-width: 0.5;stroke: rgb(0,0,0);stroke-opacity: 0.2509804;stroke-linejoin: bevel;stroke-dasharray: 2.0, 2.0;shape-rendering:crispEdges;" clip-path="url(#_427167612482500clip-2)"/><line x1="59" y1="383.81" x2="636" y2="383.81" style="stroke-width: 0.5;stroke: rgb(0,0,0);stroke-opacity: 0.2509804;stroke-linejoin: bevel;stroke-dasharray: 2.0, 2.0;shape-rendering:crispEdges;" clip-path="url(#_427167612482500clip-2)"/><line x1="59" y1="356.62" x2="636" y2="356.62" style="stroke-width: 0.5;stroke: rgb(0,0,0);stroke-opacity: 0.2509804;stroke-linejoin: bevel;stroke-dasharray: 2.0, 2.0;shape-rendering:crispEdges;" clip-path="url(#_427167612482500clip-2)"/><line x1="59" y1="329.42" x2="636" y2="329.42" style="stroke-width: 0.5;stroke: rgb(0,0,0);stroke-opacity: 0.2509804;stroke-linejoin: bevel;stroke-dasharray: 2.0, 2.0;shape-rendering:crispEdges;" clip-path="url(#_427167612482500clip-2)"/><line x1="59" y1="302.23" x2="636" y2="302.23" style="stroke-width: 0.5;stroke: rgb(0,0,0);stroke-opacity: 0.2509804;stroke-linejoin: bevel;stroke-dasharray: 2.0, 2.0;shape-rendering:crispEdges;" clip-path="url(#_427167612482500clip-2)"/><line x1="59" y1="275.04" x2="636" y2="275.04" style="stroke-width: 0.5;stroke: rgb(0,0,0);stroke-opacity: 0.2509804;stroke-linejoin: bevel;stroke-dasharray: 2.0, 2.0;shape-rendering:crispEdges;" clip-path="url(#_427167612482500clip-2)"/><line x1="59" y1="247.85" x2="636" y2="247.85" style="stroke-width: 0.5;stroke: rgb(0,0,0);stroke-opacity: 0.2509804;stroke-linejoin: bevel;stroke-dasharray: 2.0, 2.0;shape-rendering:crispEdges;" clip-path="url(#_427167612482500clip-2)"/><line x1="59" y1="220.65" x2="636" y2="220.65" style="stroke-width: 0.5;stroke: rgb(0,0,0);stroke-opacity: 0.2509804;stroke-linejoin: bevel;stroke-dasharray: 2.0, 2.0;shape-rendering:crispEdges;" clip-path="url(#_427167612482500clip-2)"/><line x1="59" y1="193.46" x2="636" y2="193.46" style="stroke-width: 0.5;stroke: rgb(0,0,0);stroke-opacity: 0.2509804;stroke-linejoin: bevel;stroke-dasharray: 2.0, 2.0;shape-rendering:crispEdges;" clip-path="url(#_427167612482500clip-2)"/><line x1="59" y1="166.27" x2="636" y2="166.27" style="stroke-width: 0.5;stroke: rgb(0,0,0);stroke-opacity: 0.2509804;stroke-linejoin: bevel;stroke-dasharray: 2.0, 2.0;shape-rendering:crispEdges;" clip-path="url(#_427167612482500clip-2)"/><line x1="59" y1="139.08" x2="636" y2="139.08" style="stroke-width: 0.5;stroke: rgb(0,0,0);stroke-opacity: 0.2509804;stroke-linejoin: bevel;stroke-dasharray: 2.0, 2.0;shape-rendering:crispEdges;" clip-path="url(#_427167612482500clip-2)"/><line x1="59" y1="111.88" x2="636" y2="111.88" style="stroke-width: 0.5;stroke: rgb(0,0,0);stroke-opacity: 0.2509804;stroke-linejoin: bevel;stroke-dasharray: 2.0, 2.0;shape-rendering:crispEdges;" clip-path="url(#_427167612482500clip-2)"/><line x1="59" y1="84.69" x2="636" y2="84.69" style="stroke-width: 0.5;stroke: rgb(0,0,0);stroke-opacity: 0.2509804;stroke-linejoin: bevel;stroke-dasharray: 2.0, 2.0;shape-rendering:crispEdges;" clip-path="url(#_427167612482500clip-2)"/><line x1="59" y1="57.5" x2="636" y2="57.5" style="stroke-width: 0.5;stroke: rgb(0,0,0);stroke-opacity: 0.2509804;stroke-linejoin: bevel;stroke-dasharray: 2.0, 2.0;shape-rendering:crispEdges;" clip-path="url(#_427167612482500clip-2)"/><g style="stroke-width: 1.0;stroke: rgb(85,85,255);stroke-opacity: 1.0;stroke-linecap: square;stroke-linejoin: bevel;shape-rendering:geometricPrecision;; fill: none" clip-path="url(#_427167612482500clip-2)"><path d="M 59 307.23 L 60 169.61 L 61 174.46 L 62 164.36 L 63 178.52 L 64 245.77 L 65 199.63 L 66 173.21 L 67 179.86 L 68 180.14 L 69 184.72 L 70 162.15 L 71 179.72 L 72 148.62 L 73 178.41 L 74 170.94 L 75 166.42 L 76 165.64 L 77 170.52 L 78 164.75 L 79 156.78 L 80 158.25 L 81 193.02 L 82 199.97 L 83 197.44 L 84 213.42 L 85 214.46 L 86 215.05 L 87 213.79 L 88 215.99 L 89 200.04 L 90 202.38 L 91 212.24 L 92 204.64 L 93 201.98 L 94.01 196.45 L 95.01 196.7 L 96.01 175.53 L 97.01 198.2 L 98.01 194.14 L 99.01 176.05 L 100.01 186.85 L 101.01 189.9 L 102.01 197.44 L 103.01 184.67 L 104.01 191.08 L 105.01 186.98 L 106.01 187.68 L 107.01 179.24 L 108.01 201.19 L 109.01 187.15 L 110.01 192.9 L 111.01 193.26 L 112.01 211.79 L 113.01 206.15 L 114.01 194.94 L 115.01 199.87 L 116.01 193.63 L 117.01 204.39 L 118.01 206.29 L 119.01 187.18 L 120.01 186.49 L 121.01 195.93 L 122.01 201.84 L 123.01 211.23 L 124.01 182.34 L 125.01 196.48 L 126.01 220.3 L 127.01 196.4 L 128.01 218.09 L 129.01 212.53 L 130.01 189.37 L 131.01 210.37 L 132.01 200.74 L 133.01 199.41 L 134.01 205.01 L 135.01 212.01 L 136.01 207.17 L 137.01 222.19 L 138.01 196.77 L 139.01 218.36 L 140.01 223.72 L 141.01 177.4 L 142.01 214.42 L 143.01 188.01 L 144.01 176.4 L 145.01 204.16 L 146.01 197.42 L 147.01 205.29 L 148.01 221.67 L 149.01 219.5 L 150.01 203.08 L 151.01 208.85 L 152.01 219.08 L 153.01 207.2 L 154.01 233.03 L 155.01 233.15 L 156.01 214.59 L 157.01 216.01 L 158.01 195.8 L 159.01 223.29 L 160.01 220.96 L 161.01 219.07 L 162.01 222.73 L 163.01 243.21 L 164.02 218.3 L 165.02 229.05 L 166.02 209.62 L 167.02 217.96 L 168.02 222.4 L 169.02 224.71 L 170.02 214.67 L 171.02 224.68 L 172.02 234.21 L 173.02 227.72 L 174.02 198.43 L 175.02 226.19 L 176.02 198.83 L 177.02 216.72 L 178.02 182.73 L 179.02 203.08 L 180.02 186.19 L 181.02 214.7 L 182.02 198.95 L 183.02 215.63 L 184.02 212.41 L 185.02 209.19 L 186.02 217.87 L 187.02 218.25 L 188.02 229.76 L 189.02 182.89 L 190.02 228.31 L 191.02 236.15 L 192.02 224.54 L 193.02 200.48 L 194.02 228.86 L 195.02 218.33 L 196.02 230.45 L 197.02 225.44 L 198.02 220.11 L 199.02 181.81 L 200.02 194.09 L 201.02 200.62 L 202.02 199.17 L 203.02 223.56 L 204.02 151.27 L 205.02 221.83 L 206.02 230.36 L 207.02 201.72 L 208.02 192.28 L 209.02 188.65 L 210.02 218.4 L 211.02 239.73 L 212.02 191.29 L 213.02 202.05 L 214.02 221.91 L 215.02 216.48 L 216.02 150.3 L 217.02 247.43 L 218.02 209.77 L 219.02 179.06 L 220.02 182.28 L 221.02 205.18 L 222.02 218.35 L 223.02 215.7 L 224.02 223.68 L 225.02 221.23 L 226.02 212.88 L 227.02 224.64 L 228.02 217.02 L 229.02 224.55 L 230.02 217.33 L 231.02 228.14 L 232.02 214.43 L 233.02 196.71 L 234.03 209.2 L 235.03 224.86 L 236.03 238.63 L 237.03 226.34 L 238.03 230.17 L 239.03 243.42 L 240.03 204.21 L 241.03 229.05 L 242.03 237.08 L 243.03 215.47 L 244.03 239.29 L 245.03 222.02 L 246.03 238.28 L 247.03 230.23 L 248.03 233.39 L 249.03 241.68 L 250.03 208.09 L 251.03 226.39 L 252.03 199.38 L 253.03 238.08 L 254.03 215.32 L 255.03 207.81 L 256.03 221.68 L 257.03 207.89 L 258.03 225.03 L 259.03 211.51 L 260.03 177.05 L 261.03 226.19 L 262.03 221.87 L 263.03 223.31 L 264.03 225.4 L 265.03 203.1 L 266.03 208.44 L 267.03 199.1 L 268.03 216.03 L 269.03 194.69 L 270.03 243.63 L 271.03 239.02 L 272.03 210.33 L 273.03 237.74 L 274.03 215.36 L 275.03 223.7 L 276.03 212.52 L 277.03 201.58 L 278.03 217.44 L 279.03 201.01 L 280.03 240.43 L 281.03 210.84 L 282.03 210.11 L 283.03 227.86 L 284.03 197.42 L 285.03 219.31 L 286.03 232.14 L 287.03 199.19 L 288.03 233.17 L 289.03 233.38 L 290.03 215.57 L 291.03 236.23 L 292.03 211.44 L 293.03 221.33 L 294.03 195.84 L 295.03 204.04 L 296.03 221.57 L 297.03 203.02 L 298.03 236.37 L 299.03 217.89 L 300.03 240.54 L 301.03 244.16 L 302.03 253.51 L 303.03 233.22 L 304.04 195.31 L 305.04 239 L 306.04 237.13 L 307.04 235.68 L 308.04 244.63 L 309.04 210.68 L 310.04 243.94 L 311.04 242.57 L 312.04 177.87 L 313.04 227.23 L 314.04 225.63 L 315.04 217.76 L 316.04 225.68 L 317.04 247.89 L 318.04 195.1 L 319.04 232.25 L 320.04 218.18 L 321.04 229.69 L 322.04 235.04 L 323.04 235.2 L 324.04 202.32 L 325.04 230.54 L 326.04 226.72 L 327.04 239.83 L 328.04 189.84 L 329.04 200.94 L 330.04 225.55 L 331.04 214.4 L 332.04 226.9 L 333.04 239.97 L 334.04 228.74 L 335.04 180.04 L 336.04 204.9 L 337.04 213.18 L 338.04 227.81 L 339.04 234.48 L 340.04 231.87 L 341.04 199.54 L 342.04 214.22 L 343.04 189.26 L 344.04 234.19 L 345.04 178.66 L 346.04 205.5 L 347.04 204.93 L 348.04 242.69 L 349.04 253.14 L 350.04 230.75 L 351.04 236.88 L 352.04 194.54 L 353.04 198.95 L 354.04 217.3 L 355.04 216.32 L 356.04 227.67 L 357.04 227.01 L 358.04 249.93 L 359.04 215.92 L 360.04 211.24 L 361.04 243.31 L 362.04 234.4 L 363.04 234.75 L 364.04 226.47 L 365.04 221.17 L 366.04 209.99 L 367.04 219.29 L 368.04 203.41 L 369.04 200.37 L 370.04 237.32 L 371.04 233.98 L 372.04 213.59 L 373.05 247.21 L 374.05 240.41 L 375.05 209.11 L 376.05 198.9 L 377.05 226.29 L 378.05 243.22 L 379.05 228.27 L 380.05 226.1 L 381.05 147.23 L 382.05 155.51 L 383.05 169.01 L 384.05 193.47 L 385.05 146.45 L 386.05 236.43 L 387.05 161.4 L 388.05 190.26 L 389.05 170.35 L 390.05 173.98 L 391.05 204.35 L 392.05 160.13 L 393.05 190.91 L 394.05 191.54 L 395.05 199.21 L 396.05 192.15 L 397.05 177.12 L 398.05 204.28 L 399.05 191.11 L 400.05 168.53 L 401.05 207.5 L 402.05 196.51 L 403.05 175.64 L 404.05 187.58 L 405.05 202.95 L 406.05 218.2 L 407.05 172.33 L 408.05 196.58 L 409.05 202.75 L 410.05 192.15 L 411.05 208.36 L 412.05 204.77 L 413.05 214.64 L 414.05 194.31 L 415.05 195.01 L 416.05 243.01 L 417.05 193.55 L 418.05 218.05 L 419.05 228.91 L 420.05 244.57 L 421.05 246.29 L 422.05 243.85 L 423.05 223.79 L 424.05 203.67 L 425.05 235.37 L 426.05 215.06 L 427.05 205.62 L 428.05 202.27 L 429.05 206.66 L 430.05 220.24 L 431.05 200.58 L 432.05 195.63 L 433.05 210.71 L 434.05 195.01 L 435.05 206.22 L 436.05 231.26 L 437.05 196.95 L 438.05 230.82 L 439.05 237.95 L 440.05 221.07 L 441.05 226.42 L 442.05 214.45 L 443.06 228.43 L 444.06 207.61 L 445.06 221.21 L 446.06 205.92 L 447.06 212.07 L 448.06 232.49 L 449.06 213.22 L 450.06 227.26 L 451.06 219.97 L 452.06 212.55 L 453.06 230.66 L 454.06 197.08 L 455.06 208.43 L 456.06 215.49 L 457.06 222.71 L 458.06 228.24 L 459.06 201.94 L 460.06 223.32 L 461.06 202 L 462.06 210.81 L 463.06 228.09 L 464.06 189.4 L 465.06 224.16 L 466.06 221.43 L 467.06 193.23 L 468.06 238.4 L 469.06 219.68 L 470.06 192.56 L 471.06 213.01 L 472.06 214 L 473.06 215.68 L 474.06 226.34 L 475.06 233.22 L 476.06 227.87 L 477.06 228.78 L 478.06 221.52 L 479.06 210.75 L 480.06 209.04 L 481.06 229.39 L 482.06 218.1 L 483.06 222.52 L 484.06 200.35 L 485.06 219.1 L 486.06 240.33 L 487.06 216.17 L 488.06 196.94 L 489.06 211.41 L 490.06 244.96 L 491.06 220.68 L 492.06 219.65 L 493.06 215.47 L 494.06 218.24 L 495.06 212.34 L 496.06 218.16 L 497.06 220.44 L 498.06 226.03 L 499.06 213.36 L 500.06 231.6 L 501.06 225.54 L 502.06 207.42 L 503.06 211.31 L 504.06 225.5 L 505.06 224.18 L 506.06 199.72 L 507.06 229.09 L 508.06 219.77 L 509.06 222.97 L 510.06 216.19 L 511.06 231.47 L 512.06 218.45 L 513.07 213.52 L 514.07 207.72 L 515.07 183.67 L 516.07 229.7 L 517.07 225.04 L 518.07 234.15 L 519.07 219.18 L 520.07 225.95 L 521.07 219.79 L 522.07 200.02 L 523.07 225.5 L 524.07 222.51 L 525.07 217.22 L 526.07 215.39 L 527.07 220.51 L 528.07 207.6 L 529.07 199.42 L 530.07 221.48 L 531.07 224.44 L 532.07 228.28 L 533.07 222.86 L 534.07 225.05 L 535.07 215.05 L 536.07 212.6 L 537.07 225.23 L 538.07 235.31 L 539.07 214.69 L 540.07 220.32 L 541.07 228.21 L 542.07 238.58 L 543.07 221.44 L 544.07 221.01 L 545.07 218.08 L 546.07 214.42 L 547.07 212.93 L 548.07 240.28 L 549.07 238.15 L 550.07 225.09 L 551.07 220.43 L 552.07 210.35 L 553.07 220.79 L 554.07 222.36 L 555.07 212.21 L 556.07 217.18 L 557.07 213.44 L 558.07 215.19 L 559.07 208.47 L 560.07 218.69 L 561.07 213.61 L 562.07 223.43 L 563.07 209.92 L 564.07 225.74 L 565.07 185.11 L 566.07 198.54 L 567.07 231.12 L 568.07 195.89 L 569.07 189.73 L 570.07 197.47 L 571.07 205.45 L 572.07 200.57 L 573.07 206.71 L 574.07 199.02 L 575.07 194.62 L 576.07 198 L 577.07 196.29 L 578.07 199 L 579.07 200.66 L 580.07 206.22 L 581.07 190.32 L 582.07 195.29 L 583.08 254.6 L 584.08 196.78 L 585.08 251.98 L 586.08 238.93 L 587.08 222.18 L 588.08 181.87 L 589.08 196.1 L 590.08 197.39 L 591.08 224.09 L 592.08 225.75 L 593.08 179.64 L 594.08 195.24 L 595.08 232.57 L 596.08 191.09 L 597.08 181.45 L 598.08 207.56 L 599.08 228.97 L 600.08 194.42 L 601.08 197.53 L 602.08 232.11 L 603.08 213.89 L 604.08 202.38 L 605.08 176.14 L 606.08 207.67 L 607.08 209.23 L 608.08 215.64"/></g><g style="stroke-width: 1.0;stroke: rgb(85,85,255);stroke-opacity: 1.0;stroke-linecap: square;stroke-linejoin: bevel;shape-rendering:geometricPrecision;; fill: none" clip-path="url(#_427167612482500clip-2)"><path d="M 59 49.1 L 59 307.23 M 60 161.76 L 60 174.46 M 61 163.46 L 61 174.46 M 62 162.79 L 62 245.19 M 63 178.52 L 63 262.93 M 64 164.4 L 64 260.36 M 65 111.36 L 65 235.26 M 66 141.77 L 66 197.03 M 67 147.76 L 67 191.54 M 68 148.32 L 68 190.62 M 69 140.33 L 69 189.87 M 70 143.09 L 70 188.88 M 71 143.09 L 71 189.59 M 72 142.06 L 72 186.32 M 73 146.18 L 73 209.08 M 74 143.53 L 74 224.05 M 75 139.77 L 75 221.34 M 76 142.28 L 76 212.38 M 77 140.2 L 77 211.3 M 78 156.14 L 78 212.1 M 79 148.29 L 79 211.82 M 80 157.1 L 80 211.43 M 81 160.5 L 81 216.46 M 82 155.76 L 82 222.3 M 83 162 L 83 219.79 M 84 169.97 L 84 219.46 M 85 162 L 85 217.33 M 86 158.87 L 86 221.1 M 87 169.19 L 87 223.39 M 88 169.43 L 88 222.09 M 89 164.4 L 89 220.51 M 90 160.27 L 90 224.23 M 91 170.73 L 91 225.7 M 92 174.63 L 92 223.58 M 93 160.42 L 93 221.35 M 94.01 163.42 L 94.01 225.41 M 95.01 165.72 L 95.01 227.84 M 96.01 163.66 L 96.01 230.05 M 97.01 172.69 L 97.01 227.1 M 98.01 158.04 L 98.01 231.62 M 99.01 132.37 L 99.01 226.61 M 100.01 154.35 L 100.01 226.8 M 101.01 88.52 L 101.01 227.76 M 102.01 150.47 L 102.01 226.45 M 103.01 148.37 L 103.01 217.25 M 104.01 136.53 L 104.01 223.35 M 105.01 146.07 L 105.01 228 M 106.01 136.02 L 106.01 221.49 M 107.01 81.91 L 107.01 223.99 M 108.01 147.87 L 108.01 227.56 M 109.01 162.82 L 109.01 220.24 M 110.01 152.14 L 110.01 223.96 M 111.01 100.64 L 111.01 219.26 M 112.01 101.7 L 112.01 221.31 M 113.01 148.62 L 113.01 217.48 M 114.01 156.93 L 114.01 213.64 M 115.01 121.18 L 115.01 219.96 M 116.01 155.75 L 116.01 231.52 M 117.01 102.72 L 117.01 218.32 M 118.01 151.88 L 118.01 220.16 M 119.01 160.52 L 119.01 219.82 M 120.01 155.74 L 120.01 219.07 M 121.01 114.33 L 121.01 226.18 M 122.01 160.93 L 122.01 223.07 M 123.01 109.27 L 123.01 245.92 M 124.01 167.95 L 124.01 246.68 M 125.01 164.9 L 125.01 236.72 M 126.01 169.43 L 126.01 260.03 M 127.01 101.89 L 127.01 231.3 M 128.01 175.99 L 128.01 242.15 M 129.01 172.01 L 129.01 231.92 M 130.01 173.3 L 130.01 246.71 M 131.01 174.95 L 131.01 252.63 M 132.01 174.65 L 132.01 232.91 M 133.01 114.04 L 133.01 254.89 M 134.01 173.01 L 134.01 250.3 M 135.01 177.71 L 135.01 257.9 M 136.01 174.24 L 136.01 251.8 M 137.01 172.97 L 137.01 246.49 M 138.01 170.9 L 138.01 264.48 M 139.01 179.37 L 139.01 261.54 M 140.01 173.83 L 140.01 262.66 M 141.01 172.83 L 141.01 256.76 M 142.01 112.52 L 142.01 262.41 M 143.01 177.05 L 143.01 265.22 M 144.01 173.14 L 144.01 250.1 M 145.01 177.6 L 145.01 255.84 M 146.01 106.37 L 146.01 254.94 M 147.01 178.66 L 147.01 258.3 M 148.01 179.83 L 148.01 260.33 M 149.01 172.85 L 149.01 260.65 M 150.01 176.2 L 150.01 255.38 M 151.01 175.98 L 151.01 260.99 M 152.01 176.79 L 152.01 254.09 M 153.01 176.69 L 153.01 260.62 M 154.01 179.15 L 154.01 255.07 M 155.01 180.98 L 155.01 258.67 M 156.01 176 L 156.01 262.61 M 157.01 111.96 L 157.01 255.82 M 158.01 177.21 L 158.01 255.23 M 159.01 185.81 L 159.01 262.47 M 160.01 158.67 L 160.01 258.38 M 161.01 116.34 L 161.01 254.95 M 162.01 168.37 L 162.01 258.76 M 163.01 99.05 L 163.01 251.3 M 164.02 178.28 L 164.02 259.16 M 165.02 178.2 L 165.02 254.81 M 166.02 171.58 L 166.02 244.8 M 167.02 170.93 L 167.02 253.99 M 168.02 166.77 L 168.02 249.49 M 169.02 167.83 L 169.02 238.57 M 170.02 115.88 L 170.02 253.12 M 171.02 153.57 L 171.02 256.36 M 172.02 187.38 L 172.02 260.95 M 173.02 193.05 L 173.02 253.51 M 174.02 177.45 L 174.02 257.2 M 175.02 171.03 L 175.02 248.16 M 176.02 171.94 L 176.02 251.06 M 177.02 172.17 L 177.02 248.95 M 178.02 106.16 L 178.02 247.26 M 179.02 169.52 L 179.02 239.03 M 180.02 154.73 L 180.02 242.6 M 181.02 140.89 L 181.02 238.58 M 182.02 102.04 L 182.02 248.51 M 183.02 151.05 L 183.02 246.43 M 184.02 152.29 L 184.02 243.3 M 185.02 164.69 L 185.02 247.29 M 186.02 149.67 L 186.02 242.16 M 187.02 148.28 L 187.02 245.2 M 188.02 154.04 L 188.02 241.74 M 189.02 165.06 L 189.02 243.56 M 190.02 171.32 L 190.02 244.44 M 191.02 169.42 L 191.02 242.4 M 192.02 148.75 L 192.02 245.07 M 193.02 146.92 L 193.02 245.85 M 194.02 150.73 L 194.02 246.56 M 195.02 174.3 L 195.02 244.79 M 196.02 145.84 L 196.02 245.89 M 197.02 114.48 L 197.02 249.29 M 198.02 170.72 L 198.02 246.38 M 199.02 143.55 L 199.02 251.88 M 200.02 146.05 L 200.02 240 M 201.02 109.85 L 201.02 234.07 M 202.02 145.45 L 202.02 241.65 M 203.02 146.98 L 203.02 243.2 M 204.02 146.51 L 204.02 237.47 M 205.02 148.53 L 205.02 236.54 M 206.02 144.43 L 206.02 235.01 M 207.02 138.21 L 207.02 248.79 M 208.02 140.79 L 208.02 243.48 M 209.02 144.1 L 209.02 245.58 M 210.02 139.43 L 210.02 243.37 M 211.02 146.22 L 211.02 246.4 M 212.02 155.54 L 212.02 243.85 M 213.02 150.56 L 213.02 246.13 M 214.02 144.64 L 214.02 244.15 M 215.02 143.39 L 215.02 252.99 M 216.02 149.4 L 216.02 253.17 M 217.02 148.37 L 217.02 247.43 M 218.02 161.23 L 218.02 248.71 M 219.02 150.54 L 219.02 243.53 M 220.02 168.22 L 220.02 253.4 M 221.02 147.47 L 221.02 243.93 M 222.02 170.98 L 222.02 256.11 M 223.02 166.32 L 223.02 247.27 M 224.02 183.73 L 224.02 253.03 M 225.02 178.42 L 225.02 248.32 M 226.02 180.92 L 226.02 243.74 M 227.02 172.66 L 227.02 247.43 M 228.02 168.94 L 228.02 251.66 M 229.02 183.6 L 229.02 252.08 M 230.02 171.08 L 230.02 253.31 M 231.02 166.97 L 231.02 250.63 M 232.02 172.94 L 232.02 255.41 M 233.02 186.81 L 233.02 251.27 M 234.03 190.87 L 234.03 247.56 M 235.03 193.13 L 235.03 246.92 M 236.03 182.67 L 236.03 258.21 M 237.03 188.87 L 237.03 252.78 M 238.03 173.64 L 238.03 248.24 M 239.03 196.69 L 239.03 255.01 M 240.03 185.39 L 240.03 246.71 M 241.03 174.25 L 241.03 250.48 M 242.03 162.24 L 242.03 250.94 M 243.03 167.54 L 243.03 258.31 M 244.03 171.14 L 244.03 252.62 M 245.03 164.64 L 245.03 248.48 M 246.03 172.33 L 246.03 255.77 M 247.03 165.73 L 247.03 257.84 M 248.03 155.7 L 248.03 248.12 M 249.03 173.73 L 249.03 251.23 M 250.03 174.32 L 250.03 250.13 M 251.03 156.19 L 251.03 252.96 M 252.03 169.04 L 252.03 248.19 M 253.03 162.36 L 253.03 247.57 M 254.03 163.25 L 254.03 246.56 M 255.03 153.82 L 255.03 246.03 M 256.03 179.92 L 256.03 257.05 M 257.03 169.56 L 257.03 246.32 M 258.03 160.48 L 258.03 250.18 M 259.03 150.95 L 259.03 251.49 M 260.03 173.65 L 260.03 255.25 M 261.03 167.79 L 261.03 250.16 M 262.03 164.77 L 262.03 249.11 M 263.03 168.43 L 263.03 249.86 M 264.03 174.86 L 264.03 244.9 M 265.03 146.83 L 265.03 252.83 M 266.03 168.07 L 266.03 253.67 M 267.03 165.43 L 267.03 249.84 M 268.03 169.8 L 268.03 252.2 M 269.03 160.57 L 269.03 249.21 M 270.03 178.83 L 270.03 254.74 M 271.03 181.91 L 271.03 255.03 M 272.03 183.21 L 272.03 259.35 M 273.03 180.86 L 273.03 245.84 M 274.03 166.77 L 274.03 251.23 M 275.03 185.54 L 275.03 254.88 M 276.03 180.49 L 276.03 246.17 M 277.03 170.19 L 277.03 249.24 M 278.03 169.64 L 278.03 250.06 M 279.03 179.81 L 279.03 250.37 M 280.03 179.55 L 280.03 252.86 M 281.03 163.48 L 281.03 245.53 M 282.03 179.14 L 282.03 250.13 M 283.03 190.61 L 283.03 250.89 M 284.03 170.77 L 284.03 251.86 M 285.03 163.91 L 285.03 246.28 M 286.03 179.41 L 286.03 248.4 M 287.03 170.37 L 287.03 250.63 M 288.03 174.61 L 288.03 247.63 M 289.03 180.55 L 289.03 252.47 M 290.03 167.6 L 290.03 251.52 M 291.03 180.83 L 291.03 251.3 M 292.03 183.49 L 292.03 244.88 M 293.03 164.36 L 293.03 254.33 M 294.03 165.74 L 294.03 257.18 M 295.03 177.11 L 295.03 257.57 M 296.03 191.08 L 296.03 255.67 M 297.03 185.23 L 297.03 248.46 M 298.03 164.41 L 298.03 254.91 M 299.03 171.4 L 299.03 263.85 M 300.03 207.47 L 300.03 255.51 M 301.03 211.18 L 301.03 256.59 M 302.03 190.58 L 302.03 255.76 M 303.03 184.13 L 303.03 255.82 M 304.04 195.31 L 304.04 258.58 M 305.04 164.12 L 305.04 256.3 M 306.04 204.06 L 306.04 258.29 M 307.04 144.19 L 307.04 254.74 M 308.04 181.25 L 308.04 256.55 M 309.04 151.13 L 309.04 252.36 M 310.04 201.98 L 310.04 252.17 M 311.04 144.63 L 311.04 257.3 M 312.04 100.32 L 312.04 248.77 M 313.04 170.19 L 313.04 261.77 M 314.04 188.89 L 314.04 251.04 M 315.04 180.32 L 315.04 251.43 M 316.04 183.24 L 316.04 259.34 M 317.04 151.41 L 317.04 254.41 M 318.04 103.27 L 318.04 257.67 M 319.04 195.17 L 319.04 256.21 M 320.04 184.76 L 320.04 253.67 M 321.04 108.55 L 321.04 254.41 M 322.04 193.49 L 322.04 255.88 M 323.04 103.85 L 323.04 256.08 M 324.04 190.89 L 324.04 255.45 M 325.04 138.92 L 325.04 255.29 M 326.04 113.59 L 326.04 258.95 M 327.04 113.62 L 327.04 250.44 M 328.04 113.33 L 328.04 238.71 M 329.04 120.7 L 329.04 246.3 M 330.04 178.62 L 330.04 253.34 M 331.04 141.01 L 331.04 254.51 M 332.04 173.62 L 332.04 259.62 M 333.04 201.95 L 333.04 257.8 M 334.04 149 L 334.04 255.55 M 335.04 99 L 335.04 242.56 M 336.04 162.96 L 336.04 252.76 M 337.04 181.08 L 337.04 266.69 M 338.04 164.83 L 338.04 267.5 M 339.04 109.84 L 339.04 252.91 M 340.04 136.99 L 340.04 247.86 M 341.04 142.91 L 341.04 253.8 M 342.04 192.35 L 342.04 256.92 M 343.04 146.5 L 343.04 245.76 M 344.04 134.46 L 344.04 244.21 M 345.04 140.17 L 345.04 240.67 M 346.04 141.29 L 346.04 246.34 M 347.04 156.84 L 347.04 246.58 M 348.04 181.83 L 348.04 267.24 M 349.04 176.4 L 349.04 258.51 M 350.04 192.37 L 350.04 259.77 M 351.04 109.31 L 351.04 258.45 M 352.04 137.97 L 352.04 242.2 M 353.04 117.37 L 353.04 241.46 M 354.04 154.95 L 354.04 245.88 M 355.04 157.98 L 355.04 255.58 M 356.04 168.13 L 356.04 253.58 M 357.04 164.12 L 357.04 263.5 M 358.04 164.27 L 358.04 255.61 M 359.04 135.28 L 359.04 261.25 M 360.04 151.35 L 360.04 250.47 M 361.04 174.13 L 361.04 249.82 M 362.04 164.97 L 362.04 260.53 M 363.04 179.74 L 363.04 261.6 M 364.04 144.13 L 364.04 261.94 M 365.04 133.49 L 365.04 243.03 M 366.04 159.61 L 366.04 246.17 M 367.04 166.34 L 367.04 241.67 M 368.04 145.52 L 368.04 249.27 M 369.04 169.54 L 369.04 267.82 M 370.04 143.98 L 370.04 250.08 M 371.04 173.08 L 371.04 264 M 372.04 201.12 L 372.04 267.04 M 373.05 201.09 L 373.05 265.44 M 374.05 133.24 L 374.05 241.7 M 375.05 134.38 L 375.05 245.37 M 376.05 131.16 L 376.05 247.18 M 377.05 169.13 L 377.05 245.75 M 378.05 134.73 L 378.05 247 M 379.05 166.69 L 379.05 252.59 M 380.05 68.27 L 380.05 235.38 M 381.05 77.3 L 381.05 223.13 M 382.05 82.67 L 382.05 236.13 M 383.05 69.15 L 383.05 237.73 M 384.05 97.65 L 384.05 235.2 M 385.05 90.15 L 385.05 237.64 M 386.05 80.88 L 386.05 236.43 M 387.05 99.77 L 387.05 245.39 M 388.05 122.72 L 388.05 247.39 M 389.05 113.04 L 389.05 222.98 M 390.05 80.71 L 390.05 222.76 M 391.05 105.47 L 391.05 232.16 M 392.05 133.1 L 392.05 233.63 M 393.05 132.17 L 393.05 242.83 M 394.05 130.84 L 394.05 236.18 M 395.05 136.52 L 395.05 242.55 M 396.05 139.59 L 396.05 233.25 M 397.05 134.8 L 397.05 243.72 M 398.05 135.24 L 398.05 241.33 M 399.05 150.14 L 399.05 240.47 M 400.05 130.54 L 400.05 239.95 M 401.05 155.61 L 401.05 242.05 M 402.05 158.1 L 402.05 239.63 M 403.05 157.04 L 403.05 245.07 M 404.05 159.44 L 404.05 242.69 M 405.05 156.72 L 405.05 238.72 M 406.05 164.71 L 406.05 242.68 M 407.05 165.87 L 407.05 237.9 M 408.05 159.3 L 408.05 242.23 M 409.05 164.64 L 409.05 245.51 M 410.05 166.02 L 410.05 245.32 M 411.05 167.28 L 411.05 246.48 M 412.05 165.21 L 412.05 242.69 M 413.05 163.73 L 413.05 243.17 M 414.05 167.9 L 414.05 244.42 M 415.05 160.51 L 415.05 252.41 M 416.05 176.07 L 416.05 248.98 M 417.05 172.49 L 417.05 248.97 M 418.05 157.36 L 418.05 248.94 M 419.05 148.57 L 419.05 249.06 M 420.05 174.17 L 420.05 250.85 M 421.05 180.8 L 421.05 248.82 M 422.05 177.16 L 422.05 244.66 M 423.05 182.46 L 423.05 249.27 M 424.05 179.53 L 424.05 247.47 M 425.05 172.34 L 425.05 243.26 M 426.05 184.17 L 426.05 244.09 M 427.05 179.42 L 427.05 259.91 M 428.05 183.97 L 428.05 253.54 M 429.05 187.58 L 429.05 248.76 M 430.05 174.72 L 430.05 256.82 M 431.05 164.43 L 431.05 248.82 M 432.05 182.09 L 432.05 257.96 M 433.05 174.38 L 433.05 254.4 M 434.05 175.64 L 434.05 249.89 M 435.05 173.74 L 435.05 243.53 M 436.05 185.23 L 436.05 247.22 M 437.05 181.45 L 437.05 242.58 M 438.05 184.35 L 438.05 253.56 M 439.05 177.11 L 439.05 253.16 M 440.05 178.39 L 440.05 240.89 M 441.05 176.43 L 441.05 249.24 M 442.05 185.68 L 442.05 245.65 M 443.06 194.62 L 443.06 253.54 M 444.06 175.35 L 444.06 246.58 M 445.06 177.95 L 445.06 246.29 M 446.06 182.08 L 446.06 246.64 M 447.06 179.1 L 447.06 249.1 M 448.06 187.12 L 448.06 242.56 M 449.06 179.75 L 449.06 243.84 M 450.06 193.31 L 450.06 244.2 M 451.06 183.61 L 451.06 245.78 M 452.06 189.05 L 452.06 242.91 M 453.06 174.51 L 453.06 245.18 M 454.06 172.39 L 454.06 247.28 M 455.06 185.27 L 455.06 240.66 M 456.06 164.56 L 456.06 239.81 M 457.06 185.15 L 457.06 243.51 M 458.06 185.62 L 458.06 247.59 M 459.06 177.94 L 459.06 237.76 M 460.06 194.39 L 460.06 244.21 M 461.06 189.1 L 461.06 259.59 M 462.06 184.45 L 462.06 241.85 M 463.06 174.18 L 463.06 240.91 M 464.06 186.21 L 464.06 239.72 M 465.06 188.26 L 465.06 243.53 M 466.06 188.91 L 466.06 241.73 M 467.06 181.62 L 467.06 243.26 M 468.06 189.69 L 468.06 243.69 M 469.06 189.74 L 469.06 247.2 M 470.06 191.45 L 470.06 248.81 M 471.06 184.58 L 471.06 240.77 M 472.06 189.44 L 472.06 243.12 M 473.06 178.05 L 473.06 256.96 M 474.06 187.85 L 474.06 252.62 M 475.06 185.6 L 475.06 251.09 M 476.06 193.07 L 476.06 252.17 M 477.06 199.17 L 477.06 251.69 M 478.06 182.64 L 478.06 258.15 M 479.06 197.28 L 479.06 254.36 M 480.06 176.97 L 480.06 254.73 M 481.06 193.4 L 481.06 252.35 M 482.06 195.73 L 482.06 248.19 M 483.06 196.14 L 483.06 251.88 M 484.06 195.43 L 484.06 248.12 M 485.06 180.86 L 485.06 249.7 M 486.06 195.06 L 486.06 248.85 M 487.06 196.84 L 487.06 260.26 M 488.06 186.11 L 488.06 242.36 M 489.06 191.93 L 489.06 256.13 M 490.06 190.76 L 490.06 244.96 M 491.06 196.2 L 491.06 244.65 M 492.06 189.6 L 492.06 252.92 M 493.06 178.2 L 493.06 251.61 M 494.06 187.95 L 494.06 246.85 M 495.06 193.32 L 495.06 252.47 M 496.06 196.82 L 496.06 253.62 M 497.06 183.03 L 497.06 259.46 M 498.06 193.47 L 498.06 250.8 M 499.06 199.02 L 499.06 247.12 M 500.06 181.07 L 500.06 247.15 M 501.06 191.01 L 501.06 254.13 M 502.06 188.86 L 502.06 242.78 M 503.06 194.79 L 503.06 250.5 M 504.06 184.41 L 504.06 250.61 M 505.06 197.86 L 505.06 254.03 M 506.06 181.58 L 506.06 252.39 M 507.06 184.48 L 507.06 242.84 M 508.06 190.87 L 508.06 252.68 M 509.06 185.06 L 509.06 248.55 M 510.06 187.82 L 510.06 250.75 M 511.06 193.77 L 511.06 242.57 M 512.06 179.08 L 512.06 247.56 M 513.07 188.69 L 513.07 252.23 M 514.07 175.22 L 514.07 247.07 M 515.07 183.67 L 515.07 248.24 M 516.07 194.39 L 516.07 255.34 M 517.07 193.39 L 517.07 245.09 M 518.07 190.12 L 518.07 251.5 M 519.07 179.23 L 519.07 259.48 M 520.07 186.29 L 520.07 266.66 M 521.07 179.41 L 521.07 244.63 M 522.07 185.5 L 522.07 254.08 M 523.07 195.17 L 523.07 252.55 M 524.07 193.83 L 524.07 252.05 M 525.07 187.06 L 525.07 272.76 M 526.07 194.72 L 526.07 252.25 M 527.07 185.86 L 527.07 251.71 M 528.07 192.19 L 528.07 247.33 M 529.07 193.13 L 529.07 243.85 M 530.07 200.36 L 530.07 246.63 M 531.07 184.96 L 531.07 247.01 M 532.07 188.61 L 532.07 252.32 M 533.07 193.86 L 533.07 254.17 M 534.07 198.63 L 534.07 248.57 M 535.07 190.56 L 535.07 254.72 M 536.07 199.32 L 536.07 249.35 M 537.07 176.15 L 537.07 244.12 M 538.07 196.54 L 538.07 252.74 M 539.07 198.81 L 539.07 249.61 M 540.07 195.46 L 540.07 250.66 M 541.07 182.55 L 541.07 253.79 M 542.07 196.34 L 542.07 251.63 M 543.07 201.86 L 543.07 244.64 M 544.07 199.73 L 544.07 250.63 M 545.07 185.33 L 545.07 250.47 M 546.07 204.85 L 546.07 252.73 M 547.07 193.74 L 547.07 248.76 M 548.07 201.16 L 548.07 250.66 M 549.07 198.55 L 549.07 251.39 M 550.07 196.91 L 550.07 257.72 M 551.07 173.78 L 551.07 248.3 M 552.07 159.25 L 552.07 231.49 M 553.07 175.82 L 553.07 240.78 M 554.07 186.72 L 554.07 239.1 M 555.07 190.44 L 555.07 243.09 M 556.07 188.42 L 556.07 245.83 M 557.07 194.94 L 557.07 236.94 M 558.07 177.13 L 558.07 253.36 M 559.07 195.61 L 559.07 227.36 M 560.07 197.32 L 560.07 232.28 M 561.07 196.6 L 561.07 226.86 M 562.07 193.12 L 562.07 249.94 M 563.07 199.41 L 563.07 257.4 M 564.07 192.3 L 564.07 262.2 M 565.07 185.11 L 565.07 268.27 M 566.07 184.08 L 566.07 248.17 M 567.07 181.69 L 567.07 248.59 M 568.07 179.96 L 568.07 261.46 M 569.07 166.12 L 569.07 252.51 M 570.07 178.46 L 570.07 234.61 M 571.07 178.75 L 571.07 233.51 M 572.07 175.38 L 572.07 229.79 M 573.07 175.94 L 573.07 245.83 M 574.07 172.21 L 574.07 230.78 M 575.07 175.44 L 575.07 246.32 M 576.07 180.28 L 576.07 244.62 M 577.07 186.53 L 577.07 257.1 M 578.07 162.66 L 578.07 252.04 M 579.07 182.12 L 579.07 255.42 M 580.07 176.86 L 580.07 248.39 M 581.07 175.58 L 581.07 251.08 M 582.07 179.23 L 582.07 248.24 M 583.08 176.37 L 583.08 258.14 M 584.08 173.54 L 584.08 260.37 M 585.08 167.23 L 585.08 282.28 M 586.08 181.14 L 586.08 267.17 M 587.08 130.6 L 587.08 228.51 M 588.08 160.18 L 588.08 208.84 M 589.08 155.91 L 589.08 230.06 M 590.08 152.97 L 590.08 233.36 M 591.08 154.25 L 591.08 235.93 M 592.08 152.45 L 592.08 237.16 M 593.08 149.8 L 593.08 237.68 M 594.08 154.37 L 594.08 234.28 M 595.08 148.42 L 595.08 239.48 M 596.08 149.28 L 596.08 237.06 M 597.08 162.5 L 597.08 235.35 M 598.08 155.79 L 598.08 237.87 M 599.08 162.3 L 599.08 238.69 M 600.08 154.76 L 600.08 235.34 M 601.08 147.49 L 601.08 236.79 M 602.08 158.84 L 602.08 238.23 M 603.08 158.66 L 603.08 241.57 M 604.08 171.46 L 604.08 242.05 M 605.08 169.32 L 605.08 243.83 M 606.08 168.2 L 606.08 243.95 M 607.08 162.29 L 607.08 247.41"/></g><g style="stroke-width: 1.0;stroke: rgb(255,85,85);stroke-opacity: 1.0;stroke-linecap: square;stroke-linejoin: bevel;shape-rendering:geometricPrecision;; fill: none" clip-path="url(#_427167612482500clip-2)"><path d="M 59 203.87 L 60 138.01 L 61 135.89 L 62 132.7 L 63 130.58 L 64 139.08 L 65 140.14 L 66 135.89 L 67 138.01 L 68 139.08 L 69 131.64 L 70 138.01 L 71 138.01 L 72 130.58 L 73 136.95 L 74 131.64 L 75 132.7 L 76 132.7 L 77 135.89 L 78 133.76 L 79 132.7 L 80 134.83 L 81 134.83 L 82 136.95 L 83 133.76 L 84 141.2 L 85 140.14 L 86 139.08 L 87 139.08 L 88 140.14 L 89 141.2 L 90 140.14 L 91 142.26 L 92 136.95 L 93 140.14 L 94.01 139.08 L 95.01 138.01 L 96.01 135.89 L 97.01 136.95 L 98.01 140.14 L 99.01 140.14 L 100.01 142.26 L 101.01 138.01 L 102.01 141.2 L 103.01 139.08 L 104.01 140.14 L 105.01 133.76 L 106.01 141.2 L 107.01 139.08 L 108.01 138.01 L 109.01 138.01 L 110.01 143.32 L 111.01 141.2 L 112.01 144.39 L 113.01 139.08 L 114.01 143.32 L 115.01 145.45 L 116.01 140.14 L 117.01 145.45 L 118.01 144.39 L 119.01 135.89 L 120.01 138.01 L 121.01 133.76 L 122.01 144.39 L 123.01 143.32 L 124.01 132.7 L 125.01 144.39 L 126.01 147.57 L 127.01 141.2 L 128.01 148.64 L 129.01 144.39 L 130.01 144.39 L 131.01 145.45 L 132.01 139.08 L 133.01 140.14 L 134.01 144.39 L 135.01 146.51 L 136.01 146.51 L 137.01 149.7 L 138.01 147.57 L 139.01 146.51 L 140.01 148.64 L 141.01 140.14 L 142.01 145.45 L 143.01 143.32 L 144.01 142.26 L 145.01 144.39 L 146.01 147.57 L 147.01 149.7 L 148.01 147.57 L 149.01 150.76 L 150.01 145.45 L 151.01 145.45 L 152.01 148.64 L 153.01 143.32 L 154.01 150.76 L 155.01 155.01 L 156.01 147.57 L 157.01 148.64 L 158.01 147.57 L 159.01 149.7 L 160.01 145.45 L 161.01 151.82 L 162.01 148.64 L 163.01 157.13 L 164.02 148.64 L 165.02 149.7 L 166.02 148.64 L 167.02 143.32 L 168.02 146.51 L 169.02 150.76 L 170.02 143.32 L 171.02 150.76 L 172.02 152.88 L 173.02 146.51 L 174.02 143.32 L 175.02 149.7 L 176.02 141.2 L 177.02 145.45 L 178.02 146.51 L 179.02 148.64 L 180.02 142.26 L 181.02 145.45 L 182.02 146.51 L 183.02 142.26 L 184.02 145.45 L 185.02 133.76 L 186.02 147.57 L 187.02 143.32 L 188.02 142.26 L 189.02 140.14 L 190.02 149.7 L 191.02 150.76 L 192.02 142.26 L 193.02 136.95 L 194.02 149.7 L 195.02 146.51 L 196.02 155.01 L 197.02 149.7 L 198.02 144.39 L 199.02 147.57 L 200.02 147.57 L 201.02 146.51 L 202.02 149.7 L 203.02 133.76 L 204.02 139.08 L 205.02 150.76 L 206.02 149.7 L 207.02 138.01 L 208.02 143.32 L 209.02 143.32 L 210.02 141.2 L 211.02 157.13 L 212.02 141.2 L 213.02 145.45 L 214.02 158.19 L 215.02 148.64 L 216.02 142.26 L 217.02 158.19 L 218.02 139.08 L 219.02 140.14 L 220.02 143.32 L 221.02 144.39 L 222.02 147.57 L 223.02 143.32 L 224.02 150.76 L 225.02 145.45 L 226.02 141.2 L 227.02 152.88 L 228.02 145.45 L 229.02 158.19 L 230.02 146.51 L 231.02 146.51 L 232.02 140.14 L 233.02 142.26 L 234.03 145.45 L 235.03 145.45 L 236.03 156.07 L 237.03 148.64 L 238.03 150.76 L 239.03 156.07 L 240.03 136.95 L 241.03 142.26 L 242.03 151.82 L 243.03 148.64 L 244.03 161.38 L 245.03 149.7 L 246.03 156.07 L 247.03 148.64 L 248.03 145.45 L 249.03 161.38 L 250.03 146.51 L 251.03 140.14 L 252.03 140.14 L 253.03 153.95 L 254.03 145.45 L 255.03 150.76 L 256.03 143.32 L 257.03 140.14 L 258.03 144.39 L 259.03 148.64 L 260.03 138.01 L 261.03 146.51 L 262.03 145.45 L 263.03 152.88 L 264.03 157.13 L 265.03 146.51 L 266.03 142.26 L 267.03 144.39 L 268.03 144.39 L 269.03 141.2 L 270.03 157.13 L 271.03 152.88 L 272.03 138.01 L 273.03 148.64 L 274.03 144.39 L 275.03 148.64 L 276.03 141.2 L 277.03 135.89 L 278.03 144.39 L 279.03 139.08 L 280.03 155.01 L 281.03 145.45 L 282.03 143.32 L 283.03 152.88 L 284.03 141.2 L 285.03 142.26 L 286.03 152.88 L 287.03 141.2 L 288.03 152.88 L 289.03 152.88 L 290.03 140.14 L 291.03 161.38 L 292.03 139.08 L 293.03 144.39 L 294.03 139.08 L 295.03 132.7 L 296.03 142.26 L 297.03 136.95 L 298.03 152.88 L 299.03 141.2 L 300.03 158.19 L 301.03 153.95 L 302.03 151.82 L 303.03 155.01 L 304.04 142.26 L 305.04 164.57 L 306.04 152.88 L 307.04 146.51 L 308.04 157.13 L 309.04 143.32 L 310.04 148.64 L 311.04 152.88 L 312.04 143.32 L 313.04 143.32 L 314.04 147.57 L 315.04 141.2 L 316.04 136.95 L 317.04 149.7 L 318.04 146.51 L 319.04 145.45 L 320.04 141.2 L 321.04 156.07 L 322.04 142.26 L 323.04 143.32 L 324.04 143.32 L 325.04 149.7 L 326.04 143.32 L 327.04 140.14 L 328.04 145.45 L 329.04 144.39 L 330.04 145.45 L 331.04 155.01 L 332.04 139.08 L 333.04 151.82 L 334.04 143.32 L 335.04 141.2 L 336.04 140.14 L 337.04 142.26 L 338.04 143.32 L 339.04 163.51 L 340.04 148.64 L 341.04 136.95 L 342.04 136.95 L 343.04 135.89 L 344.04 152.88 L 345.04 138.01 L 346.04 138.01 L 347.04 139.08 L 348.04 141.2 L 349.04 150.76 L 350.04 141.2 L 351.04 146.51 L 352.04 136.95 L 353.04 145.45 L 354.04 139.08 L 355.04 147.57 L 356.04 150.76 L 357.04 139.08 L 358.04 165.63 L 359.04 142.26 L 360.04 136.95 L 361.04 151.82 L 362.04 145.45 L 363.04 148.64 L 364.04 138.01 L 365.04 147.57 L 366.04 136.95 L 367.04 152.88 L 368.04 141.2 L 369.04 138.01 L 370.04 152.88 L 371.04 139.08 L 372.04 142.26 L 373.05 143.32 L 374.05 170.94 L 375.05 143.32 L 376.05 140.14 L 377.05 156.07 L 378.05 159.26 L 379.05 144.39 L 380.05 139.08 L 381.05 128.45 L 382.05 131.64 L 383.05 127.39 L 384.05 131.64 L 385.05 125.27 L 386.05 136.95 L 387.05 128.45 L 388.05 136.95 L 389.05 131.64 L 390.05 134.83 L 391.05 138.01 L 392.05 131.64 L 393.05 132.7 L 394.05 138.01 L 395.05 135.89 L 396.05 132.7 L 397.05 133.76 L 398.05 135.89 L 399.05 135.89 L 400.05 129.52 L 401.05 131.64 L 402.05 132.7 L 403.05 126.33 L 404.05 130.58 L 405.05 130.58 L 406.05 138.01 L 407.05 131.64 L 408.05 134.83 L 409.05 135.89 L 410.05 132.7 L 411.05 132.7 L 412.05 139.08 L 413.05 142.26 L 414.05 133.76 L 415.05 132.7 L 416.05 149.7 L 417.05 133.76 L 418.05 144.39 L 419.05 142.26 L 420.05 143.32 L 421.05 146.51 L 422.05 146.51 L 423.05 145.45 L 424.05 141.2 L 425.05 157.13 L 426.05 143.32 L 427.05 143.32 L 428.05 147.57 L 429.05 139.08 L 430.05 144.39 L 431.05 142.26 L 432.05 141.2 L 433.05 149.7 L 434.05 140.14 L 435.05 145.45 L 436.05 149.7 L 437.05 149.7 L 438.05 147.57 L 439.05 153.95 L 440.05 147.57 L 441.05 151.82 L 442.05 145.45 L 443.06 152.88 L 444.06 142.26 L 445.06 141.2 L 446.06 142.26 L 447.06 145.45 L 448.06 150.76 L 449.06 142.26 L 450.06 148.64 L 451.06 153.95 L 452.06 146.51 L 453.06 153.95 L 454.06 151.82 L 455.06 144.39 L 456.06 143.32 L 457.06 147.57 L 458.06 146.51 L 459.06 147.57 L 460.06 147.57 L 461.06 145.45 L 462.06 146.51 L 463.06 150.76 L 464.06 145.45 L 465.06 153.95 L 466.06 151.82 L 467.06 148.64 L 468.06 156.07 L 469.06 150.76 L 470.06 139.08 L 471.06 150.76 L 472.06 147.57 L 473.06 151.82 L 474.06 148.64 L 475.06 151.82 L 476.06 150.76 L 477.06 148.64 L 478.06 151.82 L 479.06 146.51 L 480.06 151.82 L 481.06 157.13 L 482.06 149.7 L 483.06 146.51 L 484.06 152.88 L 485.06 150.76 L 486.06 159.26 L 487.06 149.7 L 488.06 149.7 L 489.06 149.7 L 490.06 155.01 L 491.06 150.76 L 492.06 156.07 L 493.06 151.82 L 494.06 158.19 L 495.06 149.7 L 496.06 147.57 L 497.06 145.45 L 498.06 149.7 L 499.06 152.88 L 500.06 149.7 L 501.06 156.07 L 502.06 149.7 L 503.06 149.7 L 504.06 149.7 L 505.06 163.51 L 506.06 152.88 L 507.06 155.01 L 508.06 155.01 L 509.06 153.95 L 510.06 155.01 L 511.06 156.07 L 512.06 157.13 L 513.07 151.82 L 514.07 145.45 L 515.07 146.51 L 516.07 157.13 L 517.07 157.13 L 518.07 158.19 L 519.07 153.95 L 520.07 159.26 L 521.07 156.07 L 522.07 149.7 L 523.07 161.38 L 524.07 159.26 L 525.07 151.82 L 526.07 147.57 L 527.07 160.32 L 528.07 148.64 L 529.07 144.39 L 530.07 148.64 L 531.07 155.01 L 532.07 152.88 L 533.07 159.26 L 534.07 152.88 L 535.07 156.07 L 536.07 143.32 L 537.07 162.44 L 538.07 162.44 L 539.07 151.82 L 540.07 149.7 L 541.07 156.07 L 542.07 161.38 L 543.07 152.88 L 544.07 152.88 L 545.07 159.26 L 546.07 152.88 L 547.07 149.7 L 548.07 158.19 L 549.07 161.38 L 550.07 156.07 L 551.07 158.19 L 552.07 149.7 L 553.07 152.88 L 554.07 159.26 L 555.07 156.07 L 556.07 153.95 L 557.07 153.95 L 558.07 151.82 L 559.07 146.51 L 560.07 157.13 L 561.07 152.88 L 562.07 160.32 L 563.07 156.07 L 564.07 163.51 L 565.07 147.57 L 566.07 148.64 L 567.07 145.45 L 568.07 152.88 L 569.07 152.88 L 570.07 147.57 L 571.07 153.95 L 572.07 149.7 L 573.07 151.82 L 574.07 146.51 L 575.07 151.82 L 576.07 148.64 L 577.07 151.82 L 578.07 163.51 L 579.07 157.13 L 580.07 155.01 L 581.07 146.51 L 582.07 148.64 L 583.08 163.51 L 584.08 157.13 L 585.08 159.26 L 586.08 148.64 L 587.08 135.89 L 588.08 139.08 L 589.08 141.2 L 590.08 140.14 L 591.08 134.83 L 592.08 135.89 L 593.08 138.01 L 594.08 141.2 L 595.08 142.26 L 596.08 141.2 L 597.08 136.95 L 598.08 142.26 L 599.08 144.39 L 600.08 141.2 L 601.08 139.08 L 602.08 142.26 L 603.08 148.64 L 604.08 145.45 L 605.08 142.26 L 606.08 146.51 L 607.08 147.57 L 608.08 145.45"/></g><g style="stroke-width: 1.0;stroke: rgb(255,85,85);stroke-opacity: 1.0;stroke-linecap: square;stroke-linejoin: bevel;shape-rendering:geometricPrecision;; fill: none" clip-path="url(#_427167612482500clip-2)"><path d="M 59 134.83 L 59 203.87 M 60 132.7 L 60 138.01 M 61 131.64 L 61 135.89 M 62 130.58 L 62 135.89 M 63 128.45 L 63 143.32 M 64 131.64 L 64 142.26 M 65 128.45 L 65 143.32 M 66 127.39 L 66 144.39 M 67 130.58 L 67 142.26 M 68 126.33 L 68 142.26 M 69 127.39 L 69 143.32 M 70 128.45 L 70 143.32 M 71 128.45 L 71 142.26 M 72 126.33 L 72 142.26 M 73 128.45 L 73 143.32 M 74 125.27 L 74 144.39 M 75 124.2 L 75 141.2 M 76 124.2 L 76 140.14 M 77 123.14 L 77 140.14 M 78 129.52 L 78 142.26 M 79 129.52 L 79 142.26 M 80 130.58 L 80 141.2 M 81 129.52 L 81 143.32 M 82 130.58 L 82 142.26 M 83 131.64 L 83 142.26 M 84 132.7 L 84 143.32 M 85 134.83 L 85 143.32 M 86 131.64 L 86 144.39 M 87 133.76 L 87 145.45 M 88 133.76 L 88 144.39 M 89 133.76 L 89 144.39 M 90 131.64 L 90 143.32 M 91 130.58 L 91 143.32 M 92 130.58 L 92 143.32 M 93 126.33 L 93 143.32 M 94.01 128.45 L 94.01 147.57 M 95.01 129.52 L 95.01 146.51 M 96.01 129.52 L 96.01 146.51 M 97.01 130.58 L 97.01 146.51 M 98.01 130.58 L 98.01 146.51 M 99.01 127.39 L 99.01 146.51 M 100.01 127.39 L 100.01 149.7 M 101.01 125.27 L 101.01 147.57 M 102.01 128.45 L 102.01 148.64 M 103.01 128.45 L 103.01 146.51 M 104.01 128.45 L 104.01 147.57 M 105.01 127.39 L 105.01 148.64 M 106.01 129.52 L 106.01 148.64 M 107.01 122.08 L 107.01 149.7 M 108.01 127.39 L 108.01 146.51 M 109.01 128.45 L 109.01 147.57 M 110.01 128.45 L 110.01 147.57 M 111.01 125.27 L 111.01 147.57 M 112.01 128.45 L 112.01 146.51 M 113.01 129.52 L 113.01 146.51 M 114.01 127.39 L 114.01 147.57 M 115.01 126.33 L 115.01 148.64 M 116.01 128.45 L 116.01 148.64 M 117.01 131.64 L 117.01 148.64 M 118.01 131.64 L 118.01 152.88 M 119.01 129.52 L 119.01 149.7 M 120.01 129.52 L 120.01 147.57 M 121.01 130.58 L 121.01 148.64 M 122.01 127.39 L 122.01 149.7 M 123.01 131.64 L 123.01 148.64 M 124.01 130.58 L 124.01 150.76 M 125.01 133.76 L 125.01 150.76 M 126.01 134.83 L 126.01 150.76 M 127.01 133.76 L 127.01 149.7 M 128.01 132.7 L 128.01 151.82 M 129.01 133.76 L 129.01 152.88 M 130.01 131.64 L 130.01 150.76 M 131.01 134.83 L 131.01 152.88 M 132.01 138.01 L 132.01 152.88 M 133.01 135.89 L 133.01 153.95 M 134.01 135.89 L 134.01 152.88 M 135.01 134.83 L 135.01 153.95 M 136.01 138.01 L 136.01 152.88 M 137.01 135.89 L 137.01 153.95 M 138.01 133.76 L 138.01 152.88 M 139.01 133.76 L 139.01 152.88 M 140.01 134.83 L 140.01 153.95 M 141.01 138.01 L 141.01 152.88 M 142.01 136.95 L 142.01 153.95 M 143.01 136.95 L 143.01 151.82 M 144.01 138.01 L 144.01 153.95 M 145.01 140.14 L 145.01 153.95 M 146.01 136.95 L 146.01 155.01 M 147.01 140.14 L 147.01 155.01 M 148.01 138.01 L 148.01 155.01 M 149.01 138.01 L 149.01 153.95 M 150.01 141.2 L 150.01 156.07 M 151.01 134.83 L 151.01 156.07 M 152.01 139.08 L 152.01 158.19 M 153.01 130.58 L 153.01 153.95 M 154.01 138.01 L 154.01 156.07 M 155.01 134.83 L 155.01 159.26 M 156.01 140.14 L 156.01 156.07 M 157.01 139.08 L 157.01 156.07 M 158.01 138.01 L 158.01 156.07 M 159.01 133.76 L 159.01 155.01 M 160.01 134.83 L 160.01 153.95 M 161.01 134.83 L 161.01 156.07 M 162.01 139.08 L 162.01 155.01 M 163.01 135.89 L 163.01 157.13 M 164.02 136.95 L 164.02 155.01 M 165.02 135.89 L 165.02 157.13 M 166.02 138.01 L 166.02 155.01 M 167.02 135.89 L 167.02 157.13 M 168.02 139.08 L 168.02 153.95 M 169.02 138.01 L 169.02 157.13 M 170.02 139.08 L 170.02 156.07 M 171.02 129.52 L 171.02 159.26 M 172.02 135.89 L 172.02 158.19 M 173.02 139.08 L 173.02 163.51 M 174.02 134.83 L 174.02 153.95 M 175.02 135.89 L 175.02 156.07 M 176.02 138.01 L 176.02 161.38 M 177.02 139.08 L 177.02 155.01 M 178.02 138.01 L 178.02 156.07 M 179.02 139.08 L 179.02 155.01 M 180.02 138.01 L 180.02 155.01 M 181.02 139.08 L 181.02 156.07 M 182.02 132.7 L 182.02 164.57 M 183.02 134.83 L 183.02 161.38 M 184.02 134.83 L 184.02 168.82 M 185.02 133.76 L 185.02 160.32 M 186.02 135.89 L 186.02 165.63 M 187.02 132.7 L 187.02 164.57 M 188.02 134.83 L 188.02 157.13 M 189.02 133.76 L 189.02 164.57 M 190.02 134.83 L 190.02 165.63 M 191.02 133.76 L 191.02 165.63 M 192.02 132.7 L 192.02 166.69 M 193.02 132.7 L 193.02 168.82 M 194.02 133.76 L 194.02 164.57 M 195.02 134.83 L 195.02 165.63 M 196.02 132.7 L 196.02 166.69 M 197.02 134.83 L 197.02 164.57 M 198.02 134.83 L 198.02 165.63 M 199.02 133.76 L 199.02 170.94 M 200.02 134.83 L 200.02 160.32 M 201.02 135.89 L 201.02 157.13 M 202.02 132.7 L 202.02 161.38 M 203.02 133.76 L 203.02 158.19 M 204.02 134.83 L 204.02 158.19 M 205.02 134.83 L 205.02 157.13 M 206.02 129.52 L 206.02 155.01 M 207.02 132.7 L 207.02 165.63 M 208.02 134.83 L 208.02 165.63 M 209.02 131.64 L 209.02 163.51 M 210.02 132.7 L 210.02 164.57 M 211.02 133.76 L 211.02 161.38 M 212.02 133.76 L 212.02 162.44 M 213.02 134.83 L 213.02 169.88 M 214.02 134.83 L 214.02 165.63 M 215.02 129.52 L 215.02 165.63 M 216.02 134.83 L 216.02 164.57 M 217.02 134.83 L 217.02 166.69 M 218.02 133.76 L 218.02 163.51 M 219.02 134.83 L 219.02 164.57 M 220.02 132.7 L 220.02 169.88 M 221.02 135.89 L 221.02 167.75 M 222.02 136.95 L 222.02 165.63 M 223.02 136.95 L 223.02 167.75 M 224.02 135.89 L 224.02 163.51 M 225.02 133.76 L 225.02 173.07 M 226.02 133.76 L 226.02 161.38 M 227.02 135.89 L 227.02 165.63 M 228.02 134.83 L 228.02 164.57 M 229.02 135.89 L 229.02 169.88 M 230.02 133.76 L 230.02 169.88 M 231.02 135.89 L 231.02 167.75 M 232.02 133.76 L 232.02 173.07 M 233.02 132.7 L 233.02 165.63 M 234.03 134.83 L 234.03 169.88 M 235.03 134.83 L 235.03 168.82 M 236.03 135.89 L 236.03 166.69 M 237.03 136.95 L 237.03 167.75 M 238.03 131.64 L 238.03 172 M 239.03 138.01 L 239.03 166.69 M 240.03 134.83 L 240.03 166.69 M 241.03 128.45 L 241.03 163.51 M 242.03 132.7 L 242.03 169.88 M 243.03 131.64 L 243.03 165.63 M 244.03 134.83 L 244.03 166.69 M 245.03 135.89 L 245.03 173.07 M 246.03 134.83 L 246.03 174.13 M 247.03 135.89 L 247.03 168.82 M 248.03 133.76 L 248.03 172 M 249.03 134.83 L 249.03 169.88 M 250.03 134.83 L 250.03 162.44 M 251.03 133.76 L 251.03 167.75 M 252.03 134.83 L 252.03 166.69 M 253.03 133.76 L 253.03 161.38 M 254.03 127.39 L 254.03 159.26 M 255.03 134.83 L 255.03 160.32 M 256.03 135.89 L 256.03 161.38 M 257.03 134.83 L 257.03 167.75 M 258.03 132.7 L 258.03 163.51 M 259.03 134.83 L 259.03 161.38 M 260.03 134.83 L 260.03 162.44 M 261.03 130.58 L 261.03 162.44 M 262.03 133.76 L 262.03 164.57 M 263.03 134.83 L 263.03 167.75 M 264.03 134.83 L 264.03 164.57 M 265.03 132.7 L 265.03 167.75 M 266.03 133.76 L 266.03 169.88 M 267.03 134.83 L 267.03 162.44 M 268.03 133.76 L 268.03 165.63 M 269.03 133.76 L 269.03 164.57 M 270.03 132.7 L 270.03 162.44 M 271.03 127.39 L 271.03 167.75 M 272.03 130.58 L 272.03 164.57 M 273.03 134.83 L 273.03 161.38 M 274.03 133.76 L 274.03 167.75 M 275.03 133.76 L 275.03 167.75 M 276.03 129.52 L 276.03 164.57 M 277.03 131.64 L 277.03 164.57 M 278.03 132.7 L 278.03 162.44 M 279.03 132.7 L 279.03 165.63 M 280.03 132.7 L 280.03 163.51 M 281.03 130.58 L 281.03 160.32 M 282.03 128.45 L 282.03 166.69 M 283.03 132.7 L 283.03 164.57 M 284.03 129.52 L 284.03 167.75 M 285.03 132.7 L 285.03 162.44 M 286.03 132.7 L 286.03 163.51 M 287.03 132.7 L 287.03 168.82 M 288.03 133.76 L 288.03 160.32 M 289.03 130.58 L 289.03 165.63 M 290.03 128.45 L 290.03 165.63 M 291.03 130.58 L 291.03 172 M 292.03 133.76 L 292.03 163.51 M 293.03 131.64 L 293.03 166.69 M 294.03 132.7 L 294.03 165.63 M 295.03 132.7 L 295.03 162.44 M 296.03 133.76 L 296.03 166.69 M 297.03 134.83 L 297.03 165.63 M 298.03 131.64 L 298.03 163.51 M 299.03 128.45 L 299.03 166.69 M 300.03 138.01 L 300.03 168.82 M 301.03 136.95 L 301.03 170.94 M 302.03 136.95 L 302.03 170.94 M 303.03 131.64 L 303.03 168.82 M 304.04 132.7 L 304.04 169.88 M 305.04 132.7 L 305.04 166.69 M 306.04 134.83 L 306.04 168.82 M 307.04 134.83 L 307.04 170.94 M 308.04 131.64 L 308.04 170.94 M 309.04 130.58 L 309.04 170.94 M 310.04 134.83 L 310.04 173.07 M 311.04 133.76 L 311.04 176.25 M 312.04 130.58 L 312.04 161.38 M 313.04 132.7 L 313.04 165.63 M 314.04 133.76 L 314.04 166.69 M 315.04 132.7 L 315.04 165.63 M 316.04 132.7 L 316.04 172 M 317.04 135.89 L 317.04 174.13 M 318.04 129.52 L 318.04 168.82 M 319.04 130.58 L 319.04 166.69 M 320.04 127.39 L 320.04 168.82 M 321.04 129.52 L 321.04 167.75 M 322.04 132.7 L 322.04 165.63 M 323.04 132.7 L 323.04 174.13 M 324.04 135.89 L 324.04 169.88 M 325.04 131.64 L 325.04 167.75 M 326.04 132.7 L 326.04 170.94 M 327.04 131.64 L 327.04 170.94 M 328.04 128.45 L 328.04 162.44 M 329.04 126.33 L 329.04 161.38 M 330.04 129.52 L 330.04 161.38 M 331.04 127.39 L 331.04 164.57 M 332.04 131.64 L 332.04 167.75 M 333.04 131.64 L 333.04 164.57 M 334.04 129.52 L 334.04 166.69 M 335.04 128.45 L 335.04 161.38 M 336.04 132.7 L 336.04 160.32 M 337.04 132.7 L 337.04 167.75 M 338.04 125.27 L 338.04 173.07 M 339.04 129.52 L 339.04 166.69 M 340.04 128.45 L 340.04 164.57 M 341.04 130.58 L 341.04 165.63 M 342.04 133.76 L 342.04 180.5 M 343.04 126.33 L 343.04 161.38 M 344.04 124.2 L 344.04 169.88 M 345.04 125.27 L 345.04 157.13 M 346.04 126.33 L 346.04 162.44 M 347.04 126.33 L 347.04 160.32 M 348.04 128.45 L 348.04 172 M 349.04 132.7 L 349.04 168.82 M 350.04 126.33 L 350.04 173.07 M 351.04 131.64 L 351.04 168.82 M 352.04 127.39 L 352.04 159.26 M 353.04 125.27 L 353.04 160.32 M 354.04 129.52 L 354.04 157.13 M 355.04 131.64 L 355.04 165.63 M 356.04 127.39 L 356.04 167.75 M 357.04 130.58 L 357.04 161.38 M 358.04 133.76 L 358.04 165.63 M 359.04 128.45 L 359.04 169.88 M 360.04 129.52 L 360.04 166.69 M 361.04 129.52 L 361.04 162.44 M 362.04 132.7 L 362.04 167.75 M 363.04 131.64 L 363.04 166.69 M 364.04 129.52 L 364.04 166.69 M 365.04 127.39 L 365.04 157.13 M 366.04 128.45 L 366.04 166.69 M 367.04 130.58 L 367.04 163.51 M 368.04 123.14 L 368.04 160.32 M 369.04 133.76 L 369.04 165.63 M 370.04 128.45 L 370.04 163.51 M 371.04 132.7 L 371.04 168.82 M 372.04 135.89 L 372.04 164.57 M 373.05 134.83 L 373.05 167.75 M 374.05 128.45 L 374.05 170.94 M 375.05 131.64 L 375.05 168.82 M 376.05 123.14 L 376.05 161.38 M 377.05 129.52 L 377.05 165.63 M 378.05 129.52 L 378.05 166.69 M 379.05 129.52 L 379.05 163.51 M 380.05 123.14 L 380.05 155.01 M 381.05 121.02 L 381.05 136.95 M 382.05 125.27 L 382.05 138.01 M 383.05 123.14 L 383.05 140.14 M 384.05 123.14 L 384.05 140.14 M 385.05 123.14 L 385.05 139.08 M 386.05 123.14 L 386.05 139.08 M 387.05 123.14 L 387.05 143.32 M 388.05 124.2 L 388.05 141.2 M 389.05 126.33 L 389.05 143.32 M 390.05 121.02 L 390.05 143.32 M 391.05 125.27 L 391.05 143.32 M 392.05 126.33 L 392.05 143.32 M 393.05 125.27 L 393.05 142.26 M 394.05 126.33 L 394.05 140.14 M 395.05 125.27 L 395.05 141.2 M 396.05 123.14 L 396.05 143.32 M 397.05 124.2 L 397.05 142.26 M 398.05 126.33 L 398.05 140.14 M 399.05 125.27 L 399.05 140.14 M 400.05 126.33 L 400.05 141.2 M 401.05 123.14 L 401.05 140.14 M 402.05 124.2 L 402.05 140.14 M 403.05 126.33 L 403.05 142.26 M 404.05 125.27 L 404.05 145.45 M 405.05 126.33 L 405.05 143.32 M 406.05 125.27 L 406.05 149.7 M 407.05 127.39 L 407.05 146.51 M 408.05 127.39 L 408.05 143.32 M 409.05 127.39 L 409.05 143.32 M 410.05 128.45 L 410.05 145.45 M 411.05 128.45 L 411.05 143.32 M 412.05 128.45 L 412.05 146.51 M 413.05 127.39 L 413.05 146.51 M 414.05 130.58 L 414.05 147.57 M 415.05 128.45 L 415.05 152.88 M 416.05 129.52 L 416.05 149.7 M 417.05 129.52 L 417.05 149.7 M 418.05 129.52 L 418.05 148.64 M 419.05 128.45 L 419.05 152.88 M 420.05 131.64 L 420.05 148.64 M 421.05 130.58 L 421.05 152.88 M 422.05 131.64 L 422.05 151.82 M 423.05 133.76 L 423.05 153.95 M 424.05 131.64 L 424.05 152.88 M 425.05 133.76 L 425.05 157.13 M 426.05 132.7 L 426.05 158.19 M 427.05 134.83 L 427.05 159.26 M 428.05 134.83 L 428.05 152.88 M 429.05 131.64 L 429.05 159.26 M 430.05 133.76 L 430.05 155.01 M 431.05 132.7 L 431.05 157.13 M 432.05 135.89 L 432.05 159.26 M 433.05 133.76 L 433.05 155.01 M 434.05 136.95 L 434.05 157.13 M 435.05 134.83 L 435.05 156.07 M 436.05 136.95 L 436.05 160.32 M 437.05 135.89 L 437.05 158.19 M 438.05 134.83 L 438.05 159.26 M 439.05 131.64 L 439.05 155.01 M 440.05 136.95 L 440.05 159.26 M 441.05 135.89 L 441.05 158.19 M 442.05 133.76 L 442.05 159.26 M 443.06 135.89 L 443.06 160.32 M 444.06 138.01 L 444.06 158.19 M 445.06 133.76 L 445.06 158.19 M 446.06 134.83 L 446.06 158.19 M 447.06 138.01 L 447.06 163.51 M 448.06 139.08 L 448.06 158.19 M 449.06 131.64 L 449.06 160.32 M 450.06 138.01 L 450.06 158.19 M 451.06 139.08 L 451.06 158.19 M 452.06 139.08 L 452.06 159.26 M 453.06 136.95 L 453.06 160.32 M 454.06 138.01 L 454.06 162.44 M 455.06 139.08 L 455.06 161.38 M 456.06 136.95 L 456.06 160.32 M 457.06 136.95 L 457.06 168.82 M 458.06 138.01 L 458.06 160.32 M 459.06 138.01 L 459.06 162.44 M 460.06 139.08 L 460.06 161.38 M 461.06 139.08 L 461.06 166.69 M 462.06 138.01 L 462.06 166.69 M 463.06 140.14 L 463.06 162.44 M 464.06 141.2 L 464.06 159.26 M 465.06 141.2 L 465.06 160.32 M 466.06 140.14 L 466.06 160.32 M 467.06 139.08 L 467.06 168.82 M 468.06 141.2 L 468.06 161.38 M 469.06 131.64 L 469.06 165.63 M 470.06 139.08 L 470.06 163.51 M 471.06 139.08 L 471.06 159.26 M 472.06 139.08 L 472.06 167.75 M 473.06 135.89 L 473.06 172 M 474.06 141.2 L 474.06 161.38 M 475.06 142.26 L 475.06 159.26 M 476.06 142.26 L 476.06 161.38 M 477.06 136.95 L 477.06 160.32 M 478.06 140.14 L 478.06 168.82 M 479.06 141.2 L 479.06 163.51 M 480.06 138.01 L 480.06 162.44 M 481.06 140.14 L 481.06 166.69 M 482.06 140.14 L 482.06 161.38 M 483.06 143.32 L 483.06 160.32 M 484.06 140.14 L 484.06 164.57 M 485.06 142.26 L 485.06 163.51 M 486.06 141.2 L 486.06 172 M 487.06 141.2 L 487.06 166.69 M 488.06 142.26 L 488.06 164.57 M 489.06 141.2 L 489.06 163.51 M 490.06 141.2 L 490.06 176.25 M 491.06 141.2 L 491.06 163.51 M 492.06 142.26 L 492.06 164.57 M 493.06 140.14 L 493.06 178.38 M 494.06 140.14 L 494.06 165.63 M 495.06 142.26 L 495.06 166.69 M 496.06 140.14 L 496.06 169.88 M 497.06 142.26 L 497.06 167.75 M 498.06 142.26 L 498.06 167.75 M 499.06 143.32 L 499.06 166.69 M 500.06 142.26 L 500.06 166.69 M 501.06 140.14 L 501.06 164.57 M 502.06 140.14 L 502.06 168.82 M 503.06 142.26 L 503.06 167.75 M 504.06 142.26 L 504.06 169.88 M 505.06 140.14 L 505.06 172 M 506.06 141.2 L 506.06 164.57 M 507.06 140.14 L 507.06 165.63 M 508.06 141.2 L 508.06 166.69 M 509.06 141.2 L 509.06 169.88 M 510.06 142.26 L 510.06 167.75 M 511.06 143.32 L 511.06 168.82 M 512.06 143.32 L 512.06 167.75 M 513.07 143.32 L 513.07 164.57 M 514.07 142.26 L 514.07 166.69 M 515.07 141.2 L 515.07 163.51 M 516.07 142.26 L 516.07 172 M 517.07 141.2 L 517.07 173.07 M 518.07 140.14 L 518.07 169.88 M 519.07 141.2 L 519.07 178.38 M 520.07 143.32 L 520.07 184.75 M 521.07 142.26 L 521.07 169.88 M 522.07 142.26 L 522.07 169.88 M 523.07 134.83 L 523.07 174.13 M 524.07 142.26 L 524.07 180.5 M 525.07 143.32 L 525.07 190.06 M 526.07 139.08 L 526.07 170.94 M 527.07 140.14 L 527.07 170.94 M 528.07 142.26 L 528.07 167.75 M 529.07 142.26 L 529.07 166.69 M 530.07 145.45 L 530.07 169.88 M 531.07 141.2 L 531.07 177.31 M 532.07 142.26 L 532.07 170.94 M 533.07 143.32 L 533.07 168.82 M 534.07 144.39 L 534.07 168.82 M 535.07 143.32 L 535.07 170.94 M 536.07 143.32 L 536.07 169.88 M 537.07 142.26 L 537.07 176.25 M 538.07 142.26 L 538.07 169.88 M 539.07 143.32 L 539.07 172 M 540.07 144.39 L 540.07 174.13 M 541.07 143.32 L 541.07 172 M 542.07 144.39 L 542.07 165.63 M 543.07 144.39 L 543.07 167.75 M 544.07 145.45 L 544.07 168.82 M 545.07 144.39 L 545.07 169.88 M 546.07 144.39 L 546.07 167.75 M 547.07 144.39 L 547.07 169.88 M 548.07 145.45 L 548.07 169.88 M 549.07 143.32 L 549.07 175.19 M 550.07 140.14 L 550.07 172 M 551.07 127.39 L 551.07 168.82 M 552.07 136.95 L 552.07 163.51 M 553.07 141.2 L 553.07 165.63 M 554.07 141.2 L 554.07 167.75 M 555.07 141.2 L 555.07 168.82 M 556.07 134.83 L 556.07 165.63 M 557.07 140.14 L 557.07 163.51 M 558.07 139.08 L 558.07 168.82 M 559.07 141.2 L 559.07 162.44 M 560.07 140.14 L 560.07 169.88 M 561.07 139.08 L 561.07 163.51 M 562.07 133.76 L 562.07 165.63 M 563.07 141.2 L 563.07 163.51 M 564.07 141.2 L 564.07 168.82 M 565.07 138.01 L 565.07 163.51 M 566.07 138.01 L 566.07 164.57 M 567.07 134.83 L 567.07 178.38 M 568.07 138.01 L 568.07 169.88 M 569.07 134.83 L 569.07 161.38 M 570.07 138.01 L 570.07 161.38 M 571.07 138.01 L 571.07 166.69 M 572.07 132.7 L 572.07 165.63 M 573.07 135.89 L 573.07 166.69 M 574.07 135.89 L 574.07 164.57 M 575.07 136.95 L 575.07 166.69 M 576.07 138.01 L 576.07 168.82 M 577.07 141.2 L 577.07 167.75 M 578.07 135.89 L 578.07 173.07 M 579.07 135.89 L 579.07 175.19 M 580.07 139.08 L 580.07 173.07 M 581.07 136.95 L 581.07 170.94 M 582.07 139.08 L 582.07 169.88 M 583.08 135.89 L 583.08 169.88 M 584.08 139.08 L 584.08 173.07 M 585.08 135.89 L 585.08 169.88 M 586.08 136.95 L 586.08 172 M 587.08 129.52 L 587.08 162.44 M 588.08 133.76 L 588.08 145.45 M 589.08 130.58 L 589.08 150.76 M 590.08 130.58 L 590.08 152.88 M 591.08 126.33 L 591.08 150.76 M 592.08 127.39 L 592.08 147.57 M 593.08 126.33 L 593.08 148.64 M 594.08 129.52 L 594.08 147.57 M 595.08 129.52 L 595.08 153.95 M 596.08 131.64 L 596.08 148.64 M 597.08 132.7 L 597.08 148.64 M 598.08 133.76 L 598.08 148.64 M 599.08 134.83 L 599.08 150.76 M 600.08 132.7 L 600.08 149.7 M 601.08 129.52 L 601.08 149.7 M 602.08 135.89 L 602.08 151.82 M 603.08 133.76 L 603.08 155.01 M 604.08 136.95 L 604.08 151.82 M 605.08 136.95 L 605.08 155.01 M 606.08 135.89 L 606.08 156.07 M 607.08 139.08 L 607.08 156.07"/></g><rect x="59" y="31" width="577" height="380" style="stroke-width: 0.5;stroke: rgb(0,0,0);stroke-opacity: 0.0;stroke-linecap: round;stroke-linejoin: round;shape-rendering:crispEdges;; fill: none" clip-path="url(#_427167612482500clip-0)"/></svg>
