<!DOCTYPE svg PUBLIC "-//W3C//DTD SVG 1.1//EN" "http://www.w3.org/Graphics/SVG/1.1/DTD/svg11.dtd">
<svg xmlns="http://www.w3.org/2000/svg" xmlns:xlink="http://www.w3.org/1999/xlink" xmlns:jfreesvg="http://www.jfree.org/jfreesvg/svg" width="640" height="480" text-rendering="auto" shape-rendering="auto">
<defs><clipPath id="_409681760526700clip-0"><path d="M 0 0 L 640 0 L 640 480 L 0 480 L 0 0 Z "/></clipPath>
<clipPath id="_409681760526700clip-1"><path d="M 233.5 208.5 L 233.5 848.5 L -246.5 848.5 L -246.5 208.5 L 233.5 208.5 Z "/></clipPath>
<clipPath id="_409681760526700clip-2"><path d="M 57 31 L 57 411 L 636 411 L 636 31 Z "/></clipPath>
</defs>
<rect x="0" y="0" width="640" height="480" style="fill: rgb(255,255,255); fill-opacity: 0.0" clip-path="url(#_409681760526700clip-0)"/><g ><text x="208.5" y="21.01" style="fill: rgb(0,0,0); fill-opacity: 1.0; font-family: Tahoma; font-size: 20px; font-weight: bold;" clip-path="url(#_409681760526700clip-0)">Dados do treinamento</text></g><rect x="259" y="458" width="122" height="21" style="fill: rgb(255,255,255); fill-opacity: 1.0" clip-path="url(#_409681760526700clip-0)"/><g style="stroke-width: 0.1;stroke: rgb(255,85,85);stroke-opacity: 1.0;stroke-linecap: square;shape-rendering:geometricPrecision;; fill: none" clip-path="url(#_409681760526700clip-0)"><path d="M 262 468.5 L 276 468.5"/></g><g ><text x="280" y="473.01" style="fill: rgb(64,64,64); fill-opacity: 1.0; font-family: Tahoma; font-size: 12px;" clip-path="url(#_409681760526700clip-0)">Score</text></g><g style="stroke-width: 0.1;stroke: rgb(85,85,255);stroke-opacity: 1.0;stroke-linecap: square;shape-rendering:geometricPrecision;; fill: none" clip-path="url(#_409681760526700clip-0)"><path d="M 315 468.5 L 329 468.5"/></g><g ><text x="333" y="473.01" style="fill: rgb(64,64,64); fill-opacity: 1.0; font-family: Tahoma; font-size: 12px;" clip-path="url(#_409681760526700clip-0)">Variação</text></g><rect x="57" y="31" width="579" height="380" style="fill: rgb(255,255,255); fill-opacity: 0.0" clip-path="url(#_409681760526700clip-0)"/><line x1="57" y1="415" x2="636" y2="415" style="stroke-width: 0.5;stroke: rgb(128,128,128);stroke-opacity: 1.0;stroke-linecap: square;shape-rendering:crispEdges;" clip-path="url(#_409681760526700clip-0)"/><g ><text x="53.5" y="431.52" style="fill: rgb(64,64,64); fill-opacity: 1.0; font-family: Tahoma; font-size: 12px;" clip-path="url(#_409681760526700clip-0)">0</text></g><line x1="57" y1="417" x2="57" y2="415" style="stroke-width: 0.5;stroke: rgb(128,128,128);stroke-opacity: 1.0;stroke-linecap: square;shape-rendering:crispEdges;" clip-path="url(#_409681760526700clip-0)"/><g ><text x="97.14" y="431.52" style="fill: rgb(64,64,64); fill-opacity: 1.0; font-family: Tahoma; font-size: 12px;" clip-path="url(#_409681760526700clip-0)">1.000</text></g><line x1="112.14" y1="417" x2="112.14" y2="415" style="stroke-width: 0.5;stroke: rgb(128,128,128);stroke-opacity: 1.0;stroke-linecap: square;shape-rendering:crispEdges;" clip-path="url(#_409681760526700clip-0)"/><g ><text x="152.29" y="431.52" style="fill: rgb(64,64,64); fill-opacity: 1.0; font-family: Tahoma; font-size: 12px;" clip-path="url(#_409681760526700clip-0)">2.000</text></g><line x1="167.29" y1="417" x2="167.29" y2="415" style="stroke-width: 0.5;stroke: rgb(128,128,128);stroke-opacity: 1.0;stroke-linecap: square;shape-rendering:crispEdges;" clip-path="url(#_409681760526700clip-0)"/><g ><text x="207.43" y="431.52" style="fill: rgb(64,64,64); fill-opacity: 1.0; font-family: Tahoma; font-size: 12px;" clip-path="url(#_409681760526700clip-0)">3.000</text></g><line x1="222.43" y1="417" x2="222.43" y2="415" style="stroke-width: 0.5;stroke: rgb(128,128,128);stroke-opacity: 1.0;stroke-linecap: square;shape-rendering:crispEdges;" clip-path="url(#_409681760526700clip-0)"/><g ><text x="262.57" y="431.52" style="fill: rgb(64,64,64); fill-opacity: 1.0; font-family: Tahoma; font-size: 12px;" clip-path="url(#_409681760526700clip-0)">4.000</text></g><line x1="277.57" y1="417" x2="277.57" y2="415" style="stroke-width: 0.5;stroke: rgb(128,128,128);stroke-opacity: 1.0;stroke-linecap: square;shape-rendering:crispEdges;" clip-path="url(#_409681760526700clip-0)"/><g ><text x="317.72" y="431.52" style="fill: rgb(64,64,64); fill-opacity: 1.0; font-family: Tahoma; font-size: 12px;" clip-path="url(#_409681760526700clip-0)">5.000</text></g><line x1="332.72" y1="417" x2="332.72" y2="415" style="stroke-width: 0.5;stroke: rgb(128,128,128);stroke-opacity: 1.0;stroke-linecap: square;shape-rendering:crispEdges;" clip-path="url(#_409681760526700clip-0)"/><g ><text x="372.86" y="431.52" style="fill: rgb(64,64,64); fill-opacity: 1.0; font-family: Tahoma; font-size: 12px;" clip-path="url(#_409681760526700clip-0)">6.000</text></g><line x1="387.86" y1="417" x2="387.86" y2="415" style="stroke-width: 0.5;stroke: rgb(128,128,128);stroke-opacity: 1.0;stroke-linecap: square;shape-rendering:crispEdges;" clip-path="url(#_409681760526700clip-0)"/><g ><text x="428" y="431.52" style="fill: rgb(64,64,64); fill-opacity: 1.0; font-family: Tahoma; font-size: 12px;" clip-path="url(#_409681760526700clip-0)">7.000</text></g><line x1="443" y1="417" x2="443" y2="415" style="stroke-width: 0.5;stroke: rgb(128,128,128);stroke-opacity: 1.0;stroke-linecap: square;shape-rendering:crispEdges;" clip-path="url(#_409681760526700clip-0)"/><g ><text x="483.14" y="431.52" style="fill: rgb(64,64,64); fill-opacity: 1.0; font-family: Tahoma; font-size: 12px;" clip-path="url(#_409681760526700clip-0)">8.000</text></g><line x1="498.14" y1="417" x2="498.14" y2="415" style="stroke-width: 0.5;stroke: rgb(128,128,128);stroke-opacity: 1.0;stroke-linecap: square;shape-rendering:crispEdges;" clip-path="url(#_409681760526700clip-0)"/><g ><text x="538.29" y="431.52" style="fill: rgb(64,64,64); fill-opacity: 1.0; font-family: Tahoma; font-size: 12px;" clip-path="url(#_409681760526700clip-0)">9.000</text></g><line x1="553.29" y1="417" x2="553.29" y2="415" style="stroke-width: 0.5;stroke: rgb(128,128,128);stroke-opacity: 1.0;stroke-linecap: square;shape-rendering:crispEdges;" clip-path="url(#_409681760526700clip-0)"/><g ><text x="590.43" y="431.52" style="fill: rgb(64,64,64); fill-opacity: 1.0; font-family: Tahoma; font-size: 12px;" clip-path="url(#_409681760526700clip-0)">10.000</text></g><line x1="608.43" y1="417" x2="608.43" y2="415" style="stroke-width: 0.5;stroke: rgb(128,128,128);stroke-opacity: 1.0;stroke-linecap: square;shape-rendering:crispEdges;" clip-path="url(#_409681760526700clip-0)"/><g ><text x="322" y="450.59" style="fill: rgb(64,64,64); fill-opacity: 1.0; font-family: Tahoma; font-size: 14px; font-weight: bold;" clip-path="url(#_409681760526700clip-0)">Épocas</text></g><line x1="53" y1="31" x2="53" y2="411" style="stroke-width: 0.5;stroke: rgb(128,128,128);stroke-opacity: 1.0;stroke-linecap: square;shape-rendering:crispEdges;" clip-path="url(#_409681760526700clip-0)"/><g ><text x="26" y="410.17" style="fill: rgb(64,64,64); fill-opacity: 1.0; font-family: Tahoma; font-size: 12px;" clip-path="url(#_409681760526700clip-0)">-0,3</text></g><line x1="51" y1="405.15" x2="53" y2="405.15" style="stroke-width: 0.5;stroke: rgb(128,128,128);stroke-opacity: 1.0;stroke-linecap: square;shape-rendering:crispEdges;" clip-path="url(#_409681760526700clip-0)"/><g ><text x="26" y="391.31" style="fill: rgb(64,64,64); fill-opacity: 1.0; font-family: Tahoma; font-size: 12px;" clip-path="url(#_409681760526700clip-0)">-0,2</text></g><line x1="51" y1="386.29" x2="53" y2="386.29" style="stroke-width: 0.5;stroke: rgb(128,128,128);stroke-opacity: 1.0;stroke-linecap: square;shape-rendering:crispEdges;" clip-path="url(#_409681760526700clip-0)"/><g ><text x="26" y="372.45" style="fill: rgb(64,64,64); fill-opacity: 1.0; font-family: Tahoma; font-size: 12px;" clip-path="url(#_409681760526700clip-0)">-0,1</text></g><line x1="51" y1="367.43" x2="53" y2="367.43" style="stroke-width: 0.5;stroke: rgb(128,128,128);stroke-opacity: 1.0;stroke-linecap: square;shape-rendering:crispEdges;" clip-path="url(#_409681760526700clip-0)"/><g ><text x="30" y="353.59" style="fill: rgb(64,64,64); fill-opacity: 1.0; font-family: Tahoma; font-size: 12px;" clip-path="url(#_409681760526700clip-0)">0,0</text></g><line x1="51" y1="348.57" x2="53" y2="348.57" style="stroke-width: 0.5;stroke: rgb(128,128,128);stroke-opacity: 1.0;stroke-linecap: square;shape-rendering:crispEdges;" clip-path="url(#_409681760526700clip-0)"/><g ><text x="30" y="334.73" style="fill: rgb(64,64,64); fill-opacity: 1.0; font-family: Tahoma; font-size: 12px;" clip-path="url(#_409681760526700clip-0)">0,1</text></g><line x1="51" y1="329.71" x2="53" y2="329.71" style="stroke-width: 0.5;stroke: rgb(128,128,128);stroke-opacity: 1.0;stroke-linecap: square;shape-rendering:crispEdges;" clip-path="url(#_409681760526700clip-0)"/><g ><text x="30" y="315.87" style="fill: rgb(64,64,64); fill-opacity: 1.0; font-family: Tahoma; font-size: 12px;" clip-path="url(#_409681760526700clip-0)">0,2</text></g><line x1="51" y1="310.85" x2="53" y2="310.85" style="stroke-width: 0.5;stroke: rgb(128,128,128);stroke-opacity: 1.0;stroke-linecap: square;shape-rendering:crispEdges;" clip-path="url(#_409681760526700clip-0)"/><g ><text x="30" y="297.01" style="fill: rgb(64,64,64); fill-opacity: 1.0; font-family: Tahoma; font-size: 12px;" clip-path="url(#_409681760526700clip-0)">0,3</text></g><line x1="51" y1="291.99" x2="53" y2="291.99" style="stroke-width: 0.5;stroke: rgb(128,128,128);stroke-opacity: 1.0;stroke-linecap: square;shape-rendering:crispEdges;" clip-path="url(#_409681760526700clip-0)"/><g ><text x="30" y="278.15" style="fill: rgb(64,64,64); fill-opacity: 1.0; font-family: Tahoma; font-size: 12px;" clip-path="url(#_409681760526700clip-0)">0,4</text></g><line x1="51" y1="273.12" x2="53" y2="273.12" style="stroke-width: 0.5;stroke: rgb(128,128,128);stroke-opacity: 1.0;stroke-linecap: square;shape-rendering:crispEdges;" clip-path="url(#_409681760526700clip-0)"/><g ><text x="30" y="259.29" style="fill: rgb(64,64,64); fill-opacity: 1.0; font-family: Tahoma; font-size: 12px;" clip-path="url(#_409681760526700clip-0)">0,5</text></g><line x1="51" y1="254.26" x2="53" y2="254.26" style="stroke-width: 0.5;stroke: rgb(128,128,128);stroke-opacity: 1.0;stroke-linecap: square;shape-rendering:crispEdges;" clip-path="url(#_409681760526700clip-0)"/><g ><text x="30" y="240.42" style="fill: rgb(64,64,64); fill-opacity: 1.0; font-family: Tahoma; font-size: 12px;" clip-path="url(#_409681760526700clip-0)">0,6</text></g><line x1="51" y1="235.4" x2="53" y2="235.4" style="stroke-width: 0.5;stroke: rgb(128,128,128);stroke-opacity: 1.0;stroke-linecap: square;shape-rendering:crispEdges;" clip-path="url(#_409681760526700clip-0)"/><g ><text x="30" y="221.56" style="fill: rgb(64,64,64); fill-opacity: 1.0; font-family: Tahoma; font-size: 12px;" clip-path="url(#_409681760526700clip-0)">0,7</text></g><line x1="51" y1="216.54" x2="53" y2="216.54" style="stroke-width: 0.5;stroke: rgb(128,128,128);stroke-opacity: 1.0;stroke-linecap: square;shape-rendering:crispEdges;" clip-path="url(#_409681760526700clip-0)"/><g ><text x="30" y="202.7" style="fill: rgb(64,64,64); fill-opacity: 1.0; font-family: Tahoma; font-size: 12px;" clip-path="url(#_409681760526700clip-0)">0,8</text></g><line x1="51" y1="197.68" x2="53" y2="197.68" style="stroke-width: 0.5;stroke: rgb(128,128,128);stroke-opacity: 1.0;stroke-linecap: square;shape-rendering:crispEdges;" clip-path="url(#_409681760526700clip-0)"/><g ><text x="30" y="183.84" style="fill: rgb(64,64,64); fill-opacity: 1.0; font-family: Tahoma; font-size: 12px;" clip-path="url(#_409681760526700clip-0)">0,9</text></g><line x1="51" y1="178.82" x2="53" y2="178.82" style="stroke-width: 0.5;stroke: rgb(128,128,128);stroke-opacity: 1.0;stroke-linecap: square;shape-rendering:crispEdges;" clip-path="url(#_409681760526700clip-0)"/><g ><text x="30" y="164.98" style="fill: rgb(64,64,64); fill-opacity: 1.0; font-family: Tahoma; font-size: 12px;" clip-path="url(#_409681760526700clip-0)">1,0</text></g><line x1="51" y1="159.96" x2="53" y2="159.96" style="stroke-width: 0.5;stroke: rgb(128,128,128);stroke-opacity: 1.0;stroke-linecap: square;shape-rendering:crispEdges;" clip-path="url(#_409681760526700clip-0)"/><g ><text x="30" y="146.12" style="fill: rgb(64,64,64); fill-opacity: 1.0; font-family: Tahoma; font-size: 12px;" clip-path="url(#_409681760526700clip-0)">1,1</text></g><line x1="51" y1="141.1" x2="53" y2="141.1" style="stroke-width: 0.5;stroke: rgb(128,128,128);stroke-opacity: 1.0;stroke-linecap: square;shape-rendering:crispEdges;" clip-path="url(#_409681760526700clip-0)"/><g ><text x="30" y="127.26" style="fill: rgb(64,64,64); fill-opacity: 1.0; font-family: Tahoma; font-size: 12px;" clip-path="url(#_409681760526700clip-0)">1,2</text></g><line x1="51" y1="122.24" x2="53" y2="122.24" style="stroke-width: 0.5;stroke: rgb(128,128,128);stroke-opacity: 1.0;stroke-linecap: square;shape-rendering:crispEdges;" clip-path="url(#_409681760526700clip-0)"/><g ><text x="30" y="108.4" style="fill: rgb(64,64,64); fill-opacity: 1.0; font-family: Tahoma; font-size: 12px;" clip-path="url(#_409681760526700clip-0)">1,3</text></g><line x1="51" y1="103.37" x2="53" y2="103.37" style="stroke-width: 0.5;stroke: rgb(128,128,128);stroke-opacity: 1.0;stroke-linecap: square;shape-rendering:crispEdges;" clip-path="url(#_409681760526700clip-0)"/><g ><text x="30" y="89.53" style="fill: rgb(64,64,64); fill-opacity: 1.0; font-family: Tahoma; font-size: 12px;" clip-path="url(#_409681760526700clip-0)">1,4</text></g><line x1="51" y1="84.51" x2="53" y2="84.51" style="stroke-width: 0.5;stroke: rgb(128,128,128);stroke-opacity: 1.0;stroke-linecap: square;shape-rendering:crispEdges;" clip-path="url(#_409681760526700clip-0)"/><g ><text x="30" y="70.67" style="fill: rgb(64,64,64); fill-opacity: 1.0; font-family: Tahoma; font-size: 12px;" clip-path="url(#_409681760526700clip-0)">1,5</text></g><line x1="51" y1="65.65" x2="53" y2="65.65" style="stroke-width: 0.5;stroke: rgb(128,128,128);stroke-opacity: 1.0;stroke-linecap: square;shape-rendering:crispEdges;" clip-path="url(#_409681760526700clip-0)"/><g ><text x="30" y="51.81" style="fill: rgb(64,64,64); fill-opacity: 1.0; font-family: Tahoma; font-size: 12px;" clip-path="url(#_409681760526700clip-0)">1,6</text></g><line x1="51" y1="46.79" x2="53" y2="46.79" style="stroke-width: 0.5;stroke: rgb(128,128,128);stroke-opacity: 1.0;stroke-linecap: square;shape-rendering:crispEdges;" clip-path="url(#_409681760526700clip-0)"/><g style="fill: rgb(64,64,64); fill-opacity: 1.0; stroke: none" transform="matrix(0,-1,1,0,-208.5,233.5)" clip-path="url(#_409681760526700clip-1)"><path d="M -2.8 226.8 Q -3.97 226.8 -4.85 226.57 Q -5.73 226.34 -6.5 226 L -6.5 223.59 L -6.27 223.59 Q -5.5 224.23 -4.58 224.58 Q -3.66 224.94 -2.78 224.94 Q -2.56 224.94 -2.21 224.89 Q -1.86 224.84 -1.64 224.73 Q -1.36 224.62 -1.18 224.41 Q -1 224.2 -1 223.86 Q -1 223.48 -1.3 223.24 Q -1.59 223 -2.02 222.89 Q -2.53 222.75 -3.12 222.62 Q -3.72 222.5 -4.23 222.33 Q -5.41 221.91 -5.92 221.2 Q -6.44 220.5 -6.44 219.44 Q -6.44 218.01 -5.23 217.13 Q -4.02 216.25 -2.2 216.25 Q -1.3 216.25 -0.4 216.43 Q 0.5 216.61 1.2 216.92 L 1.2 219.25 L 0.98 219.25 Q 0.42 218.76 -0.4 218.43 Q -1.22 218.09 -2.08 218.09 Q -2.41 218.09 -2.68 218.14 Q -2.95 218.19 -3.23 218.33 Q -3.48 218.44 -3.66 218.66 Q -3.83 218.87 -3.83 219.14 Q -3.83 219.53 -3.55 219.76 Q -3.28 219.98 -2.48 220.17 Q -1.97 220.28 -1.49 220.39 Q -1.02 220.5 -0.48 220.7 Q 0.58 221.08 1.09 221.73 Q 1.61 222.37 1.61 223.44 Q 1.61 224.95 0.42 225.87 Q -0.77 226.8 -2.8 226.8 Z  M 6.55 226.81 Q 5.6 226.81 4.81 226.57 Q 4.02 226.33 3.44 225.84 Q 2.87 225.34 2.55 224.58 Q 2.23 223.83 2.23 222.8 Q 2.23 221.7 2.57 220.93 Q 2.91 220.16 3.51 219.66 Q 4.08 219.17 4.87 218.94 Q 5.65 218.72 6.48 218.72 Q 7.12 218.72 7.75 218.87 Q 8.38 219.01 9.04 219.33 L 9.04 221.39 L 8.73 221.39 Q 8.58 221.25 8.37 221.08 Q 8.16 220.92 7.91 220.78 Q 7.66 220.64 7.33 220.54 Q 7.01 220.44 6.6 220.44 Q 5.68 220.44 5.18 221.08 Q 4.68 221.72 4.68 222.8 Q 4.68 223.95 5.22 224.52 Q 5.76 225.09 6.63 225.09 Q 7.08 225.09 7.43 224.99 Q 7.77 224.89 8.02 224.75 Q 8.26 224.59 8.43 224.44 Q 8.6 224.3 8.73 224.17 L 9.04 224.17 L 9.04 226.22 Q 8.82 226.31 8.55 226.43 Q 8.29 226.55 8.01 226.61 Q 7.66 226.72 7.36 226.76 Q 7.05 226.81 6.55 226.81 Z  M 17.53 222.78 Q 17.53 224.67 16.5 225.76 Q 15.47 226.84 13.58 226.84 Q 11.69 226.84 10.65 225.76 Q 9.61 224.67 9.61 222.78 Q 9.61 220.86 10.65 219.77 Q 11.69 218.69 13.58 218.69 Q 15.45 218.69 16.49 219.78 Q 17.53 220.87 17.53 222.78 Z  M 15.08 222.78 Q 15.08 222.11 14.97 221.65 Q 14.86 221.19 14.66 220.92 Q 14.45 220.64 14.18 220.52 Q 13.91 220.41 13.58 220.41 Q 13.25 220.41 12.99 220.51 Q 12.73 220.61 12.51 220.89 Q 12.31 221.16 12.19 221.62 Q 12.06 222.08 12.06 222.78 Q 12.06 223.48 12.18 223.92 Q 12.3 224.36 12.48 224.62 Q 12.67 224.89 12.96 225.01 Q 13.25 225.12 13.59 225.12 Q 13.87 225.12 14.17 225.01 Q 14.47 224.89 14.66 224.64 Q 14.86 224.34 14.97 223.93 Q 15.08 223.51 15.08 222.78 Z  M 23.97 221.19 L 23.76 221.19 Q 23.62 221.14 23.37 221.12 Q 23.11 221.09 22.8 221.09 Q 22.42 221.09 22.01 221.2 Q 21.59 221.31 21.2 221.47 L 21.2 226.61 L 18.81 226.61 L 18.81 218.94 L 21.2 218.94 L 21.2 220.03 Q 21.36 219.87 21.65 219.65 Q 21.94 219.42 22.19 219.28 Q 22.44 219.12 22.79 219.01 Q 23.14 218.91 23.44 218.91 Q 23.56 218.91 23.7 218.91 Q 23.84 218.92 23.97 218.94 L 23.97 221.19 Z  M 28.8 226.81 Q 26.63 226.81 25.48 225.77 Q 24.32 224.73 24.32 222.81 Q 24.32 220.94 25.4 219.81 Q 26.48 218.69 28.41 218.69 Q 30.18 218.69 31.07 219.64 Q 31.96 220.59 31.96 222.36 L 31.96 223.22 L 26.71 223.22 Q 26.76 223.76 26.94 224.12 Q 27.13 224.47 27.44 224.69 Q 27.76 224.91 28.16 224.99 Q 28.57 225.08 29.05 225.08 Q 29.48 225.08 29.88 224.99 Q 30.29 224.91 30.62 224.75 Q 30.91 224.62 31.16 224.47 Q 31.41 224.31 31.57 224.2 L 31.82 224.2 L 31.82 226.17 Q 31.52 226.3 31.28 226.4 Q 31.04 226.5 30.62 226.59 Q 30.23 226.7 29.81 226.76 Q 29.4 226.81 28.8 226.81 Z  M 29.6 221.78 Q 29.58 221.03 29.25 220.63 Q 28.91 220.23 28.23 220.23 Q 27.54 220.23 27.15 220.65 Q 26.76 221.06 26.71 221.78 L 29.6 221.78 Z "/></g><line x1="57" y1="31" x2="57" y2="411" style="stroke-width: 0.5;stroke: rgb(0,0,0);stroke-opacity: 0.2509804;stroke-linejoin: bevel;stroke-dasharray: 2.0, 2.0;shape-rendering:crispEdges;" clip-path="url(#_409681760526700clip-2)"/><line x1="112.14" y1="31" x2="112.14" y2="411" style="stroke-width: 0.5;stroke: rgb(0,0,0);stroke-opacity: 0.2509804;stroke-linejoin: bevel;stroke-dasharray: 2.0, 2.0;shape-rendering:crispEdges;" clip-path="url(#_409681760526700clip-2)"/><line x1="167.29" y1="31" x2="167.29" y2="411" style="stroke-width: 0.5;stroke: rgb(0,0,0);stroke-opacity: 0.2509804;stroke-linejoin: bevel;stroke-dasharray: 2.0, 2.0;shape-rendering:crispEdges;" clip-path="url(#_409681760526700clip-2)"/><line x1="222.43" y1="31" x2="222.43" y2="411" style="stroke-width: 0.5;stroke: rgb(0,0,0);stroke-opacity: 0.2509804;stroke-linejoin: bevel;stroke-dasharray: 2.0, 2.0;shape-rendering:crispEdges;" clip-path="url(#_409681760526700clip-2)"/><line x1="277.57" y1="31" x2="277.57" y2="411" style="stroke-width: 0.5;stroke: rgb(0,0,0);stroke-opacity: 0.2509804;stroke-linejoin: bevel;stroke-dasharray: 2.0, 2.0;shape-rendering:crispEdges;" clip-path="url(#_409681760526700clip-2)"/><line x1="332.72" y1="31" x2="332.72" y2="411" style="stroke-width: 0.5;stroke: rgb(0,0,0);stroke-opacity: 0.2509804;stroke-linejoin: bevel;stroke-dasharray: 2.0, 2.0;shape-rendering:crispEdges;" clip-path="url(#_409681760526700clip-2)"/><line x1="387.86" y1="31" x2="387.86" y2="411" style="stroke-width: 0.5;stroke: rgb(0,0,0);stroke-opacity: 0.2509804;stroke-linejoin: bevel;stroke-dasharray: 2.0, 2.0;shape-rendering:crispEdges;" clip-path="url(#_409681760526700clip-2)"/><line x1="443" y1="31" x2="443" y2="411" style="stroke-width: 0.5;stroke: rgb(0,0,0);stroke-opacity: 0.2509804;stroke-linejoin: bevel;stroke-dasharray: 2.0, 2.0;shape-rendering:crispEdges;" clip-path="url(#_409681760526700clip-2)"/><line x1="498.14" y1="31" x2="498.14" y2="411" style="stroke-width: 0.5;stroke: rgb(0,0,0);stroke-opacity: 0.2509804;stroke-linejoin: bevel;stroke-dasharray: 2.0, 2.0;shape-rendering:crispEdges;" clip-path="url(#_409681760526700clip-2)"/><line x1="553.29" y1="31" x2="553.29" y2="411" style="stroke-width: 0.5;stroke: rgb(0,0,0);stroke-opacity: 0.2509804;stroke-linejoin: bevel;stroke-dasharray: 2.0, 2.0;shape-rendering:crispEdges;" clip-path="url(#_409681760526700clip-2)"/><line x1="608.43" y1="31" x2="608.43" y2="411" style="stroke-width: 0.5;stroke: rgb(0,0,0);stroke-opacity: 0.2509804;stroke-linejoin: bevel;stroke-dasharray: 2.0, 2.0;shape-rendering:crispEdges;" clip-path="url(#_409681760526700clip-2)"/><line x1="57" y1="405.15" x2="636" y2="405.15" style="stroke-width: 0.5;stroke: rgb(0,0,0);stroke-opacity: 0.2509804;stroke-linejoin: bevel;stroke-dasharray: 2.0, 2.0;shape-rendering:crispEdges;" clip-path="url(#_409681760526700clip-2)"/><line x1="57" y1="386.29" x2="636" y2="386.29" style="stroke-width: 0.5;stroke: rgb(0,0,0);stroke-opacity: 0.2509804;stroke-linejoin: bevel;stroke-dasharray: 2.0, 2.0;shape-rendering:crispEdges;" clip-path="url(#_409681760526700clip-2)"/><line x1="57" y1="367.43" x2="636" y2="367.43" style="stroke-width: 0.5;stroke: rgb(0,0,0);stroke-opacity: 0.2509804;stroke-linejoin: bevel;stroke-dasharray: 2.0, 2.0;shape-rendering:crispEdges;" clip-path="url(#_409681760526700clip-2)"/><line x1="57" y1="348.57" x2="636" y2="348.57" style="stroke-width: 0.5;stroke: rgb(0,0,0);stroke-opacity: 0.2509804;stroke-linejoin: bevel;stroke-dasharray: 2.0, 2.0;shape-rendering:crispEdges;" clip-path="url(#_409681760526700clip-2)"/><line x1="57" y1="329.71" x2="636" y2="329.71" style="stroke-width: 0.5;stroke: rgb(0,0,0);stroke-opacity: 0.2509804;stroke-linejoin: bevel;stroke-dasharray: 2.0, 2.0;shape-rendering:crispEdges;" clip-path="url(#_409681760526700clip-2)"/><line x1="57" y1="310.85" x2="636" y2="310.85" style="stroke-width: 0.5;stroke: rgb(0,0,0);stroke-opacity: 0.2509804;stroke-linejoin: bevel;stroke-dasharray: 2.0, 2.0;shape-rendering:crispEdges;" clip-path="url(#_409681760526700clip-2)"/><line x1="57" y1="291.99" x2="636" y2="291.99" style="stroke-width: 0.5;stroke: rgb(0,0,0);stroke-opacity: 0.2509804;stroke-linejoin: bevel;stroke-dasharray: 2.0, 2.0;shape-rendering:crispEdges;" clip-path="url(#_409681760526700clip-2)"/><line x1="57" y1="273.12" x2="636" y2="273.12" style="stroke-width: 0.5;stroke: rgb(0,0,0);stroke-opacity: 0.2509804;stroke-linejoin: bevel;stroke-dasharray: 2.0, 2.0;shape-rendering:crispEdges;" clip-path="url(#_409681760526700clip-2)"/><line x1="57" y1="254.26" x2="636" y2="254.26" style="stroke-width: 0.5;stroke: rgb(0,0,0);stroke-opacity: 0.2509804;stroke-linejoin: bevel;stroke-dasharray: 2.0, 2.0;shape-rendering:crispEdges;" clip-path="url(#_409681760526700clip-2)"/><line x1="57" y1="235.4" x2="636" y2="235.4" style="stroke-width: 0.5;stroke: rgb(0,0,0);stroke-opacity: 0.2509804;stroke-linejoin: bevel;stroke-dasharray: 2.0, 2.0;shape-rendering:crispEdges;" clip-path="url(#_409681760526700clip-2)"/><line x1="57" y1="216.54" x2="636" y2="216.54" style="stroke-width: 0.5;stroke: rgb(0,0,0);stroke-opacity: 0.2509804;stroke-linejoin: bevel;stroke-dasharray: 2.0, 2.0;shape-rendering:crispEdges;" clip-path="url(#_409681760526700clip-2)"/><line x1="57" y1="197.68" x2="636" y2="197.68" style="stroke-width: 0.5;stroke: rgb(0,0,0);stroke-opacity: 0.2509804;stroke-linejoin: bevel;stroke-dasharray: 2.0, 2.0;shape-rendering:crispEdges;" clip-path="url(#_409681760526700clip-2)"/><line x1="57" y1="178.82" x2="636" y2="178.82" style="stroke-width: 0.5;stroke: rgb(0,0,0);stroke-opacity: 0.2509804;stroke-linejoin: bevel;stroke-dasharray: 2.0, 2.0;shape-rendering:crispEdges;" clip-path="url(#_409681760526700clip-2)"/><line x1="57" y1="159.96" x2="636" y2="159.96" style="stroke-width: 0.5;stroke: rgb(0,0,0);stroke-opacity: 0.2509804;stroke-linejoin: bevel;stroke-dasharray: 2.0, 2.0;shape-rendering:crispEdges;" clip-path="url(#_409681760526700clip-2)"/><line x1="57" y1="141.1" x2="636" y2="141.1" style="stroke-width: 0.5;stroke: rgb(0,0,0);stroke-opacity: 0.2509804;stroke-linejoin: bevel;stroke-dasharray: 2.0, 2.0;shape-rendering:crispEdges;" clip-path="url(#_409681760526700clip-2)"/><line x1="57" y1="122.24" x2="636" y2="122.24" style="stroke-width: 0.5;stroke: rgb(0,0,0);stroke-opacity: 0.2509804;stroke-linejoin: bevel;stroke-dasharray: 2.0, 2.0;shape-rendering:crispEdges;" clip-path="url(#_409681760526700clip-2)"/><line x1="57" y1="103.37" x2="636" y2="103.37" style="stroke-width: 0.5;stroke: rgb(0,0,0);stroke-opacity: 0.2509804;stroke-linejoin: bevel;stroke-dasharray: 2.0, 2.0;shape-rendering:crispEdges;" clip-path="url(#_409681760526700clip-2)"/><line x1="57" y1="84.51" x2="636" y2="84.51" style="stroke-width: 0.5;stroke: rgb(0,0,0);stroke-opacity: 0.2509804;stroke-linejoin: bevel;stroke-dasharray: 2.0, 2.0;shape-rendering:crispEdges;" clip-path="url(#_409681760526700clip-2)"/><line x1="57" y1="65.65" x2="636" y2="65.65" style="stroke-width: 0.5;stroke: rgb(0,0,0);stroke-opacity: 0.2509804;stroke-linejoin: bevel;stroke-dasharray: 2.0, 2.0;shape-rendering:crispEdges;" clip-path="url(#_409681760526700clip-2)"/><line x1="57" y1="46.79" x2="636" y2="46.79" style="stroke-width: 0.5;stroke: rgb(0,0,0);stroke-opacity: 0.2509804;stroke-linejoin: bevel;stroke-dasharray: 2.0, 2.0;shape-rendering:crispEdges;" clip-path="url(#_409681760526700clip-2)"/><g style="stroke-width: 1.0;stroke: rgb(85,85,255);stroke-opacity: 1.0;stroke-linecap: square;stroke-linejoin: bevel;shape-rendering:geometricPrecision;; fill: none" clip-path="url(#_409681760526700clip-2)"><path d="M 57.06 48.27 L 58.1 350.16 L 59.15 349.35 L 60.2 349.99 L 61.25 348.58 L 62.29 347.39 L 63.34 348.97 L 64.39 350.32 L 65.44 349.44 L 66.48 349.71 L 67.53 348.4 L 68.58 351.33 L 69.63 349.05 L 70.68 351 L 71.72 351.17 L 72.77 347.63 L 73.82 350.12 L 74.87 333.52 L 75.91 354.79 L 76.96 353.39 L 78.01 354.15 L 79.06 352.02 L 80.1 345.5 L 81.15 357.25 L 82.2 346.36 L 83.25 344.52 L 84.3 349.72 L 85.34 350.69 L 86.39 352.09 L 87.44 348.09 L 88.49 355.59 L 89.53 346.38 L 90.58 348.4 L 91.63 348 L 92.68 350.51 L 93.73 348.96 L 94.77 346.72 L 95.82 341.3 L 96.87 343.03 L 97.92 351.02 L 98.96 342.99 L 100.01 348.6 L 101.06 342.14 L 102.11 348.35 L 103.15 349.02 L 104.2 342.84 L 105.25 347.17 L 106.3 339.06 L 107.35 346.25 L 108.39 348.19 L 109.44 351.85 L 110.49 342.89 L 111.54 341.87 L 112.58 348.06 L 113.63 346.84 L 114.68 350.82 L 115.73 345.23 L 116.78 345.77 L 117.82 345.82 L 118.87 354.7 L 119.92 349.66 L 120.97 351.34 L 122.01 351.62 L 123.06 348.21 L 124.11 356.75 L 125.16 340.36 L 126.2 349.43 L 127.25 352.04 L 128.3 351.16 L 129.35 352.71 L 130.4 350.42 L 131.44 350.51 L 132.49 349.11 L 133.54 346.9 L 134.59 349.15 L 135.63 342.07 L 136.68 351.55 L 137.73 346.46 L 138.78 353.19 L 139.82 338.16 L 140.87 335.29 L 141.92 346.47 L 142.97 353.52 L 144.02 358.81 L 145.06 346.64 L 146.11 351.27 L 147.16 352.46 L 148.21 355.29 L 149.25 351.4 L 150.3 351.65 L 151.35 350.76 L 152.4 351.2 L 153.45 357.03 L 154.49 349.88 L 155.54 339.88 L 156.59 356.5 L 157.64 343.6 L 158.68 346.04 L 159.73 343.17 L 160.78 347.75 L 161.83 347.24 L 162.87 359.23 L 163.92 345.52 L 164.97 345.19 L 166.02 342.76 L 167.07 345.26 L 168.11 350 L 169.16 352.94 L 170.21 350.53 L 171.26 347.98 L 172.3 352.75 L 173.35 349.29 L 174.4 353.1 L 175.45 347.43 L 176.5 351.12 L 177.54 347.43 L 178.59 341.31 L 179.64 351.09 L 180.69 346.86 L 181.73 357.2 L 182.78 348.97 L 183.83 347.98 L 184.88 351.3 L 185.92 338.45 L 186.97 347.6 L 188.02 341.64 L 189.07 338.8 L 190.12 345.82 L 191.16 353.02 L 192.21 344.81 L 193.26 353.66 L 194.31 338.21 L 195.35 339.87 L 196.4 355.05 L 197.45 349.08 L 198.5 344.16 L 199.54 355.01 L 200.59 352.51 L 201.64 352.52 L 202.69 348.82 L 203.74 351.68 L 204.78 351.08 L 205.83 348.73 L 206.88 348.13 L 207.93 343.34 L 208.97 344.85 L 210.02 349.04 L 211.07 346.6 L 212.12 355.72 L 213.17 351.93 L 214.21 357.81 L 215.26 348.24 L 216.31 344.75 L 217.36 354.14 L 218.4 349.5 L 219.45 359.06 L 220.5 333.36 L 221.55 346.7 L 222.59 334.85 L 223.64 351.08 L 224.69 351.45 L 225.74 343.8 L 226.79 358.03 L 227.83 345.87 L 228.88 345.24 L 229.93 347.98 L 230.98 344.33 L 232.02 356.04 L 233.07 350.87 L 234.12 347.73 L 235.17 342.54 L 236.22 344.86 L 237.26 347.45 L 238.31 346.77 L 239.36 347.51 L 240.41 350.33 L 241.45 342.57 L 242.5 343.28 L 243.55 351.38 L 244.6 363.74 L 245.64 345.94 L 246.69 340.38 L 247.74 330.57 L 248.79 335.23 L 249.84 344.18 L 250.88 346.38 L 251.93 348.33 L 252.98 345.58 L 254.03 355.91 L 255.07 338.86 L 256.12 348.32 L 257.17 349.1 L 258.22 340.94 L 259.26 337.83 L 260.31 349.69 L 261.36 368.84 L 262.41 351.34 L 263.46 355.61 L 264.5 348.58 L 265.55 334.23 L 266.6 353.89 L 267.65 345.31 L 268.69 344.96 L 269.74 348.82 L 270.79 348.32 L 271.84 340.1 L 272.89 343.84 L 273.93 342.94 L 274.98 340.36 L 276.03 343.52 L 277.08 341.82 L 278.12 347.83 L 279.17 349.9 L 280.22 347.34 L 281.27 352.03 L 282.31 346.82 L 283.36 355.81 L 284.41 345.21 L 285.46 350.28 L 286.51 347.37 L 287.55 350.3 L 288.6 347.29 L 289.65 345.09 L 290.7 333.02 L 291.74 347.81 L 292.79 347.17 L 293.84 346.32 L 294.89 351.72 L 295.94 358.95 L 296.98 351.92 L 298.03 337.5 L 299.08 357.06 L 300.13 348.5 L 301.17 358.96 L 302.22 350.42 L 303.27 350.06 L 304.32 353.65 L 305.36 344.03 L 306.41 345.75 L 307.46 354.77 L 308.51 347.75 L 309.56 348.1 L 310.6 352.28 L 311.65 354.09 L 312.7 346.54 L 313.75 345.91 L 314.79 346.26 L 315.84 354.47 L 316.89 342.26 L 317.94 345.86 L 318.98 342.36 L 320.03 356.11 L 321.08 370.97 L 322.13 351.49 L 323.18 343.41 L 324.22 349.82 L 325.27 351.04 L 326.32 349.45 L 327.37 357.68 L 328.41 347.86 L 329.46 345.7 L 330.51 350.06 L 331.56 348.09 L 332.61 352.83 L 333.65 345.76 L 334.7 351.94 L 335.75 348.54 L 336.8 353.82 L 337.84 345.44 L 338.89 357 L 339.94 331.71 L 340.99 361.16 L 342.03 353.34 L 343.08 352.64 L 344.13 349.99 L 345.18 347.48 L 346.23 348.52 L 347.27 348.76 L 348.32 346.04 L 349.37 350.09 L 350.42 350.83 L 351.46 350.81 L 352.51 346.59 L 353.56 348.32 L 354.61 354.58 L 355.66 339.87 L 356.7 351.24 L 357.75 343.99 L 358.8 352.1 L 359.85 341.38 L 360.89 344.3 L 361.94 345.2 L 362.99 351.17 L 364.04 348.79 L 365.08 347.59 L 366.13 364.25 L 367.18 348.3 L 368.23 364.43 L 369.28 344.57 L 370.32 347.74 L 371.37 355.79 L 372.42 352.29 L 373.47 341.62 L 374.51 344.84 L 375.56 350.7 L 376.61 353.26 L 377.66 349.61 L 378.7 341.77 L 379.75 347.91 L 380.8 348.64 L 381.85 349.74 L 382.9 343.16 L 383.94 350.44 L 384.99 350.92 L 386.04 347.25 L 387.09 346.02 L 388.13 350.49 L 389.18 348.03 L 390.23 341.92 L 391.28 344.57 L 392.33 343.39 L 393.37 351.02 L 394.42 347.74 L 395.47 350.25 L 396.52 353.03 L 397.56 350.27 L 398.61 346.66 L 399.66 352.46 L 400.71 342.77 L 401.75 357.78 L 402.8 353.37 L 403.85 345.27 L 404.9 346.4 L 405.95 348.36 L 406.99 345.95 L 408.04 349.68 L 409.09 335.1 L 410.14 356.12 L 411.18 350.51 L 412.23 346.34 L 413.28 342.56 L 414.33 341.52 L 415.38 343.66 L 416.42 347.68 L 417.47 356.6 L 418.52 349.48 L 419.57 354.83 L 420.61 333.04 L 421.66 334.74 L 422.71 365.05 L 423.76 349.89 L 424.8 327.67 L 425.85 359.03 L 426.9 343.9 L 427.95 348.98 L 429 345.59 L 430.04 327.98 L 431.09 352.76 L 432.14 344.6 L 433.19 350.43 L 434.23 344.32 L 435.28 344.94 L 436.33 349.26 L 437.38 345.45 L 438.42 348.07 L 439.47 345.67 L 440.52 355.74 L 441.57 352.43 L 442.62 349.86 L 443.66 335.79 L 444.71 340.33 L 445.76 355.3 L 446.81 365.12 L 447.85 348.12 L 448.9 354.36 L 449.95 348.32 L 451 357.98 L 452.05 352.76 L 453.09 342.62 L 454.14 353.39 L 455.19 360.39 L 456.24 346.64 L 457.28 348.69 L 458.33 342.46 L 459.38 344.78 L 460.43 350.81 L 461.47 345.84 L 462.52 354.99 L 463.57 346.67 L 464.62 351.17 L 465.67 339.75 L 466.71 344.87 L 467.76 329.7 L 468.81 352.24 L 469.86 326.74 L 470.9 344.84 L 471.95 351.78 L 473 351.88 L 474.05 334.02 L 475.1 350.9 L 476.14 355.89 L 477.19 347.99 L 478.24 359.17 L 479.29 349 L 480.33 347.64 L 481.38 341.51 L 482.43 335.97 L 483.48 350.49 L 484.52 334.61 L 485.57 345.52 L 486.62 367.43 L 487.67 344.08 L 488.72 351.57 L 489.76 316.7 L 490.81 358.63 L 491.86 351.17 L 492.91 344.96 L 493.95 357.47 L 495 367.69 L 496.05 331.13 L 497.1 362.29 L 498.14 354.19 L 499.19 352.46 L 500.24 349.1 L 501.29 349.21 L 502.34 354.67 L 503.38 356.72 L 504.43 353.36 L 505.48 355.38 L 506.53 353.32 L 507.57 345.83 L 508.62 350.68 L 509.67 353.05 L 510.72 349.22 L 511.77 375.87 L 512.81 346.13 L 513.86 352.75 L 514.91 349.54 L 515.96 345.45 L 517 343.32 L 518.05 349.11 L 519.1 344.45 L 520.15 335.89 L 521.19 353.23 L 522.24 351.75 L 523.29 346.57 L 524.34 347.62 L 525.39 348.84 L 526.43 340.74 L 527.48 322.13 L 528.53 349.29 L 529.58 343.96 L 530.62 350.16 L 531.67 352.12 L 532.72 352.62 L 533.77 357.27 L 534.82 344.36 L 535.86 359.72 L 536.91 346.55 L 537.96 347.93 L 539.01 350.99 L 540.05 347.91 L 541.1 362.56 L 542.15 349.56 L 543.2 345.9 L 544.24 354.85 L 545.29 348.81 L 546.34 350.78 L 547.39 342.04 L 548.44 348.17 L 549.48 374.9 L 550.53 347.05 L 551.58 350.65 L 552.63 348.59 L 553.67 348.63 L 554.72 353.21 L 555.77 351.19 L 556.82 348.16 L 557.86 346.99 L 558.91 352.88 L 559.96 346.06 L 561.01 359.95 L 562.06 346.56 L 563.1 333.13 L 564.15 345.05 L 565.2 344.77 L 566.25 347.41 L 567.29 375.41 L 568.34 355.06 L 569.39 351.73 L 570.44 344.22 L 571.49 343.55 L 572.53 351.43 L 573.58 355.33 L 574.63 358.68 L 575.68 360.54 L 576.72 351.12 L 577.77 352.67 L 578.82 349.85 L 579.87 348.92 L 580.91 350.03 L 581.96 355.16 L 583.01 346.87 L 584.06 346.44 L 585.11 356.18 L 586.15 346.36 L 587.2 352.13 L 588.25 351.44 L 589.3 362.99 L 590.34 349.23 L 591.39 361.89 L 592.44 346.51 L 593.49 359.27 L 594.54 347.12 L 595.58 359.22 L 596.63 348 L 597.68 346.21 L 598.73 382.22 L 599.77 348.75 L 600.82 346.58 L 601.87 344.79 L 602.92 349.79 L 603.96 342.48 L 605.01 356.6 L 606.06 350.26 L 607.11 346.17 L 608.16 358.95"/></g><g style="stroke-width: 1.0;stroke: rgb(85,85,255);stroke-opacity: 1.0;stroke-linecap: square;stroke-linejoin: bevel;shape-rendering:geometricPrecision;; fill: none" clip-path="url(#_409681760526700clip-2)"><path d="M 57.06 48.27 L 57.06 358.75 M 58.1 346.38 L 58.1 351.91 M 59.15 345.94 L 59.15 351.1 M 60.2 346.57 L 60.2 350.44 M 61.25 346.81 L 61.25 350.36 M 62.29 346.69 L 62.29 351.79 M 63.34 346.83 L 63.34 350.14 M 64.39 341.09 L 64.39 355.06 M 65.44 344.38 L 65.44 351.37 M 66.48 345.33 L 66.48 350.41 M 67.53 342.3 L 67.53 352.69 M 68.58 342.29 L 68.58 353.98 M 69.63 345.95 L 69.63 351.69 M 70.68 346.47 L 70.68 351.97 M 71.72 345.83 L 71.72 352.49 M 72.77 337.14 L 72.77 357.71 M 73.82 329.61 L 73.82 367.36 M 74.87 332.1 L 74.87 365.38 M 75.91 334.63 L 75.91 359.32 M 76.96 342.52 L 76.96 355.16 M 78.01 339.25 L 78.01 357.43 M 79.06 345.64 L 79.06 352.02 M 80.1 340.92 L 80.1 355.28 M 81.15 338.84 L 81.15 357.71 M 82.2 340.9 L 82.2 354.23 M 83.25 344.52 L 83.25 352.03 M 84.3 344.97 L 84.3 352.93 M 85.34 342.7 L 85.34 354.59 M 86.39 342.58 L 86.39 355.22 M 87.44 341.81 L 87.44 358.11 M 88.49 340.64 L 88.49 355.59 M 89.53 344.65 L 89.53 351 M 90.58 342.5 L 90.58 354.73 M 91.63 341.43 L 91.63 358.2 M 92.68 334.82 L 92.68 362.46 M 93.73 341.46 L 93.73 354.73 M 94.77 345.75 L 94.77 352.5 M 95.82 340.44 L 95.82 355.96 M 96.87 336.72 L 96.87 359.11 M 97.92 343.38 L 97.92 352.84 M 98.96 342.52 L 98.96 353.66 M 100.01 341.32 L 100.01 360.62 M 101.06 340.75 L 101.06 354.44 M 102.11 344.14 L 102.11 353.16 M 103.15 342.13 L 103.15 355.36 M 104.2 338.06 L 104.2 357.47 M 105.25 342.12 L 105.25 357.09 M 106.3 339.06 L 106.3 357.39 M 107.35 335.78 L 107.35 360.89 M 108.39 339.48 L 108.39 357.67 M 109.44 341.63 L 109.44 353.88 M 110.49 341.06 L 110.49 356.37 M 111.54 336.07 L 111.54 357.66 M 112.58 341.01 L 112.58 359.45 M 113.63 332.09 L 113.63 360.88 M 114.68 343.56 L 114.68 353.23 M 115.73 335.07 L 115.73 359.38 M 116.78 341.82 L 116.78 355.58 M 117.82 342.25 L 117.82 357.65 M 118.87 339.92 L 118.87 354.7 M 119.92 340.56 L 119.92 355.53 M 120.97 335.01 L 120.97 356.4 M 122.01 343.55 L 122.01 351.62 M 123.06 337.35 L 123.06 356.44 M 124.11 337.5 L 124.11 356.75 M 125.16 336.75 L 125.16 356.52 M 126.2 341.52 L 126.2 356.79 M 127.25 337.17 L 127.25 358.3 M 128.3 331.36 L 128.3 365.78 M 129.35 340.68 L 129.35 358.24 M 130.4 337.12 L 130.4 355.86 M 131.44 335.17 L 131.44 361.97 M 132.49 341.49 L 132.49 355.82 M 133.54 344.05 L 133.54 354.93 M 134.59 339.84 L 134.59 356.39 M 135.63 334.97 L 135.63 359.66 M 136.68 339.05 L 136.68 354.74 M 137.73 333.77 L 137.73 359.44 M 138.78 330 L 138.78 365.28 M 139.82 338.16 L 139.82 358.33 M 140.87 335.29 L 140.87 362.17 M 141.92 341.68 L 141.92 355.55 M 142.97 336.56 L 142.97 358.11 M 144.02 339.14 L 144.02 358.81 M 145.06 339.13 L 145.06 354.36 M 146.11 337.64 L 146.11 358.47 M 147.16 338.45 L 147.16 356.65 M 148.21 339.17 L 148.21 355.29 M 149.25 340.87 L 149.25 356.07 M 150.3 336.03 L 150.3 359.88 M 151.35 343.06 L 151.35 354.78 M 152.4 336.63 L 152.4 357.5 M 153.45 339.88 L 153.45 357.03 M 154.49 340.03 L 154.49 353.57 M 155.54 334.18 L 155.54 359.91 M 156.59 340.1 L 156.59 356.5 M 157.64 343.6 L 157.64 351.59 M 158.68 338.72 L 158.68 356.8 M 159.73 340.25 L 159.73 355.7 M 160.78 332.02 L 160.78 361.96 M 161.83 334.01 L 161.83 363.67 M 162.87 339.1 L 162.87 359.23 M 163.92 339.53 L 163.92 356.98 M 164.97 337.31 L 164.97 358.66 M 166.02 340.73 L 166.02 355.31 M 167.07 340.2 L 167.07 356.07 M 168.11 340.57 L 168.11 352.72 M 169.16 338.89 L 169.16 353.68 M 170.21 343.44 L 170.21 354.46 M 171.26 338.91 L 171.26 357.07 M 172.3 335.07 L 172.3 360.15 M 173.35 344.16 L 173.35 354.53 M 174.4 334.54 L 174.4 360.85 M 175.45 341.32 L 175.45 353.16 M 176.5 342.39 L 176.5 353.94 M 177.54 338.42 L 177.54 356.95 M 178.59 333.45 L 178.59 364.19 M 179.64 341.03 L 179.64 353.55 M 180.69 339.47 L 180.69 355.72 M 181.73 341.77 L 181.73 357.2 M 182.78 337.61 L 182.78 359.1 M 183.83 345.38 L 183.83 351.46 M 184.88 333.62 L 184.88 362.46 M 185.92 336.55 L 185.92 359.69 M 186.97 341.95 L 186.97 354.71 M 188.02 333.08 L 188.02 362.53 M 189.07 338.8 L 189.07 361.55 M 190.12 340.9 L 190.12 356.43 M 191.16 337.89 L 191.16 355.63 M 192.21 336.72 L 192.21 362.2 M 193.26 338.87 L 193.26 357.77 M 194.31 338.21 L 194.31 363.36 M 195.35 339.87 L 195.35 358.53 M 196.4 343.34 L 196.4 356.56 M 197.45 336.94 L 197.45 361.16 M 198.5 339.24 L 198.5 358.01 M 199.54 342.84 L 199.54 355.62 M 200.59 338.07 L 200.59 361.91 M 201.64 345.45 L 201.64 353.11 M 202.69 338.08 L 202.69 358.66 M 203.74 336.54 L 203.74 360.7 M 204.78 342.44 L 204.78 357.79 M 205.83 337.97 L 205.83 358.87 M 206.88 339.57 L 206.88 356.56 M 207.93 341.07 L 207.93 361.36 M 208.97 343.32 L 208.97 356.08 M 210.02 334.89 L 210.02 366.58 M 211.07 336.2 L 211.07 363.34 M 212.12 341.87 L 212.12 355.72 M 213.17 339.08 L 213.17 353.17 M 214.21 335.11 L 214.21 360.57 M 215.26 335.09 L 215.26 359.26 M 216.31 333.18 L 216.31 369.2 M 217.36 332.16 L 217.36 364.31 M 218.4 340.43 L 218.4 355.66 M 219.45 343.1 L 219.45 359.06 M 220.5 333.36 L 220.5 365.64 M 221.55 315.66 L 221.55 367.07 M 222.59 326.52 L 222.59 363.93 M 223.64 328.86 L 223.64 365.65 M 224.69 329.1 L 224.69 374.43 M 225.74 330.61 L 225.74 367.87 M 226.79 328.63 L 226.79 366.66 M 227.83 341.98 L 227.83 356.61 M 228.88 341.67 L 228.88 360.2 M 229.93 343.83 L 229.93 354.82 M 230.98 338.47 L 230.98 361.68 M 232.02 336.25 L 232.02 362.9 M 233.07 338.34 L 233.07 360.7 M 234.12 342.87 L 234.12 357.97 M 235.17 337.97 L 235.17 356.83 M 236.22 343.64 L 236.22 354.41 M 237.26 340.77 L 237.26 355.16 M 238.31 337.99 L 238.31 357.99 M 239.36 338.03 L 239.36 359.98 M 240.41 332.21 L 240.41 367.71 M 241.45 337.53 L 241.45 355.41 M 242.5 341.15 L 242.5 357.06 M 243.55 334.79 L 243.55 365.02 M 244.6 337.43 L 244.6 363.74 M 245.64 329.16 L 245.64 368.52 M 246.69 340.38 L 246.69 356.58 M 247.74 330.57 L 247.74 366.84 M 248.79 335.23 L 248.79 360.47 M 249.84 329.63 L 249.84 370.45 M 250.88 339.75 L 250.88 360.74 M 251.93 343.87 L 251.93 353.73 M 252.98 338.83 L 252.98 355.63 M 254.03 339.03 L 254.03 359.29 M 255.07 336.94 L 255.07 361.13 M 256.12 333.07 L 256.12 359.79 M 257.17 341.26 L 257.17 355.85 M 258.22 340.94 L 258.22 358.45 M 259.26 337.2 L 259.26 361.79 M 260.31 322.21 L 260.31 373.99 M 261.36 339.46 L 261.36 368.84 M 262.41 337.47 L 262.41 359.74 M 263.46 338.18 L 263.46 359.09 M 264.5 342.29 L 264.5 353.33 M 265.55 330.77 L 265.55 369.31 M 266.6 340.92 L 266.6 359.86 M 267.65 338.29 L 267.65 356.52 M 268.69 336.85 L 268.69 362 M 269.74 335.26 L 269.74 365.04 M 270.79 342.11 L 270.79 353.13 M 271.84 340.09 L 271.84 355.81 M 272.89 333.51 L 272.89 368.61 M 273.93 338.15 L 273.93 361.35 M 274.98 336.45 L 274.98 364.22 M 276.03 334.27 L 276.03 360.12 M 277.08 341.82 L 277.08 357.29 M 278.12 343.43 L 278.12 354.27 M 279.17 340.93 L 279.17 357.83 M 280.22 333.51 L 280.22 364.42 M 281.27 335.47 L 281.27 362.53 M 282.31 341.04 L 282.31 357.47 M 283.36 331.78 L 283.36 368.63 M 284.41 338.51 L 284.41 363.48 M 285.46 332.03 L 285.46 369.09 M 286.51 346.17 L 286.51 354.37 M 287.55 339.07 L 287.55 358.89 M 288.6 341.76 L 288.6 357.26 M 289.65 342.03 L 289.65 355.92 M 290.7 330.65 L 290.7 366.13 M 291.74 317.68 L 291.74 370.49 M 292.79 341.22 L 292.79 357.41 M 293.84 339.75 L 293.84 357.54 M 294.89 339.27 L 294.89 358.67 M 295.94 341.69 L 295.94 358.95 M 296.98 335.4 L 296.98 355.57 M 298.03 325.48 L 298.03 372.07 M 299.08 333.86 L 299.08 360.04 M 300.13 325.85 L 300.13 373.56 M 301.17 332.01 L 301.17 364.77 M 302.22 342.99 L 302.22 354.89 M 303.27 338.96 L 303.27 361.35 M 304.32 341.92 L 304.32 356.12 M 305.36 338.15 L 305.36 359.11 M 306.41 337.68 L 306.41 358.36 M 307.46 343.66 L 307.46 354.77 M 308.51 341.37 L 308.51 355.2 M 309.56 340.43 L 309.56 359.55 M 310.6 341.5 L 310.6 354.26 M 311.65 339 L 311.65 356.58 M 312.7 331.93 L 312.7 367.01 M 313.75 324.28 L 313.75 370.68 M 314.79 338.03 L 314.79 357.17 M 315.84 321.77 L 315.84 376.65 M 316.89 342.26 L 316.89 358.06 M 317.94 341.3 L 317.94 356.43 M 318.98 337.46 L 318.98 358.49 M 320.03 339.27 L 320.03 356.86 M 321.08 327.45 L 321.08 370.97 M 322.13 344.47 L 322.13 352.98 M 323.18 343.35 L 323.18 353.77 M 324.22 331.52 L 324.22 374.5 M 325.27 333.49 L 325.27 365.71 M 326.32 335.81 L 326.32 354.43 M 327.37 305.88 L 327.37 393.73 M 328.41 335.54 L 328.41 363.85 M 329.46 339.39 L 329.46 359.52 M 330.51 340.73 L 330.51 357.68 M 331.56 342.38 L 331.56 357.37 M 332.61 337.47 L 332.61 355.32 M 333.65 314.01 L 333.65 381.2 M 334.7 324.47 L 334.7 373.11 M 335.75 333.56 L 335.75 367.69 M 336.8 328.82 L 336.8 367.7 M 337.84 329.41 L 337.84 365.29 M 338.89 329 L 338.89 369.91 M 339.94 331.71 L 339.94 366.22 M 340.99 334.78 L 340.99 361.16 M 342.03 340.31 L 342.03 354.23 M 343.08 343 L 343.08 355.39 M 344.13 339.13 L 344.13 359.44 M 345.18 344.46 L 345.18 354.44 M 346.23 343.08 L 346.23 355.15 M 347.27 338.85 L 347.27 359.5 M 348.32 340.01 L 348.32 352.47 M 349.37 338.35 L 349.37 357.54 M 350.42 336.05 L 350.42 359.9 M 351.46 343.51 L 351.46 354.54 M 352.51 337.78 L 352.51 356.74 M 353.56 335.16 L 353.56 358.86 M 354.61 343.99 L 354.61 354.58 M 355.66 335.52 L 355.66 364.54 M 356.7 336.48 L 356.7 362.97 M 357.75 331.2 L 357.75 365.55 M 358.8 339.02 L 358.8 359.24 M 359.85 341.38 L 359.85 356.44 M 360.89 339.45 L 360.89 357.35 M 361.94 312.46 L 361.94 384.21 M 362.99 337.63 L 362.99 357.12 M 364.04 343.51 L 364.04 351.81 M 365.08 329.77 L 365.08 361.04 M 366.13 329.5 L 366.13 367.48 M 367.18 328.93 L 367.18 368.39 M 368.23 340.13 L 368.23 364.43 M 369.28 339.6 L 369.28 361.41 M 370.32 341.14 L 370.32 356.18 M 371.37 340.66 L 371.37 358.54 M 372.42 343.61 L 372.42 354.95 M 373.47 336.08 L 373.47 359.35 M 374.51 338.72 L 374.51 362.07 M 375.56 332.76 L 375.56 362.54 M 376.61 338.57 L 376.61 357.33 M 377.66 342.95 L 377.66 354.05 M 378.7 339.96 L 378.7 357.19 M 379.75 342.3 L 379.75 354.22 M 380.8 341.92 L 380.8 357.75 M 381.85 332.19 L 381.85 372.8 M 382.9 343.14 L 382.9 355.99 M 383.94 338.92 L 383.94 358.62 M 384.99 342.79 L 384.99 354.85 M 386.04 339.54 L 386.04 359.46 M 387.09 338.78 L 387.09 360.61 M 388.13 342.74 L 388.13 357.24 M 389.18 343.03 L 389.18 357.68 M 390.23 333.06 L 390.23 370.07 M 391.28 317.47 L 391.28 375.62 M 392.33 325.16 L 392.33 369.36 M 393.37 329.82 L 393.37 371.67 M 394.42 328.95 L 394.42 365.47 M 395.47 334.3 L 395.47 364.34 M 396.52 340.92 L 396.52 353.63 M 397.56 315.53 L 397.56 377.18 M 398.61 329.84 L 398.61 364.67 M 399.66 328.96 L 399.66 369.67 M 400.71 340.39 L 400.71 355.24 M 401.75 340.64 L 401.75 357.78 M 402.8 330.03 L 402.8 358.78 M 403.85 329.72 L 403.85 362.42 M 404.9 340.41 L 404.9 354.33 M 405.95 341.88 L 405.95 355.24 M 406.99 337.46 L 406.99 362.33 M 408.04 337.62 L 408.04 361.95 M 409.09 335.1 L 409.09 354.26 M 410.14 337.6 L 410.14 360.96 M 411.18 334.81 L 411.18 363.78 M 412.23 332.02 L 412.23 367.37 M 413.28 328.11 L 413.28 379.46 M 414.33 334.05 L 414.33 359.45 M 415.38 326.58 L 415.38 369.08 M 416.42 342.26 L 416.42 355.4 M 417.47 343.74 L 417.47 357.76 M 418.52 339.23 L 418.52 355.98 M 419.57 330.94 L 419.57 369.95 M 420.61 333.04 L 420.61 369.32 M 421.66 326.07 L 421.66 367.03 M 422.71 342.23 L 422.71 365.05 M 423.76 323.99 L 423.76 369.15 M 424.8 327.67 L 424.8 368.07 M 425.85 343.66 L 425.85 359.03 M 426.9 341.88 L 426.9 357.1 M 427.95 341.18 L 427.95 355.91 M 429 341.76 L 429 357.66 M 430.04 323.13 L 430.04 369.46 M 431.09 343.68 L 431.09 356.24 M 432.14 337.3 L 432.14 359.18 M 433.19 318.66 L 433.19 373.88 M 434.23 339.94 L 434.23 360.47 M 435.28 343.32 L 435.28 352.24 M 436.33 341.5 L 436.33 359.78 M 437.38 338.08 L 437.38 361.96 M 438.42 344.37 L 438.42 353.27 M 439.47 343.18 L 439.47 354.15 M 440.52 339.53 L 440.52 359.57 M 441.57 338.2 L 441.57 361.22 M 442.62 320.12 L 442.62 383.08 M 443.66 335.79 L 443.66 357.32 M 444.71 340.33 L 444.71 359.47 M 445.76 336.2 L 445.76 355.3 M 446.81 319.44 L 446.81 376.98 M 447.85 339.55 L 447.85 353.04 M 448.9 340.86 L 448.9 361.81 M 449.95 313.36 L 449.95 370.78 M 451 335.18 L 451 357.98 M 452.05 320.54 L 452.05 373.87 M 453.09 339.61 L 453.09 356.84 M 454.14 338.17 L 454.14 357.16 M 455.19 323.94 L 455.19 376.95 M 456.24 329.16 L 456.24 367.59 M 457.28 341.67 L 457.28 353.84 M 458.33 330.07 L 458.33 375.91 M 459.38 334.48 L 459.38 362.33 M 460.43 319.13 L 460.43 381.69 M 461.47 327.44 L 461.47 375.7 M 462.52 344.09 L 462.52 354.99 M 463.57 334.21 L 463.57 365.02 M 464.62 320.15 L 464.62 379.89 M 465.67 326.91 L 465.67 375.09 M 466.71 323.01 L 466.71 367.55 M 467.76 329.7 L 467.76 369.69 M 468.81 336.45 L 468.81 361.56 M 469.86 322.81 L 469.86 373.54 M 470.9 334.96 L 470.9 361.53 M 471.95 340.14 L 471.95 357.24 M 473 341.32 L 473 356.31 M 474.05 334.02 L 474.05 360.16 M 475.1 334.92 L 475.1 361.43 M 476.14 341.76 L 476.14 355.89 M 477.19 329.63 L 477.19 357.29 M 478.24 315.24 L 478.24 370.72 M 479.29 336.76 L 479.29 360.71 M 480.33 337.68 L 480.33 360.97 M 481.38 341.51 L 481.38 353.85 M 482.43 333.51 L 482.43 368.9 M 483.48 337.07 L 483.48 361.23 M 484.52 321.24 L 484.52 375.97 M 485.57 322.94 L 485.57 373.79 M 486.62 338.44 L 486.62 367.43 M 487.67 325.85 L 487.67 364.14 M 488.72 326.45 L 488.72 366.78 M 489.76 316.7 L 489.76 376.72 M 490.81 340.13 L 490.81 358.63 M 491.86 339.04 L 491.86 363.54 M 492.91 329.59 L 492.91 364.01 M 493.95 326.83 L 493.95 380.47 M 495 324.53 L 495 367.69 M 496.05 329.06 L 496.05 372.23 M 497.1 338.7 L 497.1 362.29 M 498.14 340.97 L 498.14 354.54 M 499.19 339.53 L 499.19 358.9 M 500.24 340.7 L 500.24 359.82 M 501.29 340.73 L 501.29 355.95 M 502.34 340.49 L 502.34 360.96 M 503.38 342.47 L 503.38 357.02 M 504.43 330.32 L 504.43 368.37 M 505.48 326.92 L 505.48 369.27 M 506.53 338.01 L 506.53 362.02 M 507.57 326.09 L 507.57 371.97 M 508.62 339.75 L 508.62 359.94 M 509.67 329.75 L 509.67 373.88 M 510.72 319.6 L 510.72 358.52 M 511.77 341.93 L 511.77 375.87 M 512.81 337.58 L 512.81 367.17 M 513.86 343.56 L 513.86 356.46 M 514.91 332.2 L 514.91 367.02 M 515.96 331.78 L 515.96 370.15 M 517 337.71 L 517 361.68 M 518.05 334.6 L 518.05 362.53 M 519.1 329.02 L 519.1 368.13 M 520.15 325.86 L 520.15 364.96 M 521.19 331.45 L 521.19 370 M 522.24 342.67 L 522.24 355.82 M 523.29 343.81 L 523.29 355.45 M 524.34 340.3 L 524.34 355.65 M 525.39 342.52 L 525.39 355.88 M 526.43 337.94 L 526.43 363.66 M 527.48 322.13 L 527.48 378.39 M 528.53 343.64 L 528.53 354.78 M 529.58 309.61 L 529.58 380.88 M 530.62 335.93 L 530.62 363.91 M 531.67 343.02 L 531.67 354.24 M 532.72 339.61 L 532.72 360.32 M 533.77 338.78 L 533.77 359.19 M 534.82 335.7 L 534.82 362.03 M 535.86 319.54 L 535.86 371.9 M 536.91 340.94 L 536.91 357.38 M 537.96 316 L 537.96 363.8 M 539.01 342.61 L 539.01 357.13 M 540.05 308.85 L 540.05 381.92 M 541.1 340.87 L 541.1 367.6 M 542.15 343.29 L 542.15 353.1 M 543.2 340.36 L 543.2 359.52 M 544.24 329.82 L 544.24 365.85 M 545.29 342.18 L 545.29 354.81 M 546.34 314.81 L 546.34 372.23 M 547.39 321.75 L 547.39 366.16 M 548.44 315.81 L 548.44 359.71 M 549.48 333.78 L 549.48 374.9 M 550.53 342.86 L 550.53 353.66 M 551.58 339.41 L 551.58 358.54 M 552.63 340.57 L 552.63 357.3 M 553.67 340.13 L 553.67 361.47 M 554.72 343.39 L 554.72 353.82 M 555.77 331.04 L 555.77 367.11 M 556.82 318.67 L 556.82 375.07 M 557.86 312.8 L 557.86 386.53 M 558.91 339.26 L 558.91 356.73 M 559.96 339.58 L 559.96 356.2 M 561.01 342.04 L 561.01 359.95 M 562.06 322.79 L 562.06 368.23 M 563.1 318.67 L 563.1 370.07 M 564.15 334.27 L 564.15 364.04 M 565.2 337.39 L 565.2 363.95 M 566.25 320.22 L 566.25 366.22 M 567.29 333.65 L 567.29 375.41 M 568.34 324.19 L 568.34 369.94 M 569.39 343.57 L 569.39 355.22 M 570.44 341.96 L 570.44 355.82 M 571.49 334.11 L 571.49 360.4 M 572.53 333.05 L 572.53 363.82 M 573.58 339.93 L 573.58 362.09 M 574.63 326.03 L 574.63 372.42 M 575.68 341.25 L 575.68 360.54 M 576.72 341.04 L 576.72 361.63 M 577.77 341.91 L 577.77 358.03 M 578.82 340.78 L 578.82 356.82 M 579.87 328.44 L 579.87 356.4 M 580.91 322.08 L 580.91 366.88 M 581.96 316.22 L 581.96 379.57 M 583.01 333.94 L 583.01 362.91 M 584.06 329.72 L 584.06 363.21 M 585.11 334.31 L 585.11 373.68 M 586.15 321.37 L 586.15 385.41 M 587.2 326.77 L 587.2 379.15 M 588.25 337.44 L 588.25 356.88 M 589.3 340.91 L 589.3 362.99 M 590.34 327.3 L 590.34 360.46 M 591.39 332.03 L 591.39 369.8 M 592.44 326.98 L 592.44 362.56 M 593.49 339.03 L 593.49 359.27 M 594.54 320.07 L 594.54 371.38 M 595.58 319.81 L 595.58 371.01 M 596.63 319.99 L 596.63 367.15 M 597.68 310.88 L 597.68 358.23 M 598.73 330.09 L 598.73 382.22 M 599.77 328.07 L 599.77 370.77 M 600.82 334.49 L 600.82 368.51 M 601.87 340.41 L 601.87 360.04 M 602.92 331.11 L 602.92 369.43 M 603.96 337.24 L 603.96 357.91 M 605.01 325.75 L 605.01 369.17 M 606.06 337.49 L 606.06 359.88 M 607.11 331.73 L 607.11 365.96"/></g><g style="stroke-width: 1.0;stroke: rgb(255,85,85);stroke-opacity: 1.0;stroke-linecap: square;stroke-linejoin: bevel;shape-rendering:geometricPrecision;; fill: none" clip-path="url(#_409681760526700clip-2)"><path d="M 57.06 48.27 L 58.1 107.24 L 59.15 110.61 L 60.2 113.05 L 61.25 113.75 L 62.29 113.9 L 63.34 116.19 L 64.39 115.47 L 65.44 115.07 L 66.48 115.81 L 67.53 114.71 L 68.58 117.16 L 69.63 115.18 L 70.68 117.09 L 71.72 118.2 L 72.77 115.89 L 73.82 115.87 L 74.87 108.58 L 75.91 119.51 L 76.96 117.69 L 78.01 123.48 L 79.06 121.37 L 80.1 119.4 L 81.15 127.49 L 82.2 124.43 L 83.25 125.25 L 84.3 128.66 L 85.34 131.41 L 86.39 131.88 L 87.44 129.38 L 88.49 136.14 L 89.53 131.41 L 90.58 132.22 L 91.63 132.79 L 92.68 133.22 L 93.73 134.62 L 94.77 133.24 L 95.82 128.9 L 96.87 131.69 L 97.92 137.24 L 98.96 131.77 L 100.01 135.29 L 101.06 132.84 L 102.11 137.71 L 103.15 137.52 L 104.2 133.49 L 105.25 137.02 L 106.3 130 L 107.35 137.84 L 108.39 140.69 L 109.44 141.19 L 110.49 135.65 L 111.54 134.55 L 112.58 138.16 L 113.63 140.51 L 114.68 141.86 L 115.73 139.92 L 116.78 138.26 L 117.82 136.59 L 118.87 142.55 L 119.92 140.28 L 120.97 145.12 L 122.01 142.9 L 123.06 143.27 L 124.11 142.49 L 125.16 136.24 L 126.2 141.65 L 127.25 145.14 L 128.3 147.16 L 129.35 142.93 L 130.4 142.15 L 131.44 141.77 L 132.49 141.74 L 133.54 145.21 L 134.59 144.53 L 135.63 136.23 L 136.68 147.52 L 137.73 145.67 L 138.78 146.03 L 139.82 136.08 L 140.87 136.34 L 141.92 145.54 L 142.97 144.54 L 144.02 147.36 L 145.06 143.11 L 146.11 147.32 L 147.16 149.04 L 148.21 149.02 L 149.25 142.9 L 150.3 147.18 L 151.35 145.68 L 152.4 146.33 L 153.45 147.33 L 154.49 149.46 L 155.54 141.28 L 156.59 148.51 L 157.64 145.53 L 158.68 147.75 L 159.73 143.74 L 160.78 149.33 L 161.83 148.78 L 162.87 149.48 L 163.92 147.24 L 164.97 144.25 L 166.02 145.67 L 167.07 145.86 L 168.11 150.84 L 169.16 146.75 L 170.21 146.5 L 171.26 144.47 L 172.3 150.73 L 173.35 148.78 L 174.4 150.33 L 175.45 146.55 L 176.5 152.17 L 177.54 146.59 L 178.59 142.55 L 179.64 150.29 L 180.69 151.4 L 181.73 151.07 L 182.78 142.13 L 183.83 151.87 L 184.88 151.44 L 185.92 142.63 L 186.97 148.22 L 188.02 147.04 L 189.07 138.78 L 190.12 150.01 L 191.16 151.37 L 192.21 149.43 L 193.26 150.05 L 194.31 139.76 L 195.35 144.51 L 196.4 151.22 L 197.45 149.03 L 198.5 149.02 L 199.54 154.31 L 200.59 154.32 L 201.64 152.76 L 202.69 153.99 L 203.74 153.92 L 204.78 152.31 L 205.83 152.78 L 206.88 150.5 L 207.93 149.77 L 208.97 145.9 L 210.02 149.55 L 211.07 154.7 L 212.12 153.73 L 213.17 155.36 L 214.21 154.2 L 215.26 150.67 L 216.31 150.15 L 217.36 157.12 L 218.4 151.81 L 219.45 155.83 L 220.5 139.29 L 221.55 150.87 L 222.59 141.2 L 223.64 144.62 L 224.69 147.17 L 225.74 147.4 L 226.79 154.97 L 227.83 149.56 L 228.88 152.78 L 229.93 156.35 L 230.98 150.86 L 232.02 157.36 L 233.07 154.75 L 234.12 154.78 L 235.17 147.12 L 236.22 151.21 L 237.26 153.15 L 238.31 153.54 L 239.36 154.8 L 240.41 155.39 L 241.45 151.74 L 242.5 150.8 L 243.55 154.47 L 244.6 154.95 L 245.64 154.36 L 246.69 146.94 L 247.74 138.29 L 248.79 144.67 L 249.84 151.13 L 250.88 157.98 L 251.93 157.24 L 252.98 155.78 L 254.03 158.69 L 255.07 146.93 L 256.12 157.54 L 257.17 159.56 L 258.22 151.73 L 259.26 148.42 L 260.31 148.25 L 261.36 152.97 L 262.41 160.08 L 263.46 156.23 L 264.5 159.34 L 265.55 141.37 L 266.6 157.72 L 267.65 157.52 L 268.69 156.39 L 269.74 150.73 L 270.79 161.5 L 271.84 149.11 L 272.89 155.31 L 273.93 155.51 L 274.98 153.51 L 276.03 153.61 L 277.08 154.19 L 278.12 155.25 L 279.17 161.13 L 280.22 158.43 L 281.27 156.16 L 282.31 157.71 L 283.36 161.89 L 284.41 159.28 L 285.46 153.69 L 286.51 156.91 L 287.55 161.3 L 288.6 158.48 L 289.65 156.69 L 290.7 146.69 L 291.74 153.95 L 292.79 158.02 L 293.84 159.52 L 294.89 163.41 L 295.94 162.8 L 296.98 160.23 L 298.03 143.71 L 299.08 163.79 L 300.13 158.86 L 301.17 160.02 L 302.22 161.96 L 303.27 160.49 L 304.32 161.72 L 305.36 154.12 L 306.41 158.18 L 307.46 158.27 L 308.51 155.3 L 309.56 157.74 L 310.6 157.69 L 311.65 155.41 L 312.7 152.5 L 313.75 144.49 L 314.79 158.84 L 315.84 152.9 L 316.89 153.91 L 317.94 159.68 L 318.98 156.62 L 320.03 163.39 L 321.08 161.51 L 322.13 163.56 L 323.18 156.83 L 324.22 156.86 L 325.27 159.91 L 326.32 160.31 L 327.37 153.79 L 328.41 158 L 329.46 157.47 L 330.51 157.75 L 331.56 156.68 L 332.61 156.13 L 333.65 160.45 L 334.7 152.68 L 335.75 158.95 L 336.8 160.67 L 337.84 155.11 L 338.89 157.63 L 339.94 140.65 L 340.99 162.35 L 342.03 162.03 L 343.08 160.89 L 344.13 161.67 L 345.18 159.08 L 346.23 161.77 L 347.27 160.49 L 348.32 158.05 L 349.37 160.14 L 350.42 163.98 L 351.46 161.67 L 352.51 157.82 L 353.56 163.24 L 354.61 164.95 L 355.66 151.88 L 356.7 164.85 L 357.75 157.85 L 358.8 163.99 L 359.85 154.68 L 360.89 161.09 L 361.94 151.3 L 362.99 165.34 L 364.04 159.3 L 365.08 163.53 L 366.13 151.52 L 367.18 155.26 L 368.23 154.47 L 369.28 162.49 L 370.32 164.52 L 371.37 167.14 L 372.42 163.95 L 373.47 154.24 L 374.51 159.23 L 375.56 165.65 L 376.61 161.89 L 377.66 162.29 L 378.7 159.68 L 379.75 162.54 L 380.8 162.08 L 381.85 163.74 L 382.9 157.73 L 383.94 164.25 L 384.99 164.77 L 386.04 162.75 L 387.09 162.98 L 388.13 163.13 L 389.18 167.96 L 390.23 158.72 L 391.28 156.36 L 392.33 158.29 L 393.37 165.58 L 394.42 164.67 L 395.47 165.92 L 396.52 165.05 L 397.56 164.16 L 398.61 148.78 L 399.66 157.72 L 400.71 158.61 L 401.75 167.86 L 402.8 165.36 L 403.85 153.91 L 404.9 157.19 L 405.95 163.53 L 406.99 166.41 L 408.04 162.28 L 409.09 155.84 L 410.14 165.24 L 411.18 165.57 L 412.23 163.53 L 413.28 160.15 L 414.33 154.45 L 415.38 160.49 L 416.42 162.94 L 417.47 167 L 418.52 166.71 L 419.57 164.13 L 420.61 138.94 L 421.66 151.18 L 422.71 165.98 L 423.76 161.87 L 424.8 134.91 L 425.85 165.46 L 426.9 164.84 L 427.95 165.35 L 429 163.09 L 430.04 143.17 L 431.09 167.86 L 432.14 162.9 L 433.19 169.58 L 434.23 158.41 L 435.28 164.12 L 436.33 159.53 L 437.38 164.16 L 438.42 166.3 L 439.47 165.56 L 440.52 165.51 L 441.57 166.22 L 442.62 164.77 L 443.66 155.34 L 444.71 159.69 L 445.76 169.65 L 446.81 170.86 L 447.85 168.74 L 448.9 168.11 L 449.95 154.95 L 451 167.14 L 452.05 152.99 L 453.09 158.66 L 454.14 163.86 L 455.19 167.25 L 456.24 170.2 L 457.28 168.56 L 458.33 165.47 L 459.38 158.38 L 460.43 169.39 L 461.47 161.35 L 462.52 162.69 L 463.57 170.19 L 464.62 170.27 L 465.67 151.54 L 466.71 163.49 L 467.76 137.42 L 468.81 167.55 L 469.86 144.16 L 470.9 167.68 L 471.95 164.35 L 473 168.35 L 474.05 151.9 L 475.1 166.78 L 476.14 165.1 L 477.19 167.54 L 478.24 161.75 L 479.29 162.53 L 480.33 169.73 L 481.38 160.02 L 482.43 153.93 L 483.48 162.75 L 484.52 145.9 L 485.57 166.39 L 486.62 169.02 L 487.67 167.15 L 488.72 171.93 L 489.76 132.36 L 490.81 171.47 L 491.86 161.87 L 492.91 168.89 L 493.95 164.85 L 495 164.29 L 496.05 138.89 L 497.1 172.58 L 498.14 167.56 L 499.19 168.69 L 500.24 169.18 L 501.29 169.16 L 502.34 170.48 L 503.38 172.85 L 504.43 171.12 L 505.48 161.94 L 506.53 169.13 L 507.57 167.8 L 508.62 171.7 L 509.67 170.78 L 510.72 167.14 L 511.77 166.85 L 512.81 169.17 L 513.86 170.23 L 514.91 171.83 L 515.96 167.07 L 517 163.18 L 518.05 162.06 L 519.1 161.64 L 520.15 152.53 L 521.19 160.42 L 522.24 171.84 L 523.29 170.45 L 524.34 165.96 L 525.39 173.26 L 526.43 164.76 L 527.48 141.21 L 528.53 172.92 L 529.58 165.34 L 530.62 170.58 L 531.67 171.65 L 532.72 174.51 L 533.77 169.77 L 534.82 167.32 L 535.86 160.86 L 536.91 170.62 L 537.96 166.42 L 539.01 173.88 L 540.05 167.31 L 541.1 145.61 L 542.15 173.18 L 543.2 166.54 L 544.24 168.3 L 545.29 167.06 L 546.34 173.93 L 547.39 162.1 L 548.44 165.6 L 549.48 158.91 L 550.53 165.86 L 551.58 172.05 L 552.63 172.81 L 553.67 164.97 L 554.72 171.95 L 555.77 173.82 L 556.82 158.78 L 557.86 169.34 L 558.91 170.8 L 559.96 167.31 L 561.01 168.76 L 562.06 168.39 L 563.1 150.26 L 564.15 168.45 L 565.2 165.15 L 566.25 172.46 L 567.29 162.85 L 568.34 169.82 L 569.39 166.27 L 570.44 167.01 L 571.49 165.22 L 572.53 172.39 L 573.58 169.96 L 574.63 176.61 L 575.68 167.99 L 576.72 173.92 L 577.77 171.49 L 578.82 176.32 L 579.87 173.64 L 580.91 152.59 L 581.96 166.39 L 583.01 172.46 L 584.06 170.91 L 585.11 154.13 L 586.15 173.57 L 587.2 159.08 L 588.25 172.32 L 589.3 176.77 L 590.34 172.83 L 591.39 160.71 L 592.44 167.24 L 593.49 169.54 L 594.54 170.69 L 595.58 169.03 L 596.63 166.99 L 597.68 172.02 L 598.73 160.79 L 599.77 168.13 L 600.82 171.45 L 601.87 169.19 L 602.92 172.82 L 603.96 167.6 L 605.01 170.32 L 606.06 170.91 L 607.11 169.04 L 608.16 175.37"/></g><g style="stroke-width: 1.0;stroke: rgb(255,85,85);stroke-opacity: 1.0;stroke-linecap: square;stroke-linejoin: bevel;shape-rendering:geometricPrecision;; fill: none" clip-path="url(#_409681760526700clip-2)"><path d="M 57.06 48.27 L 57.06 106.37 M 58.1 105.05 L 58.1 110.04 M 59.15 109.89 L 59.15 112.64 M 60.2 111.6 L 60.2 114.03 M 61.25 113.28 L 61.25 115.17 M 62.29 113.43 L 62.29 116.65 M 63.34 113.72 L 63.34 116.68 M 64.39 110.45 L 64.39 118.22 M 65.44 112.19 L 65.44 116.39 M 66.48 112.58 L 66.48 115.9 M 67.53 111.39 L 67.53 117.65 M 68.58 111.59 L 68.58 117.88 M 69.63 113.22 L 69.63 117.04 M 70.68 113.86 L 70.68 117.34 M 71.72 113.09 L 71.72 118.3 M 72.77 111.79 L 72.77 123.21 M 73.82 103.78 L 73.82 123.64 M 74.87 107.49 L 74.87 124.3 M 75.91 110.13 L 75.91 124.07 M 76.96 114.63 L 76.96 121.56 M 78.01 114.17 L 78.01 124.42 M 79.06 119.58 L 79.06 122.63 M 80.1 118.8 L 80.1 126.46 M 81.15 118.87 L 81.15 128.94 M 82.2 121.12 L 82.2 130.5 M 83.25 125.25 L 83.25 131.29 M 84.3 127.38 L 84.3 131.74 M 85.34 126.11 L 85.34 133.62 M 86.39 125.81 L 86.39 134.24 M 87.44 125.79 L 87.44 135.33 M 88.49 126.4 L 88.49 136.14 M 89.53 130.38 L 89.53 134.3 M 90.58 128.65 L 90.58 135.56 M 91.63 127.6 L 91.63 137.23 M 92.68 125.56 L 92.68 139.44 M 93.73 129.82 L 93.73 136.94 M 94.77 131.45 L 94.77 136.73 M 95.82 128.9 L 95.82 138.24 M 96.87 126.62 L 96.87 138.46 M 97.92 131.98 L 97.92 137.35 M 98.96 131.77 L 98.96 138.27 M 100.01 128.88 L 100.01 140.92 M 101.06 131.6 L 101.06 139.92 M 102.11 132.41 L 102.11 140.05 M 103.15 133.04 L 103.15 142.05 M 104.2 130.06 L 104.2 141.29 M 105.25 131.9 L 105.25 141.69 M 106.3 130 L 106.3 142.16 M 107.35 130.21 L 107.35 143 M 108.39 132.66 L 108.39 143.16 M 109.44 134.88 L 109.44 142.31 M 110.49 134.08 L 110.49 142.43 M 111.54 131.15 L 111.54 143.65 M 112.58 133 L 112.58 144.59 M 113.63 128.94 L 113.63 145.42 M 114.68 136.3 L 114.68 143.55 M 115.73 130.44 L 115.73 143.94 M 116.78 135.23 L 116.78 143.28 M 117.82 132.91 L 117.82 144.62 M 118.87 135.4 L 118.87 144.06 M 119.92 136.01 L 119.92 144.29 M 120.97 132.96 L 120.97 146.52 M 122.01 139.66 L 122.01 145.15 M 123.06 132.91 L 123.06 145.39 M 124.11 134.77 L 124.11 145.84 M 125.16 134.19 L 125.16 146.32 M 126.2 136.28 L 126.2 145.71 M 127.25 134.84 L 127.25 147.11 M 128.3 129.95 L 128.3 147.16 M 129.35 134.32 L 129.35 146.85 M 130.4 135.89 L 130.4 148.5 M 131.44 133.11 L 131.44 146.84 M 132.49 138.88 L 132.49 147.8 M 133.54 139.88 L 133.54 146.24 M 134.59 136.79 L 134.59 147.23 M 135.63 134.78 L 135.63 148.37 M 136.68 138.01 L 136.68 147.79 M 137.73 133.84 L 137.73 149.14 M 138.78 129.58 L 138.78 148.14 M 139.82 136.08 L 139.82 149.61 M 140.87 132.87 L 140.87 148.22 M 141.92 139.45 L 141.92 147.63 M 142.97 136.31 L 142.97 149.13 M 144.02 139.34 L 144.02 149.21 M 145.06 139.82 L 145.06 149.26 M 146.11 137.31 L 146.11 149.5 M 147.16 138.73 L 147.16 149.91 M 148.21 139.63 L 148.21 149.08 M 149.25 140.24 L 149.25 149.05 M 150.3 136 L 150.3 149.08 M 151.35 141.51 L 151.35 148.88 M 152.4 138.05 L 152.4 150.85 M 153.45 140.1 L 153.45 149.01 M 154.49 141.9 L 154.49 151.02 M 155.54 135.35 L 155.54 149.74 M 156.59 142.48 L 156.59 151.07 M 157.64 145.53 L 157.64 150.55 M 158.68 139.93 L 158.68 150.37 M 159.73 140.93 L 159.73 150.15 M 160.78 135.58 L 160.78 152.13 M 161.83 135.68 L 161.83 150.77 M 162.87 141.62 L 162.87 151.51 M 163.92 139.67 L 163.92 151.04 M 164.97 139.91 L 164.97 151.48 M 166.02 143.24 L 166.02 151.62 M 167.07 140.35 L 167.07 151.37 M 168.11 142.39 L 168.11 152.14 M 169.16 141.2 L 169.16 151.71 M 170.21 145.06 L 170.21 152.39 M 171.26 141.3 L 171.26 150.96 M 172.3 138.01 L 172.3 151.51 M 173.35 145.09 L 173.35 151.68 M 174.4 137.77 L 174.4 151.8 M 175.45 143.04 L 175.45 151.22 M 176.5 142.82 L 176.5 152.17 M 177.54 140.55 L 177.54 152.71 M 178.59 135.51 L 178.59 152.11 M 179.64 144.12 L 179.64 153.11 M 180.69 142.17 L 180.69 151.63 M 181.73 140.77 L 181.73 151.45 M 182.78 137.91 L 182.78 152.45 M 183.83 148.71 L 183.83 153.98 M 184.88 138.17 L 184.88 153.12 M 185.92 139.07 L 185.92 153.29 M 186.97 144.71 L 186.97 153.97 M 188.02 135.74 L 188.02 154.32 M 189.07 138.78 L 189.07 152.76 M 190.12 143.2 L 190.12 154.49 M 191.16 144.14 L 191.16 154.82 M 192.21 138.92 L 192.21 153.89 M 193.26 140.34 L 193.26 153.85 M 194.31 139.76 L 194.31 154.63 M 195.35 144.48 L 195.35 154.59 M 196.4 145.99 L 196.4 153.98 M 197.45 140.08 L 197.45 153.43 M 198.5 143.24 L 198.5 155.72 M 199.54 146.23 L 199.54 154.49 M 200.59 141.94 L 200.59 155.28 M 201.64 148.71 L 201.64 154.21 M 202.69 138.63 L 202.69 155.09 M 203.74 141.89 L 203.74 155.3 M 204.78 145.42 L 204.78 156.15 M 205.83 143.61 L 205.83 154.55 M 206.88 144.38 L 206.88 155.9 M 207.93 142.26 L 207.93 155.25 M 208.97 144.3 L 208.97 155.96 M 210.02 135.87 L 210.02 156.67 M 211.07 138.81 L 211.07 155.67 M 212.12 146.33 L 212.12 155.72 M 213.17 144.96 L 213.17 157.16 M 214.21 139.01 L 214.21 154.3 M 215.26 142.08 L 215.26 156.36 M 216.31 134.76 L 216.31 156.23 M 217.36 133.36 L 217.36 157.12 M 218.4 144.87 L 218.4 156.73 M 219.45 147.87 L 219.45 157.13 M 220.5 139.29 L 220.5 156.35 M 221.55 118.41 L 221.55 156.52 M 222.59 126.69 L 222.59 156.4 M 223.64 130.36 L 223.64 156.45 M 224.69 128.1 L 224.69 157.23 M 225.74 133.48 L 225.74 156.79 M 226.79 132.69 L 226.79 155.52 M 227.83 149.56 L 227.83 159.54 M 228.88 147 L 228.88 158.63 M 229.93 150.39 L 229.93 159.48 M 230.98 144.3 L 230.98 157.93 M 232.02 144.27 L 232.02 158.6 M 233.07 143.19 L 233.07 157.19 M 234.12 147.89 L 234.12 157.38 M 235.17 147.12 L 235.17 158.16 M 236.22 146.95 L 236.22 158.08 M 237.26 143.65 L 237.26 156.24 M 238.31 147.78 L 238.31 158.36 M 239.36 142.34 L 239.36 155.46 M 240.41 138.78 L 240.41 158.54 M 241.45 143.59 L 241.45 159.1 M 242.5 148.63 L 242.5 158.28 M 243.55 139.78 L 243.55 159.23 M 244.6 145.37 L 244.6 158.89 M 245.64 128.59 L 245.64 157.72 M 246.69 146.94 L 246.69 159.84 M 247.74 138.29 L 247.74 159.53 M 248.79 143.02 L 248.79 158.17 M 249.84 132.19 L 249.84 160.18 M 250.88 145.01 L 250.88 157.98 M 251.93 153.89 L 251.93 160.99 M 252.98 149.69 L 252.98 161.7 M 254.03 142.88 L 254.03 158.69 M 255.07 142.17 L 255.07 161.03 M 256.12 143.97 L 256.12 159.47 M 257.17 150.72 L 257.17 160.39 M 258.22 150.97 L 258.22 161.07 M 259.26 146.6 L 259.26 159.82 M 260.31 127.39 L 260.31 158.35 M 261.36 148.98 L 261.36 160.34 M 262.41 148.85 L 262.41 160.67 M 263.46 149.03 L 263.46 160.41 M 264.5 152.41 L 264.5 162.08 M 265.55 137.64 L 265.55 158.86 M 266.6 146.38 L 266.6 160.95 M 267.65 151.31 L 267.65 162.28 M 268.69 144.32 L 268.69 161.58 M 269.74 137.42 L 269.74 162.89 M 270.79 154.88 L 270.79 161.64 M 271.84 147.47 L 271.84 160.03 M 272.89 142.65 L 272.89 162.68 M 273.93 143.79 L 273.93 161.72 M 274.98 145.19 L 274.98 160.85 M 276.03 143.01 L 276.03 162.02 M 277.08 148.32 L 277.08 160.69 M 278.12 154.76 L 278.12 161.14 M 279.17 153.48 L 279.17 162.85 M 280.22 145.7 L 280.22 162.74 M 281.27 145.78 L 281.27 161.44 M 282.31 153.93 L 282.31 163.58 M 283.36 141.89 L 283.36 162.64 M 284.41 144.13 L 284.41 160.88 M 285.46 138.77 L 285.46 162.59 M 286.51 154.51 L 286.51 162.89 M 287.55 149.44 L 287.55 163.19 M 288.6 151.61 L 288.6 160.8 M 289.65 150.26 L 289.65 163.91 M 290.7 139.84 L 290.7 160.89 M 291.74 121.8 L 291.74 160.61 M 292.79 148.97 L 292.79 162.27 M 293.84 153.09 L 293.84 164.41 M 294.89 152.41 L 294.89 164.93 M 295.94 149.94 L 295.94 162.8 M 296.98 146.15 L 296.98 163.96 M 298.03 126.74 L 298.03 165.77 M 299.08 143.31 L 299.08 163.79 M 300.13 133.13 L 300.13 158.9 M 301.17 140.87 L 301.17 161.77 M 302.22 152.28 L 302.22 161.96 M 303.27 145.84 L 303.27 163.05 M 304.32 148.16 L 304.32 161.72 M 305.36 150.6 L 305.36 161.7 M 306.41 149.43 L 306.41 162.04 M 307.46 155.58 L 307.46 162.06 M 308.51 151.3 L 308.51 162.89 M 309.56 150.6 L 309.56 162.13 M 310.6 149.89 L 310.6 159.01 M 311.65 150.09 L 311.65 161.62 M 312.7 139.77 L 312.7 160.76 M 313.75 132.18 L 313.75 161.15 M 314.79 147 L 314.79 161.78 M 315.84 126.1 L 315.84 163.47 M 316.89 152.81 L 316.89 164.17 M 317.94 151.63 L 317.94 163.96 M 318.98 150.46 L 318.98 162.7 M 320.03 139.11 L 320.03 163.67 M 321.08 135.37 L 321.08 162.55 M 322.13 156.19 L 322.13 163.86 M 323.18 154.64 L 323.18 163.13 M 324.22 130.73 L 324.22 161 M 325.27 142.33 L 325.27 162.04 M 326.32 144.67 L 326.32 161.96 M 327.37 111.09 L 327.37 161.21 M 328.41 148.69 L 328.41 163.97 M 329.46 146.42 L 329.46 161.38 M 330.51 149.81 L 330.51 162.16 M 331.56 151.88 L 331.56 163.2 M 332.61 151.44 L 332.61 163.61 M 333.65 117.68 L 333.65 162.35 M 334.7 124.18 L 334.7 160.7 M 335.75 135.01 L 335.75 159.24 M 336.8 135.93 L 336.8 160.67 M 337.84 139.75 L 337.84 158.9 M 338.89 139.82 L 338.89 161.59 M 339.94 140.65 L 339.94 160.28 M 340.99 148.34 L 340.99 163.1 M 342.03 154.43 L 342.03 163.37 M 343.08 151.75 L 343.08 164.34 M 344.13 146.83 L 344.13 163.45 M 345.18 154.72 L 345.18 163.5 M 346.23 155.43 L 346.23 163.75 M 347.27 149.66 L 347.27 163.56 M 348.32 151.94 L 348.32 161.34 M 349.37 153.11 L 349.37 164.31 M 350.42 151.47 L 350.42 163.98 M 351.46 154.84 L 351.46 165.91 M 352.51 148.63 L 352.51 163.49 M 353.56 143.05 L 353.56 166.2 M 354.61 157.44 L 354.61 164.95 M 355.66 140.94 L 355.66 162.19 M 356.7 145.43 L 356.7 164.9 M 357.75 145.31 L 357.75 165.66 M 358.8 149.9 L 358.8 166.3 M 359.85 154.68 L 359.85 165.36 M 360.89 152.63 L 360.89 166 M 361.94 114.93 L 361.94 163.93 M 362.99 147.19 L 362.99 165.34 M 364.04 159.3 L 364.04 166.07 M 365.08 135.84 L 365.08 165.06 M 366.13 135.76 L 366.13 161.95 M 367.18 138.61 L 367.18 161.98 M 368.23 147.55 L 368.23 167.24 M 369.28 152.21 L 369.28 167.33 M 370.32 157.14 L 370.32 167.43 M 371.37 153.87 L 371.37 167.14 M 372.42 156.36 L 372.42 166.66 M 373.47 150.11 L 373.47 166.95 M 374.51 153.72 L 374.51 167.22 M 375.56 147.51 L 375.56 165.93 M 376.61 151.51 L 376.61 167.08 M 377.66 155.92 L 377.66 166.77 M 378.7 154.62 L 378.7 166.68 M 379.75 158.09 L 379.75 167.05 M 380.8 154.2 L 380.8 167.49 M 381.85 141.1 L 381.85 165.9 M 382.9 157.19 L 382.9 167.16 M 383.94 152.94 L 383.94 167.84 M 384.99 161.04 L 384.99 168.2 M 386.04 153.41 L 386.04 167.57 M 387.09 151.49 L 387.09 166.39 M 388.13 159.83 L 388.13 168.5 M 389.18 156.26 L 389.18 169.98 M 390.23 143.71 L 390.23 165.21 M 391.28 124.38 L 391.28 165.36 M 392.33 133.86 L 392.33 164.34 M 393.37 143.49 L 393.37 167.32 M 394.42 138.59 L 394.42 165.74 M 395.47 148.7 L 395.47 167.01 M 396.52 157.96 L 396.52 169.08 M 397.56 119.5 L 397.56 165.37 M 398.61 143.25 L 398.61 162.83 M 399.66 142.29 L 399.66 164.52 M 400.71 158.61 L 400.71 167.75 M 401.75 160.56 L 401.75 168.6 M 402.8 139.06 L 402.8 168.09 M 403.85 139.66 L 403.85 164.63 M 404.9 156.42 L 404.9 167.27 M 405.95 160.92 L 405.95 169.02 M 406.99 151.03 L 406.99 170.35 M 408.04 155.93 L 408.04 169.31 M 409.09 155.84 L 409.09 166.94 M 410.14 154.42 L 410.14 168.2 M 411.18 150.3 L 411.18 167.09 M 412.23 147.3 L 412.23 168.13 M 413.28 135.84 L 413.28 168.32 M 414.33 150.15 L 414.33 166.98 M 415.38 137.95 L 415.38 168.6 M 416.42 158.18 L 416.42 166.95 M 417.47 158.72 L 417.47 168.95 M 418.52 154.46 L 418.52 168.66 M 419.57 146.16 L 419.57 167.54 M 420.61 138.94 L 420.61 167.4 M 421.66 139.64 L 421.66 165.8 M 422.71 160.52 L 422.71 169.74 M 423.76 135.23 L 423.76 169.99 M 424.8 134.91 L 424.8 167.25 M 425.85 159.86 L 425.85 170.32 M 426.9 157.22 L 426.9 170.55 M 427.95 156.48 L 427.95 169.62 M 429 156.96 L 429 170.48 M 430.04 132.82 L 430.04 168.48 M 431.09 157.1 L 431.09 169.78 M 432.14 153.99 L 432.14 168.52 M 433.19 128.53 L 433.19 169.58 M 434.23 153.32 L 434.23 167.75 M 435.28 158.33 L 435.28 169.3 M 436.33 153.84 L 436.33 169.82 M 437.38 151.98 L 437.38 167.98 M 438.42 164.36 L 438.42 170.15 M 439.47 158.34 L 439.47 169.32 M 440.52 154.14 L 440.52 167.97 M 441.57 154.38 L 441.57 170.12 M 442.62 131.7 L 442.62 168.25 M 443.66 155.34 L 443.66 169.35 M 444.71 157.62 L 444.71 169.25 M 445.76 154.31 L 445.76 170.55 M 446.81 132.68 L 446.81 170.86 M 447.85 162.32 L 447.85 172.26 M 448.9 155.21 L 448.9 172.73 M 449.95 126.44 L 449.95 168.78 M 451 148.8 L 451 171.04 M 452.05 135.85 L 452.05 167.53 M 453.09 158.66 L 453.09 169.86 M 454.14 155.43 L 454.14 169.11 M 455.19 140.61 L 455.19 172.13 M 456.24 147.62 L 456.24 170.87 M 457.28 161.67 L 457.28 171.57 M 458.33 144.4 L 458.33 171.74 M 459.38 151.79 L 459.38 172.15 M 460.43 122.9 L 460.43 170.38 M 461.47 135.8 L 461.47 169.19 M 462.52 162.69 L 462.52 172.51 M 463.57 152.73 L 463.57 171.16 M 464.62 129.04 L 464.62 171.18 M 465.67 135.19 L 465.67 170.36 M 466.71 138.52 L 466.71 170.62 M 467.76 137.42 L 467.76 171.14 M 468.81 152.99 L 468.81 172.78 M 469.86 130.47 L 469.86 172.32 M 470.9 154.14 L 470.9 171.28 M 471.95 161.13 L 471.95 172.23 M 473 160.48 L 473 172.55 M 474.05 151.9 L 474.05 170.29 M 475.1 153.88 L 475.1 170.54 M 476.14 162.64 L 476.14 171.68 M 477.19 151.15 L 477.19 172.67 M 478.24 128.42 L 478.24 167.33 M 479.29 157.43 L 479.29 171.06 M 480.33 155.2 L 480.33 170.17 M 481.38 160.02 L 481.38 170.1 M 482.43 151.43 L 482.43 171.75 M 483.48 149.85 L 483.48 170.06 M 484.52 135.35 L 484.52 169.44 M 485.57 139.6 L 485.57 167.2 M 486.62 154.55 L 486.62 173.18 M 487.67 144.72 L 487.67 170.08 M 488.72 146.25 L 488.72 173.68 M 489.76 132.36 L 489.76 172.3 M 490.81 159.27 L 490.81 173.5 M 491.86 156.9 L 491.86 172.5 M 492.91 143.09 L 492.91 170.45 M 493.95 131.97 L 493.95 167.15 M 495 138.55 L 495 166.35 M 496.05 138.89 L 496.05 171.59 M 497.1 161.44 L 497.1 172.58 M 498.14 161.9 L 498.14 172.37 M 499.19 159.4 L 499.19 170.42 M 500.24 155.5 L 500.24 172.85 M 501.29 164.08 L 501.29 173.52 M 502.34 161.59 L 502.34 173.98 M 503.38 162.29 L 503.38 172.85 M 504.43 138.96 L 504.43 173.36 M 505.48 138.95 L 505.48 171.14 M 506.53 158.41 L 506.53 173 M 507.57 143.71 L 507.57 172.92 M 508.62 160.54 L 508.62 175.72 M 509.67 144.28 L 509.67 172.11 M 510.72 139.55 L 510.72 172.12 M 511.77 159.85 L 511.77 173.8 M 512.81 152.32 L 512.81 174.1 M 513.86 165.36 L 513.86 173.25 M 514.91 151.74 L 514.91 174.44 M 515.96 150.28 L 515.96 171.86 M 517 158.22 L 517 171.82 M 518.05 151.81 L 518.05 170.46 M 519.1 137.47 L 519.1 169.24 M 520.15 133.49 L 520.15 171.06 M 521.19 143.29 L 521.19 171.67 M 522.24 166.38 L 522.24 174.74 M 523.29 165.07 L 523.29 174.64 M 524.34 160.67 L 524.34 172.99 M 525.39 164.98 L 525.39 173.9 M 526.43 152.56 L 526.43 171.33 M 527.48 137.19 L 527.48 172.28 M 528.53 162.88 L 528.53 173.89 M 529.58 121.41 L 529.58 171.86 M 530.62 154 L 530.62 171.85 M 531.67 167.04 L 531.67 173.55 M 532.72 158.47 L 532.72 174.51 M 533.77 162.45 L 533.77 173.07 M 534.82 149.7 L 534.82 172.89 M 535.86 131.82 L 535.86 173.06 M 536.91 165.01 L 536.91 173.97 M 537.96 131.58 L 537.96 171.46 M 539.01 163.77 L 539.01 174.45 M 540.05 131.62 L 540.05 172.71 M 541.1 137.91 L 541.1 173.85 M 542.15 167.77 L 542.15 174.49 M 543.2 161.23 L 543.2 172.17 M 544.24 152.14 L 544.24 173.67 M 545.29 164.73 L 545.29 175.67 M 546.34 130.76 L 546.34 173.93 M 547.39 139.2 L 547.39 171.65 M 548.44 132.58 L 548.44 171.95 M 549.48 144.12 L 549.48 172.92 M 550.53 165.86 L 550.53 173.89 M 551.58 160.43 L 551.58 174.9 M 552.63 161.64 L 552.63 173.64 M 553.67 157.96 L 553.67 175.74 M 554.72 168.19 L 554.72 174.49 M 555.77 140.65 L 555.77 174.86 M 556.82 135.54 L 556.82 170.93 M 557.86 131.45 L 557.86 171.03 M 558.91 161.89 L 558.91 173.24 M 559.96 157.38 L 559.96 176.6 M 561.01 165.55 L 561.01 176.35 M 562.06 139.31 L 562.06 173.21 M 563.1 136.04 L 563.1 171.97 M 564.15 155.44 L 564.15 174.69 M 565.2 154.99 L 565.2 173.86 M 566.25 136.01 L 566.25 172.46 M 567.29 147.98 L 567.29 168.59 M 568.34 143.07 L 568.34 169.82 M 569.39 164.67 L 569.39 172.96 M 570.44 167.01 L 570.44 176.53 M 571.49 154.42 L 571.49 172.17 M 572.53 153.26 L 572.53 173.44 M 573.58 161.4 L 573.58 176.24 M 574.63 137.32 L 574.63 176.61 M 575.68 160.19 L 575.68 173.68 M 576.72 158.58 L 576.72 173.92 M 577.77 166.27 L 577.77 177.53 M 578.82 159.07 L 578.82 176.32 M 579.87 143.3 L 579.87 173.64 M 580.91 133.68 L 580.91 173.32 M 581.96 134.04 L 581.96 174.29 M 583.01 150.66 L 583.01 176.04 M 584.06 146.51 L 584.06 173.75 M 585.11 140.57 L 585.11 175.77 M 586.15 130.14 L 586.15 173.57 M 587.2 137.47 L 587.2 175.9 M 588.25 162.35 L 588.25 174.34 M 589.3 165.64 L 589.3 176.77 M 590.34 147.39 L 590.34 173.89 M 591.39 144.17 L 591.39 169.3 M 592.44 140.25 L 592.44 175.28 M 593.49 160 L 593.49 174.51 M 594.54 138.12 L 594.54 173.09 M 595.58 141.74 L 595.58 171.41 M 596.63 138.26 L 596.63 175.02 M 597.68 127.14 L 597.68 176.39 M 598.73 137.46 L 598.73 172.86 M 599.77 142.57 L 599.77 173.45 M 600.82 151.33 L 600.82 172.98 M 601.87 160.33 L 601.87 174.98 M 602.92 144.55 L 602.92 173.68 M 603.96 157.49 L 603.96 173.62 M 605.01 147.53 L 605.01 173.95 M 606.06 160.67 L 606.06 173.86 M 607.11 151.95 L 607.11 170.77"/></g><rect x="57" y="31" width="579" height="380" style="stroke-width: 0.5;stroke: rgb(0,0,0);stroke-opacity: 0.0;stroke-linecap: round;stroke-linejoin: round;shape-rendering:crispEdges;; fill: none" clip-path="url(#_409681760526700clip-0)"/></svg>
